<svg xmlns="http://www.w3.org/2000/svg" xmlns:xlink="http://www.w3.org/1999/xlink" width="500" zoomAndPan="magnify" viewBox="0 0 375 374.999991" height="500" preserveAspectRatio="xMidYMid meet" version="1.0"><defs><g/><clipPath id="a595222835"><rect x="0" width="375" y="0" height="161"/></clipPath></defs><path fill="#1c243a" d="M 84.152344 173.597656 C 84.378906 173.054688 82.453125 171.332031 79.867188 169.773438 C 77.28125 168.214844 74.539062 166.1875 73.773438 165.269531 C 72.953125 164.28125 71.042969 163.554688 69.097656 163.488281 C 65.960938 163.375 63.296875 160.957031 64.347656 159.167969 C 65.546875 157.117188 64.972656 156.648438 62.589844 157.738281 C 60 158.921875 55.195312 158.363281 56.988281 157.085938 C 57.472656 156.742188 57.382812 156.035156 56.792969 155.515625 C 56.085938 154.898438 56.320312 153.996094 57.46875 152.902344 C 58.429688 151.984375 59.390625 150.9375 59.601562 150.578125 C 60.074219 149.769531 67.613281 145.742188 75.359375 142.15625 C 78.539062 140.683594 81.3125 139.074219 81.519531 138.574219 C 81.730469 138.078125 82.253906 138.164062 82.679688 138.765625 C 83.109375 139.371094 83.753906 139.167969 84.109375 138.320312 C 84.46875 137.472656 86.433594 136.886719 88.476562 137.015625 C 90.609375 137.152344 92.101562 136.644531 91.972656 135.828125 C 91.683594 133.96875 95.328125 132.09375 96.375 133.566406 C 96.824219 134.195312 97.09375 134.09375 96.972656 133.339844 C 96.855469 132.589844 98.382812 131.609375 100.363281 131.160156 C 102.34375 130.714844 105.0625 129.835938 106.402344 129.203125 C 107.746094 128.574219 109.21875 128.21875 109.671875 128.410156 C 110.128906 128.601562 112.515625 128.070312 114.972656 127.226562 C 117.429688 126.382812 121.144531 125.410156 123.222656 125.058594 C 126.917969 124.433594 127.027344 124.492188 128.183594 127.644531 C 128.835938 129.417969 128.867188 131.230469 128.25 131.667969 C 127.570312 132.152344 127.957031 132.488281 129.238281 132.527344 C 130.484375 132.566406 130.898438 132.910156 130.253906 133.367188 C 129.660156 133.789062 128.289062 133.765625 127.210938 133.3125 C 123.9375 131.933594 121.417969 132.265625 120.609375 134.183594 C 120.1875 135.183594 120.492188 136.273438 121.28125 136.605469 C 122.070312 136.941406 122.976562 136.4375 123.300781 135.492188 C 123.671875 134.398438 124.535156 134.1875 125.671875 134.910156 C 126.652344 135.539062 128.382812 135.769531 129.519531 135.425781 C 131.183594 134.921875 131.332031 135.058594 130.296875 136.136719 C 129.527344 136.941406 129.640625 138.078125 130.582031 138.980469 C 131.449219 139.8125 131.957031 140 131.710938 139.402344 C 131.078125 137.84375 142.296875 135.953125 145.132812 137.140625 C 147.460938 138.117188 147.402344 138.203125 142.355469 141.242188 C 139.519531 142.949219 136.816406 144.046875 136.355469 143.679688 C 135.890625 143.3125 135.304688 143.507812 135.046875 144.113281 C 134.453125 145.53125 137.957031 146.367188 140.5 145.414062 C 141.578125 145.007812 142.835938 145.207031 143.296875 145.851562 C 143.792969 146.550781 144.039062 146.40625 143.894531 145.496094 C 143.75 144.566406 144.429688 144.222656 145.621094 144.628906 C 146.699219 144.996094 148.636719 145.613281 149.921875 145.996094 C 151.707031 146.53125 151.941406 147.105469 150.921875 148.4375 C 150.183594 149.398438 149.007812 149.9375 148.300781 149.640625 C 147.59375 149.34375 146.746094 149.746094 146.414062 150.539062 C 145.78125 152.035156 149.261719 153.125 152.179688 152.347656 C 153.019531 152.121094 153.886719 152.382812 154.109375 152.925781 C 154.914062 154.90625 153.367188 156.46875 150.9375 156.117188 C 149.269531 155.878906 148.421875 156.394531 148.382812 157.671875 C 148.347656 158.71875 147.78125 159.351562 147.125 159.074219 C 146.464844 158.800781 146.117188 159.046875 146.355469 159.625 C 146.589844 160.203125 148.550781 159.875 150.710938 158.898438 C 152.875 157.921875 156.078125 157.171875 157.835938 157.234375 C 161.675781 157.371094 165.964844 160.265625 164.195312 161.527344 C 163.4375 162.066406 163.5625 162.3125 164.519531 162.164062 C 165.375 162.027344 165.988281 161.363281 165.878906 160.683594 C 165.707031 159.578125 166.609375 159.609375 168.578125 160.773438 C 168.9375 160.988281 170 160.5625 170.933594 159.835938 C 172.085938 158.9375 172.894531 159.007812 173.4375 160.046875 C 173.964844 161.046875 175.8125 161.6875 178.746094 161.882812 C 182.28125 162.121094 183.367188 162.558594 183.777344 163.917969 C 184.066406 164.871094 183.785156 165.890625 183.15625 166.183594 C 181.691406 166.867188 183.710938 166.605469 192.386719 164.992188 C 196.238281 164.277344 199.765625 164.023438 200.226562 164.429688 C 200.6875 164.832031 202.703125 164.570312 204.707031 163.839844 C 206.710938 163.109375 209.128906 162.84375 210.082031 163.242188 C 211.105469 163.675781 212.277344 163.0625 212.953125 161.742188 C 213.582031 160.515625 215.015625 159.410156 216.140625 159.285156 C 217.265625 159.160156 218.109375 158.5625 218.015625 157.960938 C 217.921875 157.355469 218.796875 156.574219 219.960938 156.222656 C 221.128906 155.867188 222.410156 154.792969 222.816406 153.832031 C 223.21875 152.875 224.769531 151.324219 226.253906 150.386719 C 227.742188 149.453125 228.820312 148.34375 228.648438 147.921875 C 228.476562 147.503906 229.429688 145.84375 230.761719 144.238281 C 232.097656 142.632812 233.761719 140.507812 234.460938 139.515625 C 235.160156 138.523438 236.085938 137.566406 236.515625 137.390625 C 236.949219 137.214844 237.050781 136.246094 236.742188 135.230469 C 236.414062 134.148438 236.941406 132.535156 238.027344 131.3125 C 239.042969 130.171875 239.929688 128.84375 239.996094 128.359375 C 240.066406 127.875 240.886719 127.804688 241.824219 128.199219 C 243.515625 128.910156 244 127.6875 244.039062 122.613281 C 244.050781 120.96875 244.574219 120.664062 246.203125 121.351562 C 247.382812 121.847656 249.371094 121.839844 250.621094 121.328125 C 252.402344 120.605469 253.722656 120.996094 256.71875 123.128906 C 258.820312 124.628906 260.78125 125.761719 261.078125 125.640625 C 261.730469 125.375 271.3125 127.972656 276.109375 129.714844 C 278.035156 130.414062 279.410156 131.453125 279.171875 132.023438 C 278.929688 132.597656 279.542969 132.734375 280.53125 132.332031 C 282.753906 131.425781 287.351562 133.234375 286.707031 134.757812 C 286.449219 135.371094 285.925781 135.433594 285.539062 134.894531 C 285.15625 134.355469 284.25 134.527344 283.53125 135.28125 C 282.808594 136.03125 282.765625 136.5625 283.429688 136.457031 C 284.097656 136.351562 284.460938 137.136719 284.238281 138.195312 C 283.855469 140 283.988281 140.058594 286.34375 139.097656 C 289.664062 137.746094 295.117188 140.089844 295.640625 143.101562 C 296.027344 145.296875 296.0625 145.308594 296.257812 143.277344 C 296.425781 141.492188 296.824219 141.410156 298.527344 142.824219 C 301.234375 145.066406 302.292969 147.429688 300.25 146.671875 C 299.394531 146.355469 299.679688 147.070312 300.882812 148.265625 L 303.070312 150.4375 L 299.964844 150.738281 C 298.253906 150.902344 295.933594 150.441406 294.808594 149.707031 C 293.6875 148.976562 293.242188 148.914062 293.824219 149.566406 C 294.410156 150.21875 294.304688 151.160156 293.597656 151.65625 C 292.890625 152.152344 292 153.265625 291.617188 154.128906 C 291.238281 154.992188 289.792969 155.402344 288.410156 155.039062 C 285.449219 154.257812 285.136719 154.664062 286.367188 157.683594 C 287.636719 160.804688 286.851562 162.054688 284.285156 160.972656 C 283.09375 160.46875 282.207031 160.648438 282.320312 161.367188 C 282.445312 162.167969 281.257812 161.914062 279.253906 160.714844 C 276.933594 159.324219 276.597656 159.277344 278.09375 160.554688 C 280.296875 162.441406 280.289062 164.496094 278.074219 164.328125 C 277.363281 164.273438 277 163.714844 277.261719 163.085938 C 277.527344 162.457031 277.074219 161.660156 276.25 161.3125 C 275.429688 160.96875 274.769531 159.992188 274.78125 159.144531 C 274.792969 158.222656 274.457031 158.328125 273.941406 159.410156 C 273.46875 160.40625 272.582031 161.082031 271.972656 160.910156 C 269.765625 160.289062 269.105469 160.253906 266.5 160.636719 L 263.855469 161.027344 L 266.113281 161.558594 C 267.355469 161.851562 269.332031 162.132812 270.503906 162.183594 C 275.515625 162.398438 276.195312 162.675781 275.539062 164.230469 C 275.167969 165.117188 274.511719 165.347656 274.082031 164.746094 C 273.652344 164.140625 273.035156 164.28125 272.707031 165.058594 C 272 166.742188 266.773438 168.601562 266.261719 167.351562 C 266.066406 166.867188 265.578125 167.257812 265.175781 168.210938 C 264.765625 169.183594 263.160156 169.75 261.527344 169.5 C 259.65625 169.210938 258.300781 169.792969 257.742188 171.125 C 257.144531 172.539062 256.335938 172.828125 255.183594 172.039062 C 254.246094 171.390625 253.929688 170.058594 254.472656 169.03125 C 255.160156 167.726562 254.976562 167.375 253.851562 167.832031 C 252.722656 168.292969 252.449219 169.125 252.917969 170.675781 C 253.472656 172.5 253.300781 172.75 251.90625 172.164062 C 250.777344 171.691406 250.207031 172.121094 250.164062 173.492188 C 250.113281 175.105469 249.679688 175.203125 248.0625 173.964844 C 246.9375 173.101562 245.824219 172.894531 245.566406 173.503906 C 245.3125 174.109375 243.453125 175.203125 241.441406 175.933594 C 239.425781 176.667969 237.894531 176.980469 238.042969 176.628906 C 238.191406 176.277344 236.996094 176.640625 235.386719 177.433594 C 233.777344 178.226562 231.898438 178.636719 231.207031 178.34375 C 230.515625 178.054688 230.035156 178.371094 230.140625 179.046875 C 230.25 179.726562 229.339844 180.191406 228.125 180.078125 C 226.90625 179.96875 223.359375 180.75 220.238281 181.8125 C 217.117188 182.878906 213.96875 183.5 213.246094 183.195312 C 212.519531 182.890625 211.617188 183.378906 211.234375 184.285156 C 210.855469 185.1875 210.191406 185.433594 209.761719 184.832031 C 209.332031 184.230469 208.769531 184.238281 208.511719 184.851562 C 208.253906 185.464844 207.316406 185.664062 206.429688 185.289062 C 205.539062 184.914062 204.242188 185.207031 203.539062 185.933594 C 202.839844 186.664062 201.664062 187.007812 200.929688 186.699219 C 200.191406 186.386719 198.65625 186.617188 197.519531 187.210938 C 196.371094 187.804688 194.644531 187.667969 193.648438 186.90625 C 192.65625 186.144531 192 185.902344 192.191406 186.367188 C 192.378906 186.832031 189.890625 187.90625 186.65625 188.753906 C 180.804688 190.285156 180.773438 190.28125 179.828125 187.386719 C 179.023438 184.929688 178.765625 184.75 178.144531 186.222656 C 177.738281 187.183594 176.90625 187.753906 176.292969 187.496094 C 175.679688 187.238281 175.636719 186.699219 176.195312 186.300781 C 176.757812 185.898438 176.859375 185.070312 176.421875 184.460938 C 175.988281 183.847656 175.40625 183.875 175.132812 184.523438 C 174.863281 185.171875 174.171875 185.152344 173.601562 184.480469 C 173.03125 183.808594 173.171875 184.394531 173.910156 185.78125 C 174.652344 187.167969 176.1875 188.691406 177.324219 189.171875 C 178.933594 189.847656 178.375 190.246094 174.773438 190.972656 C 172.238281 191.488281 170.171875 191.414062 170.179688 190.8125 C 170.191406 190.210938 169.089844 190.417969 167.730469 191.273438 C 166.375 192.125 164.960938 192.398438 164.589844 191.878906 C 164.21875 191.359375 163.480469 191.246094 162.945312 191.625 C 162.167969 192.179688 158.4375 191.796875 154.523438 190.765625 C 154.230469 190.6875 152.046875 190.621094 149.667969 190.613281 C 144.625 190.597656 142.59375 189.953125 144.140625 188.851562 C 144.742188 188.421875 144.757812 187.871094 144.171875 187.625 C 143.585938 187.378906 142.398438 187.726562 141.535156 188.402344 C 140.671875 189.074219 138.09375 189.105469 135.8125 188.472656 C 133.527344 187.835938 129.398438 187.484375 126.636719 187.6875 C 121.324219 188.074219 115.460938 186.265625 115.125 184.136719 C 115.015625 183.4375 114.117188 182.839844 113.128906 182.808594 C 112.140625 182.777344 111.519531 182.304688 111.75 181.757812 C 112.207031 180.671875 108.964844 178.933594 107.695312 179.589844 C 106.246094 180.339844 101.097656 180.65625 99.734375 180.085938 C 98.996094 179.773438 98.1875 178.238281 97.933594 176.671875 L 97.476562 173.824219 L 93.726562 175.519531 C 90.054688 177.179688 83.222656 175.808594 84.152344 173.597656 Z M 102.769531 171.878906 C 103.984375 170.613281 103.84375 170.511719 101.691406 171.070312 C 100.332031 171.425781 98.964844 171.769531 98.652344 171.832031 C 98.34375 171.894531 98.828125 172.253906 99.734375 172.636719 C 100.636719 173.015625 102.003906 172.675781 102.769531 171.878906 Z M 78.722656 158.136719 C 79.476562 157.351562 79.476562 156.851562 78.726562 156.972656 C 78.003906 157.082031 77.222656 157.621094 76.992188 158.167969 C 76.355469 159.683594 77.25 159.667969 78.722656 158.136719 Z M 120.289062 172.535156 C 124.777344 170.871094 126.074219 170.074219 125.015625 169.628906 C 124.765625 169.523438 122.101562 170.355469 119.09375 171.480469 C 116.089844 172.601562 114.050781 173.699219 114.570312 173.914062 C 115.085938 174.125 117.660156 173.507812 120.289062 172.535156 Z M 98.535156 165.175781 C 98.332031 164.675781 97.4375 164.257812 96.546875 164.238281 C 95.566406 164.222656 95.710938 164.578125 96.917969 165.144531 C 98.011719 165.660156 98.738281 165.671875 98.535156 165.175781 Z M 159.464844 183.414062 C 159.894531 182.390625 158.695312 182.382812 155.75 183.386719 C 153.359375 184.203125 151.351562 184.996094 151.289062 185.144531 C 151.222656 185.296875 152.894531 185.304688 155 185.171875 C 157.105469 185.035156 159.113281 184.246094 159.464844 183.414062 Z M 103.421875 161.859375 C 103.300781 161.078125 102.734375 160.246094 102.167969 160.003906 C 101.597656 159.765625 101.464844 160.492188 101.871094 161.617188 C 102.691406 163.898438 103.765625 164.0625 103.421875 161.859375 Z M 73.191406 146.5625 C 73.4375 145.984375 73.132812 145.296875 72.519531 145.039062 C 71.90625 144.78125 71.496094 145.167969 71.609375 145.898438 C 71.722656 146.628906 72.027344 147.3125 72.28125 147.421875 C 72.539062 147.53125 72.949219 147.144531 73.191406 146.5625 Z M 104.1875 158.445312 C 104.417969 157.902344 104.253906 156.960938 103.824219 156.359375 C 103.394531 155.757812 102.734375 156.003906 102.351562 156.90625 C 101.972656 157.8125 102.132812 158.75 102.714844 158.996094 C 103.292969 159.238281 103.957031 158.992188 104.1875 158.445312 Z M 132.328125 168.363281 C 134.578125 167.011719 134.578125 166.953125 132.308594 167.574219 C 130.957031 167.941406 129.644531 168.738281 129.390625 169.34375 C 129.132812 169.949219 129.144531 170.304688 129.410156 170.132812 C 129.675781 169.960938 130.988281 169.164062 132.328125 168.363281 Z M 76.105469 144.066406 C 76.707031 143.636719 76.699219 143.074219 76.085938 142.816406 C 75.46875 142.558594 74.769531 142.820312 74.523438 143.398438 C 74.277344 143.980469 74.289062 144.542969 74.542969 144.648438 C 74.800781 144.757812 75.503906 144.496094 76.105469 144.066406 Z M 102.378906 150.859375 C 102.625 150.320312 101.746094 150.507812 100.417969 151.273438 C 99.09375 152.042969 97.804688 153.109375 97.558594 153.648438 C 97.308594 154.183594 98.191406 153.996094 99.515625 153.230469 C 100.839844 152.464844 102.128906 151.394531 102.378906 150.859375 Z M 111 159.21875 C 112.449219 159.417969 113.957031 158.832031 114.34375 157.914062 C 114.894531 156.601562 115.203125 156.636719 115.785156 158.0625 C 116.371094 159.492188 117.40625 159.25 120.605469 156.925781 C 122.84375 155.300781 124.398438 154.6875 124.050781 155.566406 C 123.582031 156.757812 123.921875 156.785156 125.398438 155.675781 C 127.003906 154.464844 127.441406 154.53125 127.742188 156.039062 C 128.042969 157.558594 128.175781 157.585938 128.488281 156.195312 C 128.945312 154.152344 134.433594 151.25 136.328125 152.046875 C 137.070312 152.359375 137.375 153.328125 137.011719 154.195312 C 136.644531 155.066406 137.175781 156.121094 138.195312 156.539062 C 139.78125 157.1875 139.882812 157.054688 138.902344 155.59375 C 137.886719 154.082031 137.984375 153.851562 139.777344 153.519531 C 141.480469 153.203125 141.5625 153.042969 140.285156 152.492188 C 139.203125 152.023438 139.539062 151.648438 141.457031 151.179688 C 143.640625 150.648438 143.796875 150.4375 142.300781 150.039062 C 141.285156 149.769531 139.464844 149.851562 138.25 150.21875 C 135.386719 151.085938 132.066406 150.230469 131.769531 148.550781 C 131.640625 147.824219 130.765625 147.347656 129.828125 147.492188 C 128.601562 147.683594 128.714844 148.3125 130.242188 149.746094 C 132.269531 151.644531 132.078125 151.765625 125.863281 152.546875 C 122.289062 152.992188 118.328125 154.117188 117.0625 155.039062 C 115.800781 155.960938 114.449219 156.273438 114.0625 155.734375 C 113.675781 155.191406 112.21875 155.464844 110.820312 156.34375 C 109.222656 157.351562 107.753906 157.433594 106.851562 156.570312 C 106.023438 155.773438 105.511719 155.75 105.628906 156.511719 C 105.863281 158.011719 107.226562 158.699219 111 159.21875 Z M 126.167969 163.304688 C 126.894531 162.550781 126.527344 162.058594 125.089844 161.851562 C 123.894531 161.679688 122.425781 162.054688 121.824219 162.679688 C 121.097656 163.433594 121.464844 163.921875 122.902344 164.128906 C 124.097656 164.300781 125.566406 163.929688 126.167969 163.304688 Z M 137.175781 168.542969 C 137.421875 167.960938 137.410156 167.398438 137.15625 167.292969 C 136.898438 167.183594 136.195312 167.445312 135.59375 167.875 C 134.992188 168.304688 135 168.867188 135.617188 169.125 C 136.230469 169.382812 136.933594 169.121094 137.175781 168.542969 Z M 81.320312 141.0625 C 81.339844 140.082031 80.984375 140.226562 80.414062 141.433594 C 79.902344 142.523438 79.886719 143.253906 80.386719 143.050781 C 80.882812 142.847656 81.304688 141.953125 81.320312 141.0625 Z M 100.300781 145.566406 C 100.1875 144.835938 99.523438 144.007812 98.832031 143.722656 C 98.070312 143.414062 98.027344 143.886719 98.71875 144.898438 C 100.191406 147.0625 100.558594 147.214844 100.300781 145.566406 Z M 153.992188 166.933594 C 154.480469 165.773438 154.695312 164.746094 154.472656 164.652344 C 154.253906 164.558594 153.421875 165.328125 152.628906 166.359375 C 151.839844 167.390625 151.621094 168.417969 152.148438 168.640625 C 152.671875 168.859375 153.503906 168.09375 153.992188 166.933594 Z M 159.355469 170.097656 C 159.59375 170.683594 159.820312 170.191406 159.859375 169.003906 C 159.898438 167.816406 159.792969 166.949219 159.628906 167.082031 C 159.464844 167.214844 158.234375 167.976562 156.898438 168.777344 C 154.703125 170.089844 154.683594 170.175781 156.691406 169.632812 C 157.917969 169.300781 159.117188 169.511719 159.355469 170.097656 Z M 193.21875 181.894531 C 194.957031 181.292969 196.757812 181.328125 197.21875 181.976562 C 197.679688 182.621094 198.265625 182.648438 198.527344 182.035156 C 198.785156 181.421875 199.707031 181.21875 200.578125 181.585938 C 201.449219 181.953125 202.359375 181.777344 202.601562 181.195312 C 202.847656 180.617188 202.601562 179.953125 202.054688 179.726562 C 201.507812 179.496094 200.570312 179.65625 199.96875 180.085938 C 199.363281 180.515625 198.152344 180.5625 197.269531 180.191406 C 196.390625 179.820312 193.527344 180.402344 190.90625 181.480469 C 185.964844 183.515625 187.664062 183.820312 193.21875 181.894531 Z M 117.976562 149.285156 C 118.21875 148.703125 118.210938 148.140625 117.953125 148.035156 C 117.699219 147.925781 116.996094 148.1875 116.394531 148.617188 C 115.792969 149.046875 115.800781 149.609375 116.414062 149.867188 C 117.027344 150.128906 117.730469 149.863281 117.976562 149.285156 Z M 114.644531 145.398438 C 114.890625 144.820312 114.617188 144.144531 114.035156 143.902344 C 113.457031 143.65625 112.78125 143.933594 112.535156 144.511719 C 112.292969 145.089844 112.566406 145.765625 113.148438 146.011719 C 113.726562 146.253906 114.402344 145.980469 114.644531 145.398438 Z M 172.621094 169.0625 C 172.417969 168.5625 171.523438 168.144531 170.632812 168.128906 C 169.652344 168.109375 169.796875 168.464844 171.003906 169.03125 C 172.09375 169.546875 172.824219 169.558594 172.621094 169.0625 Z M 200.359375 177.117188 C 200.171875 176.652344 199.335938 176.992188 198.5 177.863281 C 197.296875 179.125 197.367188 179.296875 198.84375 178.703125 C 199.863281 178.292969 200.546875 177.578125 200.359375 177.117188 Z M 179.324219 166.097656 C 178.71875 164.625 178.546875 164.695312 178.484375 166.4375 C 178.441406 167.644531 178.785156 168.480469 179.246094 168.292969 C 179.707031 168.101562 179.742188 167.117188 179.324219 166.097656 Z M 218.484375 173.800781 C 218.339844 172.859375 217.953125 172.757812 217.3125 173.488281 C 216.785156 174.085938 215.683594 174.292969 214.863281 173.945312 C 214.042969 173.601562 213.175781 173.78125 212.933594 174.347656 C 212.667969 174.980469 213.707031 175.347656 215.601562 175.289062 C 217.308594 175.242188 218.605469 174.570312 218.484375 173.800781 Z M 232.460938 175.148438 C 232.703125 174.570312 232.070312 173.753906 231.050781 173.335938 C 229.46875 172.683594 229.367188 172.820312 230.351562 174.261719 C 231.800781 176.386719 231.917969 176.433594 232.460938 175.148438 Z M 235.824219 173.050781 C 236.027344 172.570312 237.648438 172.039062 239.425781 171.875 C 241.199219 171.710938 242.816406 171.1875 243.015625 170.714844 C 243.433594 169.726562 233.578125 170.347656 232.097656 171.402344 C 231.554688 171.785156 232.089844 172.511719 233.285156 173.015625 C 234.480469 173.515625 235.621094 173.535156 235.824219 173.050781 Z M 244.121094 162.195312 C 244.21875 161.964844 243.699219 161.207031 242.96875 160.507812 C 242.242188 159.804688 241.449219 159.691406 241.214844 160.253906 C 240.976562 160.816406 241.496094 161.574219 242.367188 161.941406 C 243.234375 162.308594 244.027344 162.421875 244.121094 162.195312 Z M 248.527344 162.054688 C 249.128906 161.625 248.855469 160.949219 247.914062 160.554688 C 246.976562 160.160156 246.300781 160.433594 246.417969 161.164062 C 246.53125 161.894531 246.804688 162.570312 247.027344 162.664062 C 247.25 162.757812 247.921875 162.480469 248.527344 162.054688 Z M 255.070312 161.324219 C 254.882812 160.863281 253.898438 160.828125 252.878906 161.25 C 251.40625 161.855469 251.476562 162.027344 253.21875 162.089844 C 254.425781 162.128906 255.257812 161.785156 255.070312 161.324219 Z M 249.648438 154.964844 C 249.855469 154.472656 249.199219 154.046875 248.1875 154.011719 C 247.175781 153.980469 246.046875 154.671875 245.675781 155.550781 C 245.128906 156.851562 245.402344 157.03125 247.136719 156.503906 C 248.3125 156.148438 249.441406 155.457031 249.648438 154.964844 Z M 243.359375 148.84375 C 244.621094 148.628906 244.910156 148.171875 244.308594 147.324219 C 243.832031 146.660156 243.25 146.582031 243.007812 147.152344 C 242.765625 147.722656 241.648438 148.058594 240.523438 147.894531 C 239.070312 147.6875 238.921875 147.828125 240.011719 148.375 C 240.855469 148.796875 242.363281 149.007812 243.359375 148.84375 Z M 261.691406 156.21875 C 261.964844 155.765625 262.433594 154.984375 262.730469 154.484375 C 263.582031 153.042969 265.574219 152.519531 265 153.886719 C 264.355469 155.410156 266.101562 156.226562 268.410156 155.488281 C 269.363281 155.183594 271.378906 154.652344 272.890625 154.308594 C 275.328125 153.753906 275.429688 153.597656 273.804688 152.875 C 272.796875 152.429688 270.691406 152.585938 269.125 153.226562 C 267.542969 153.871094 266.046875 153.8125 265.753906 153.097656 C 265.113281 151.523438 263.203125 151.878906 260.367188 154.109375 C 258.652344 155.460938 258.519531 155.917969 259.707031 156.417969 C 260.523438 156.761719 261.414062 156.671875 261.691406 156.21875 Z M 260.261719 153.339844 C 260.507812 152.761719 260.496094 152.199219 260.242188 152.089844 C 259.984375 151.984375 259.285156 152.246094 258.679688 152.675781 C 258.078125 153.105469 258.089844 153.667969 258.703125 153.925781 C 259.316406 154.183594 260.019531 153.921875 260.261719 153.339844 Z M 278.902344 154.363281 C 278.964844 152.359375 277.328125 151.140625 276.671875 152.699219 C 276.335938 153.5 276.84375 154.355469 278.648438 156.019531 C 278.753906 156.117188 278.871094 155.371094 278.902344 154.363281 Z M 249.636719 140.25 C 249.867188 139.703125 249.703125 138.765625 249.277344 138.164062 C 248.847656 137.558594 248.183594 137.808594 247.804688 138.710938 C 247.421875 139.613281 247.585938 140.554688 248.164062 140.800781 C 248.746094 141.042969 249.40625 140.796875 249.636719 140.25 Z M 244.835938 136.914062 C 245.082031 136.335938 244.804688 135.660156 244.226562 135.414062 C 243.644531 135.171875 242.972656 135.445312 242.726562 136.027344 C 242.484375 136.605469 242.757812 137.28125 243.339844 137.523438 C 243.917969 137.769531 244.59375 137.492188 244.835938 136.914062 Z M 256.796875 139.46875 C 256.679688 138.738281 256.019531 137.90625 255.324219 137.625 C 254.566406 137.316406 254.523438 137.785156 255.214844 138.800781 C 256.6875 140.964844 257.054688 141.117188 256.796875 139.46875 Z M 265.757812 143.242188 C 266 142.660156 265.621094 141.90625 264.910156 141.566406 C 264.203125 141.222656 264.964844 140.96875 266.601562 140.996094 C 268.523438 141.03125 269.792969 141.570312 270.175781 142.503906 C 270.558594 143.441406 271.835938 143.445312 273.78125 142.511719 C 275.4375 141.714844 276.207031 141.554688 275.488281 142.15625 C 274.144531 143.28125 274.476562 143.3125 281.800781 142.730469 C 284.027344 142.554688 284.566406 142.792969 284.152344 143.777344 C 283.738281 144.757812 284.023438 144.886719 285.386719 144.328125 C 288.082031 143.230469 286.730469 141.558594 283.230469 141.660156 C 281.167969 141.722656 280.058594 141.300781 279.917969 140.410156 C 279.777344 139.507812 279.132812 139.238281 277.953125 139.597656 C 276.734375 139.964844 275.960938 139.5625 275.433594 138.289062 C 274.832031 136.832031 274.289062 136.738281 272.847656 137.855469 C 271.410156 138.96875 270.683594 138.847656 269.433594 137.304688 C 268.476562 136.128906 267.671875 135.742188 267.417969 136.347656 C 267.1875 136.898438 267.503906 137.804688 268.121094 138.363281 C 268.742188 138.917969 267.566406 139.074219 265.511719 138.703125 C 261.171875 137.921875 259.046875 138.988281 260.570312 141.179688 C 262.023438 143.265625 265.210938 144.535156 265.757812 143.242188 Z M 252.636719 130.703125 C 253.105469 130.113281 253.121094 129.285156 252.675781 128.855469 C 252.230469 128.429688 251.328125 129.132812 250.671875 130.417969 C 249.519531 132.675781 250.910156 132.878906 252.636719 130.703125 Z M 267.726562 134.140625 C 268.332031 133.710938 268.320312 133.148438 267.707031 132.890625 C 267.09375 132.632812 266.390625 132.894531 266.144531 133.472656 C 265.902344 134.054688 265.910156 134.617188 266.167969 134.722656 C 266.421875 134.832031 267.125 134.570312 267.726562 134.140625 Z M 293.171875 142.992188 C 293.242188 142.828125 292.703125 142.117188 291.972656 141.417969 C 291.171875 140.652344 290.394531 140.746094 290.007812 141.660156 C 289.625 142.574219 290.101562 143.199219 291.207031 143.234375 C 292.21875 143.265625 293.101562 143.160156 293.171875 142.992188 Z M 60.597656 142.761719 C 60.917969 139.261719 64.789062 131.855469 66.03125 132.359375 C 66.777344 132.660156 66.929688 132.394531 66.457031 131.605469 C 65.710938 130.355469 65.847656 128.148438 66.847656 125.273438 C 67.160156 124.378906 70.960938 118.296875 75.300781 111.757812 C 83.1875 99.871094 90.269531 90.660156 89.175781 93.710938 C 88.675781 95.113281 88.8125 95.179688 90.210938 94.203125 C 91.097656 93.585938 91.742188 92.539062 91.636719 91.878906 C 91.53125 91.214844 92.285156 91.386719 93.316406 92.265625 C 94.667969 93.421875 95.300781 93.394531 95.617188 92.164062 C 95.859375 91.234375 95.804688 89.929688 95.5 89.269531 C 95.191406 88.609375 95.035156 88.804688 95.144531 89.707031 C 95.269531 90.703125 94.742188 91.085938 93.800781 90.691406 C 92.90625 90.316406 92.710938 89.308594 93.335938 88.324219 C 93.933594 87.378906 94.933594 86.976562 95.558594 87.429688 C 96.179688 87.878906 96.605469 87.683594 96.496094 86.996094 C 96.261719 85.503906 100.507812 80.847656 102.367188 80.558594 C 103.089844 80.445312 104.1875 79.359375 104.808594 78.148438 C 105.433594 76.933594 106.316406 76.101562 106.769531 76.292969 C 107.226562 76.484375 107.988281 75.71875 108.464844 74.59375 C 108.9375 73.464844 110.550781 72.277344 112.046875 71.957031 C 113.546875 71.632812 114.613281 70.980469 114.417969 70.5 C 114.222656 70.023438 115.292969 69.519531 116.800781 69.378906 C 118.304688 69.238281 119.738281 68.265625 119.988281 67.21875 C 120.246094 66.125 121.640625 65.289062 123.253906 65.261719 C 124.804688 65.234375 126.441406 64.324219 126.898438 63.238281 C 127.457031 61.917969 128.167969 61.6875 129.054688 62.539062 C 129.957031 63.40625 130.660156 63.148438 131.257812 61.738281 C 131.84375 60.339844 132.84375 59.960938 134.308594 60.578125 C 136.0625 61.316406 136.535156 60.992188 136.726562 58.925781 C 136.914062 56.855469 137.246094 56.628906 138.433594 57.769531 C 139.308594 58.605469 139.824219 58.644531 139.703125 57.859375 C 139.585938 57.132812 140.351562 56.566406 141.402344 56.597656 C 142.453125 56.632812 143.234375 56.175781 143.140625 55.578125 C 142.980469 54.558594 149.726562 55.15625 151.234375 56.296875 C 151.625 56.589844 152.164062 56.304688 152.433594 55.664062 C 152.703125 55.023438 153.523438 55.070312 154.25 55.769531 C 154.980469 56.46875 155.769531 56.582031 156.007812 56.023438 C 156.242188 55.460938 157.175781 55.3125 158.082031 55.691406 C 158.984375 56.074219 159.640625 55.851562 159.539062 55.195312 C 159.347656 53.964844 163.066406 53.484375 164.542969 54.542969 C 165 54.875 166.429688 54.800781 167.71875 54.375 C 169.773438 53.703125 182.75 53.78125 185.824219 54.488281 C 186.445312 54.632812 187.707031 54.628906 188.621094 54.480469 C 189.535156 54.332031 190.574219 54.617188 190.925781 55.113281 C 191.277344 55.605469 192.964844 55.910156 194.675781 55.785156 C 201.726562 55.273438 209.128906 56.078125 210.632812 57.519531 C 211.632812 58.480469 212.15625 58.546875 212.023438 57.699219 C 211.734375 55.832031 217.351562 55.824219 221.777344 57.6875 C 223.777344 58.53125 225.574219 58.847656 225.765625 58.390625 C 225.957031 57.933594 227.09375 57.890625 228.292969 58.289062 C 230.492188 59.027344 230.53125 59.898438 228.546875 63.753906 C 227.480469 65.820312 227.871094 66.0625 241.285156 71.601562 C 251.90625 75.988281 255.1875 77.738281 255.40625 79.128906 C 255.648438 80.660156 255.878906 80.753906 256.890625 79.753906 C 257.832031 78.824219 258.175781 79.070312 258.480469 80.902344 C 258.695312 82.1875 259.757812 83.613281 260.839844 84.070312 C 261.921875 84.523438 262.769531 85.433594 262.71875 86.089844 C 262.671875 86.746094 263.890625 87.941406 265.429688 88.746094 C 266.96875 89.546875 268.074219 90.574219 267.882812 91.027344 C 267.691406 91.484375 268.039062 92.066406 268.652344 92.324219 C 269.265625 92.582031 269.671875 92.171875 269.550781 91.410156 C 269.410156 90.507812 270.265625 90.707031 272.027344 91.992188 C 275.84375 94.78125 276.269531 96.296875 273.652344 97.789062 C 272.417969 98.492188 271.953125 98.898438 272.617188 98.691406 C 273.285156 98.484375 274.59375 99.257812 275.527344 100.410156 C 277.046875 102.285156 278.015625 102.984375 282.589844 105.480469 C 283.28125 105.863281 283.351562 107.359375 282.742188 108.808594 C 281.769531 111.109375 282.089844 111.636719 285.257812 112.972656 C 288.8125 114.46875 290.761719 117.769531 287.964844 117.554688 C 285.339844 117.351562 285.835938 119.082031 288.574219 119.664062 C 290.066406 119.984375 291.390625 120.898438 291.515625 121.695312 C 291.640625 122.496094 292.636719 123.527344 293.726562 123.984375 C 296.84375 125.296875 296.464844 127.570312 292.910156 128.875 C 290.25 129.847656 289.609375 129.730469 289.351562 128.210938 C 289.097656 126.679688 288.933594 126.605469 288.425781 127.78125 C 288.0625 128.613281 287.253906 128.675781 286.480469 127.933594 C 285.75 127.234375 284.902344 127.234375 284.597656 127.9375 C 284.25 128.738281 283.914062 128.699219 283.707031 127.835938 C 283.527344 127.078125 281.945312 125.871094 280.199219 125.160156 C 278.449219 124.449219 275.925781 122.480469 274.59375 120.785156 C 271.957031 117.429688 269.6875 116.789062 266.550781 118.507812 C 264.730469 119.507812 264.605469 119.441406 265.285156 117.832031 C 266.105469 115.878906 262.554688 113.707031 261.15625 115.304688 C 260.695312 115.828125 258.507812 115.609375 256.300781 114.808594 C 254.089844 114.011719 252.136719 113.707031 251.953125 114.128906 C 251.773438 114.554688 249.578125 113.894531 247.078125 112.664062 C 244.578125 111.433594 242.601562 110.890625 242.691406 111.460938 C 242.78125 112.027344 241.132812 111.859375 239.027344 111.089844 C 236.921875 110.316406 234.351562 109.375 233.316406 108.996094 C 232.28125 108.617188 230.535156 108.644531 229.4375 109.058594 C 228.089844 109.566406 227.167969 109.296875 226.617188 108.242188 C 225.40625 105.910156 219.816406 104.589844 217.375 106.054688 C 216.203125 106.757812 214.710938 106.859375 214.054688 106.28125 C 213.402344 105.707031 210.984375 105.222656 208.679688 105.214844 C 203.507812 105.191406 201.53125 102.429688 205.894531 101.320312 C 209.085938 100.507812 210.824219 100.933594 209.15625 102.121094 C 208.5 102.589844 209.167969 102.765625 210.675781 102.523438 C 212.863281 102.171875 213.578125 102.488281 214.46875 104.207031 C 215.421875 106.039062 215.578125 106.023438 215.640625 104.097656 C 215.695312 102.398438 216.042969 102.191406 217.121094 103.226562 C 217.949219 104.019531 219.046875 104.03125 219.800781 103.25 C 220.5 102.519531 221.871094 102.359375 222.847656 102.890625 C 226.519531 104.898438 228.347656 105.109375 228.398438 103.53125 C 228.445312 102.007812 221.648438 98.898438 219.863281 99.625 C 219.453125 99.792969 218.441406 99.09375 217.613281 98.066406 C 216.457031 96.644531 216.09375 96.597656 216.050781 97.863281 C 216.015625 99.015625 213.820312 99.289062 208.816406 98.765625 C 204.867188 98.351562 201.441406 98.464844 201.210938 99.019531 C 200.976562 99.574219 199.46875 99.226562 197.855469 98.253906 C 195.949219 97.097656 194.515625 96.910156 193.746094 97.707031 C 192.972656 98.515625 191.898438 98.367188 190.609375 97.269531 C 188.871094 95.785156 188.605469 95.9375 188.1875 98.648438 C 187.867188 100.726562 187.292969 101.515625 186.375 101.144531 C 185.351562 100.726562 185.277344 100.953125 186.070312 102.09375 C 187.242188 103.78125 185.472656 107.128906 183.488281 106.976562 C 181.550781 106.824219 181.589844 100.683594 183.535156 100.378906 C 184.539062 100.222656 184.46875 99.59375 183.328125 98.542969 C 182.179688 97.480469 180.691406 97.339844 178.882812 98.125 C 177.386719 98.773438 175.101562 98.898438 173.800781 98.398438 C 171.546875 97.53125 171.519531 97.570312 173.195312 99.214844 C 174.164062 100.164062 175.40625 100.632812 175.960938 100.253906 C 176.546875 99.855469 177.855469 100.445312 179.089844 101.664062 C 181.382812 103.925781 181.355469 103.921875 172.808594 100.933594 C 171.78125 100.574219 170.113281 100.617188 169.109375 101.027344 C 168.101562 101.4375 165.964844 101.21875 164.359375 100.542969 C 162.070312 99.578125 161.425781 99.753906 161.375 101.351562 C 161.335938 102.554688 160.992188 102.945312 160.535156 102.304688 C 160.109375 101.707031 158.582031 101.808594 157.136719 102.53125 C 155.695312 103.253906 153.773438 103.601562 152.867188 103.304688 C 149.765625 102.292969 149.371094 102.304688 146.480469 103.496094 C 143.617188 104.675781 143.613281 104.6875 146.066406 104.683594 C 147.433594 104.683594 150.308594 105.152344 152.453125 105.730469 L 156.355469 106.78125 L 152.617188 108.289062 C 150.5625 109.121094 146.613281 109.875 143.84375 109.96875 C 141.074219 110.058594 138.445312 110.332031 138 110.574219 C 137.558594 110.816406 135.160156 111.230469 132.667969 111.496094 C 130.179688 111.761719 127.257812 112.308594 126.175781 112.703125 C 125.09375 113.101562 123.832031 113.269531 123.371094 113.074219 C 122.914062 112.882812 120.363281 113.441406 117.703125 114.320312 C 115.046875 115.199219 112.605469 115.546875 112.285156 115.09375 C 111.960938 114.640625 110.6875 114.984375 109.449219 115.855469 C 106.878906 117.667969 105.710938 117.492188 105.859375 115.320312 C 105.914062 114.492188 105.738281 114.675781 105.464844 115.734375 C 104.941406 117.777344 98.175781 121.082031 96.203125 120.257812 C 94.671875 119.617188 88.15625 124.003906 87.921875 125.832031 C 87.824219 126.609375 87.535156 126.742188 87.289062 126.128906 C 86.886719 125.140625 81.8125 127.503906 81.34375 128.894531 C 81.242188 129.191406 79.871094 130.011719 78.289062 130.710938 C 74.890625 132.21875 67.9375 138.402344 66.917969 140.832031 C 65.976562 143.0625 62.554688 145.808594 61.351562 145.300781 C 60.828125 145.082031 60.492188 143.941406 60.597656 142.761719 Z M 98.800781 118.171875 C 99.183594 117.269531 98.894531 116.621094 98.164062 116.734375 C 97.433594 116.851562 96.648438 117.390625 96.417969 117.9375 C 96.1875 118.480469 96.476562 119.128906 97.054688 119.371094 C 97.636719 119.617188 98.421875 119.078125 98.800781 118.171875 Z M 85.488281 111.46875 C 85.59375 111.214844 85.332031 110.511719 84.902344 109.910156 C 84.472656 109.308594 83.910156 109.316406 83.652344 109.929688 C 83.394531 110.542969 83.65625 111.246094 84.234375 111.492188 C 84.816406 111.734375 85.378906 111.726562 85.488281 111.46875 Z M 117.292969 104.863281 C 118.046875 104.078125 118.050781 103.582031 117.296875 103.699219 C 116.574219 103.8125 115.792969 104.351562 115.566406 104.894531 C 114.925781 106.410156 115.824219 106.394531 117.292969 104.863281 Z M 125.785156 98.265625 C 125.960938 97.824219 125.953125 96.574219 125.773438 95.480469 C 125.511719 93.921875 125.265625 94.015625 124.625 95.929688 C 123.902344 98.085938 124.988281 100.273438 125.785156 98.265625 Z M 141.617188 99.035156 C 141.984375 98.164062 142.097656 97.375 141.871094 97.277344 C 141.640625 97.183594 140.882812 97.703125 140.183594 98.429688 C 139.484375 99.160156 139.371094 99.949219 139.929688 100.1875 C 140.492188 100.421875 141.25 99.90625 141.617188 99.035156 Z M 135.957031 94.789062 C 136.203125 94.210938 136.191406 93.648438 135.9375 93.539062 C 135.679688 93.429688 134.980469 93.695312 134.375 94.125 C 133.773438 94.550781 133.78125 95.113281 134.398438 95.375 C 135.011719 95.632812 135.714844 95.371094 135.957031 94.789062 Z M 146.5 99.230469 C 146.746094 98.648438 146.5 97.988281 145.953125 97.757812 C 145.40625 97.527344 144.46875 97.691406 143.867188 98.121094 C 143.261719 98.546875 143.511719 99.210938 144.414062 99.589844 C 145.316406 99.972656 146.257812 99.808594 146.5 99.230469 Z M 143.441406 94.703125 C 143.808594 93.832031 141.96875 92.476562 141.179688 93.039062 C 140.667969 93.402344 140.941406 93.992188 141.785156 94.347656 C 142.628906 94.703125 143.375 94.863281 143.441406 94.703125 Z M 185.097656 104.855469 C 185.476562 103.953125 185.179688 103.308594 184.4375 103.425781 C 183.695312 103.539062 183.175781 104.191406 183.28125 104.871094 C 183.570312 106.714844 184.316406 106.710938 185.097656 104.855469 Z M 140.929688 82.980469 C 141.648438 81.277344 141.464844 80.839844 140.238281 81.339844 C 139.320312 81.714844 138.671875 82.667969 138.796875 83.464844 C 139.144531 85.6875 139.859375 85.527344 140.929688 82.980469 Z M 141.886719 74.203125 C 142.09375 74.183594 141.5625 73.492188 140.707031 72.671875 C 139.851562 71.847656 139.34375 71.65625 139.582031 72.242188 C 139.820312 72.828125 139.109375 73.8125 138 74.433594 C 136.183594 75.449219 136.257812 75.496094 138.746094 74.902344 C 140.265625 74.539062 141.675781 74.226562 141.886719 74.207031 Z M 184.375 90.351562 C 184.980469 89.921875 184.96875 89.359375 184.355469 89.101562 C 183.742188 88.84375 183.039062 89.105469 182.792969 89.6875 C 182.550781 90.265625 182.558594 90.828125 182.816406 90.9375 C 183.070312 91.042969 183.773438 90.78125 184.375 90.351562 Z M 163.648438 79.140625 C 163.894531 78.5625 163.117188 77.675781 161.921875 77.171875 C 160.726562 76.667969 159.84375 76.855469 159.960938 77.585938 C 160.074219 78.316406 160.851562 79.203125 161.6875 79.554688 C 162.523438 79.90625 163.40625 79.722656 163.648438 79.140625 Z M 237.9375 107.253906 C 238.691406 106.46875 238.695312 105.972656 237.941406 106.089844 C 237.21875 106.203125 236.4375 106.742188 236.207031 107.285156 C 235.570312 108.804688 236.46875 108.785156 237.9375 107.253906 Z M 231.75 104.300781 C 232.253906 103.945312 231.996094 103.371094 231.175781 103.023438 C 230.355469 102.679688 229.765625 102.894531 229.859375 103.503906 C 229.957031 104.113281 230.214844 104.6875 230.4375 104.78125 C 230.65625 104.875 231.25 104.660156 231.75 104.300781 Z M 172.164062 77.886719 C 173.535156 77.921875 174.195312 77.46875 173.730469 76.8125 C 173.285156 76.1875 171.734375 75.980469 170.285156 76.347656 C 167.445312 77.070312 168.324219 77.789062 172.164062 77.886719 Z M 283.023438 123.886719 C 283.84375 123.03125 283.664062 122.585938 282.484375 122.546875 C 281.511719 122.515625 280.800781 123.027344 280.902344 123.679688 C 281.160156 125.328125 281.597656 125.371094 283.023438 123.886719 Z M 281.558594 118.609375 C 281.46875 118.027344 280.8125 117.351562 280.101562 117.105469 C 279.109375 116.761719 279.050781 116.898438 279.855469 117.703125 C 280.429688 118.273438 280.304688 119.4375 279.582031 120.28125 C 278.496094 121.554688 278.566406 121.632812 279.996094 120.746094 C 280.945312 120.15625 281.652344 119.195312 281.558594 118.609375 Z M 276.855469 116.882812 C 277.101562 116.300781 276.46875 115.484375 275.449219 115.066406 C 273.867188 114.417969 273.765625 114.550781 274.75 115.992188 C 276.195312 118.117188 276.316406 118.167969 276.855469 116.882812 Z M 187.015625 72.980469 C 187.703125 70.933594 184.945312 69.839844 184.109375 71.824219 C 183.875 72.375 184.285156 72.734375 185.015625 72.621094 C 185.746094 72.507812 186.132812 72.914062 185.875 73.53125 C 185.617188 74.144531 185.613281 74.734375 185.867188 74.839844 C 186.121094 74.949219 186.636719 74.109375 187.015625 72.980469 Z M 222.972656 88.605469 C 223.339844 87.734375 223.164062 86.824219 222.585938 86.578125 C 222.003906 86.335938 221.230469 86.847656 220.863281 87.71875 C 220.496094 88.585938 220.671875 89.5 221.253906 89.742188 C 221.832031 89.988281 222.605469 89.476562 222.972656 88.605469 Z M 163.539062 61.714844 C 164.027344 60.554688 163.980469 59.417969 163.4375 59.191406 C 162.894531 58.960938 162.121094 59.753906 161.71875 60.949219 C 161.320312 62.144531 161.363281 63.28125 161.820312 63.476562 C 162.277344 63.667969 163.050781 62.875 163.539062 61.714844 Z M 241.339844 95.105469 C 242.265625 95.335938 244.410156 95.546875 246.105469 95.574219 C 247.800781 95.601562 249.75 96.164062 250.441406 96.820312 C 251.222656 97.570312 251.601562 97.449219 251.453125 96.496094 C 251.082031 94.105469 241.261719 91.871094 237.761719 93.382812 C 235.785156 94.234375 235.605469 94.667969 237.214844 94.679688 C 238.554688 94.683594 240.410156 94.875 241.339844 95.105469 Z M 193.175781 74.613281 C 192.574219 74.015625 191.386719 73.515625 190.539062 73.503906 C 189.691406 73.492188 190.183594 73.980469 191.632812 74.589844 C 193.082031 75.203125 193.777344 75.210938 193.175781 74.613281 Z M 168.726562 62.660156 C 169.332031 62.230469 169.320312 61.667969 168.707031 61.410156 C 168.09375 61.148438 167.390625 61.414062 167.148438 61.992188 C 166.902344 62.574219 166.910156 63.136719 167.167969 63.242188 C 167.421875 63.351562 168.125 63.089844 168.726562 62.660156 Z M 271.070312 106.246094 C 270.867188 105.746094 269.972656 105.328125 269.082031 105.3125 C 268.101562 105.292969 268.246094 105.648438 269.453125 106.214844 C 270.542969 106.730469 271.273438 106.742188 271.070312 106.246094 Z M 175.777344 65.078125 C 175.886719 64.824219 175.621094 64.121094 175.191406 63.519531 C 174.765625 62.917969 174.203125 62.925781 173.941406 63.539062 C 173.683594 64.15625 173.945312 64.855469 174.527344 65.101562 C 175.105469 65.34375 175.667969 65.335938 175.777344 65.078125 Z M 173.527344 61.578125 C 173.894531 60.707031 174.007812 59.917969 173.78125 59.820312 C 173.550781 59.726562 172.792969 60.242188 172.09375 60.972656 C 171.394531 61.703125 171.28125 62.492188 171.839844 62.730469 C 172.402344 62.964844 173.164062 62.445312 173.527344 61.578125 Z M 201.625 73.667969 C 201.796875 72.839844 202.972656 72.816406 204.5625 73.609375 C 206.246094 74.449219 207.445312 74.386719 207.84375 73.4375 C 208.628906 71.570312 208.019531 71.316406 202.636719 71.304688 C 200.253906 71.296875 198.164062 70.953125 197.996094 70.535156 C 197.828125 70.121094 197.195312 70.296875 196.59375 70.925781 C 195.875 71.675781 196.503906 72.582031 198.417969 73.558594 C 200.242188 74.488281 201.445312 74.527344 201.625 73.667969 Z M 182.207031 62.488281 C 184.476562 62.28125 186.609375 62.125 186.945312 62.144531 C 187.277344 62.164062 188.761719 62.285156 190.246094 62.410156 C 191.730469 62.535156 193.105469 62.25 193.304688 61.777344 C 193.75 60.722656 188.476562 60.085938 183.261719 60.570312 C 181.132812 60.765625 178.792969 60.679688 178.066406 60.378906 C 177.339844 60.074219 176.546875 60.304688 176.304688 60.882812 C 175.65625 62.417969 177.511719 62.921875 182.207031 62.488281 Z M 213.730469 72.609375 C 215.78125 70.941406 215.773438 70.835938 213.628906 71.476562 C 212.332031 71.867188 211.089844 72.601562 210.875 73.113281 C 210.199219 74.722656 211.390625 74.511719 213.730469 72.609375 Z M 221.753906 73.816406 C 221.941406 73.371094 221.28125 72.382812 220.285156 71.621094 C 218.945312 70.589844 218.464844 70.722656 218.417969 72.136719 C 218.375 73.488281 218.058594 73.617188 217.324219 72.582031 C 216.671875 71.664062 216.371094 71.648438 216.511719 72.542969 C 216.75 74.066406 221.191406 75.144531 221.753906 73.816406 Z M 244.703125 77.082031 C 245.449219 76.546875 245.386719 76.269531 244.546875 76.402344 C 243.765625 76.523438 243.136719 75.925781 243.148438 75.074219 C 243.164062 74.140625 242.832031 74.242188 242.3125 75.335938 C 241.339844 77.382812 242.789062 78.441406 244.703125 77.082031 Z M 250.441406 80.105469 C 249.835938 79.503906 249.710938 78.75 250.160156 78.429688 C 250.609375 78.109375 250.296875 77.558594 249.460938 77.207031 C 248.316406 76.726562 248.082031 77.035156 248.515625 78.464844 C 248.832031 79.507812 249.644531 80.550781 250.316406 80.78125 C 251.078125 81.039062 251.125 80.785156 250.441406 80.105469 Z M 226.445312 64.335938 C 226.957031 64.125 226.585938 63.753906 225.625 63.503906 C 224.660156 63.253906 223.457031 63.222656 222.945312 63.429688 C 222.433594 63.636719 222.800781 64.011719 223.765625 64.261719 C 224.726562 64.507812 225.933594 64.542969 226.445312 64.335938 Z M 178.6875 105.335938 C 177.703125 103.890625 177.804688 103.757812 179.386719 104.40625 C 180.40625 104.824219 181.039062 105.644531 180.796875 106.222656 C 180.253906 107.507812 180.136719 107.457031 178.6875 105.335938 Z M 190.351562 104.171875 C 190.570312 103.652344 191.859375 103.777344 193.21875 104.445312 C 194.578125 105.117188 195.320312 105.929688 194.867188 106.25 C 193.707031 107.078125 189.871094 105.308594 190.351562 104.171875 Z M 188.851562 99.992188 C 189.453125 98.367188 189.914062 97.644531 189.882812 98.386719 C 189.816406 99.878906 194.917969 101.328125 196.4375 100.246094 C 198.023438 99.121094 199.417969 100.265625 198.117188 101.625 C 197.238281 102.539062 197.671875 103.105469 199.722656 103.714844 C 201.269531 104.175781 202.152344 104.824219 201.691406 105.152344 C 201.226562 105.484375 198.636719 104.78125 195.929688 103.59375 C 193.066406 102.335938 190.628906 101.875 190.089844 102.488281 C 188.425781 104.386719 187.738281 103.007812 188.851562 99.992188 Z M 188.851562 99.992188 " fill-opacity="1" fill-rule="nonzero"/><path fill="#e4e2dd" d="M 304.875 138.835938 C 304.199219 138.550781 304.054688 138.152344 304.554688 137.949219 C 306.128906 137.308594 303.425781 131.6875 301.671875 131.960938 C 300.679688 132.117188 300.488281 131.894531 301.1875 131.398438 C 301.820312 130.949219 301.71875 129.984375 300.960938 129.257812 C 300.191406 128.519531 300.144531 127.535156 300.855469 127.027344 C 301.621094 126.484375 301.550781 126.214844 300.671875 126.351562 C 299.875 126.476562 298.683594 125.117188 298.027344 123.332031 C 297.179688 121.023438 296.632812 120.515625 296.132812 121.574219 C 295.746094 122.394531 295.449219 121.78125 295.476562 120.210938 C 295.503906 118.640625 294.964844 117.445312 294.28125 117.554688 C 292.339844 117.855469 293.183594 113.644531 296.523438 106.382812 C 298.203125 102.726562 299.472656 99.046875 299.339844 98.207031 C 299.207031 97.363281 299.515625 96.851562 300.023438 97.066406 C 300.535156 97.28125 301.53125 95.605469 302.242188 93.34375 C 302.953125 91.082031 304.257812 87.023438 305.140625 84.324219 C 306.027344 81.621094 306.925781 78.875 307.136719 78.214844 C 307.746094 76.339844 305.710938 71.566406 303.78125 70.339844 C 302.007812 69.214844 296.644531 73.371094 295.078125 77.089844 C 293.640625 80.511719 280.640625 95.09375 279.074219 95.042969 C 278.199219 95.015625 277.914062 94.683594 278.445312 94.304688 C 278.976562 93.925781 276.929688 91.566406 273.890625 89.0625 C 270.851562 86.554688 268.542969 84.089844 268.757812 83.582031 C 268.972656 83.070312 268.003906 82.550781 266.605469 82.421875 C 265.035156 82.277344 264.484375 81.890625 265.164062 81.410156 C 266.300781 80.597656 262.296875 76.835938 259.628906 76.210938 C 258.789062 76.015625 258.605469 75.5 259.214844 75.0625 C 260.191406 74.371094 249.453125 67.339844 246.878906 66.988281 C 246.394531 66.921875 246.199219 66.390625 246.441406 65.8125 C 246.6875 65.230469 246.507812 64.664062 246.042969 64.550781 C 245.578125 64.433594 243.785156 63.679688 242.058594 62.871094 C 239.285156 61.574219 238.9375 60.679688 239.089844 55.265625 C 239.1875 51.894531 238.894531 48.976562 238.441406 48.785156 C 237.988281 48.59375 237.929688 47.699219 238.3125 46.796875 C 238.691406 45.890625 238.40625 45.246094 237.675781 45.359375 C 236.945312 45.472656 236.558594 45.0625 236.816406 44.449219 C 237.4375 42.972656 234.582031 41.816406 233.035156 42.917969 C 232.367188 43.390625 230.71875 46.070312 229.375 48.871094 C 228.027344 51.667969 226.671875 54.0625 226.359375 54.183594 C 226.046875 54.308594 222.605469 53.355469 218.710938 52.066406 C 214.816406 50.777344 211.59375 49.804688 211.554688 49.898438 C 211.511719 49.996094 209.734375 49.578125 207.597656 48.972656 C 204.292969 48.035156 201.519531 47.496094 196.984375 46.902344 C 196.5 46.839844 195.164062 46.460938 194.015625 46.0625 C 192.867188 45.664062 190.867188 45.769531 189.570312 46.296875 C 187.902344 46.976562 187.378906 46.867188 187.78125 45.914062 C 188.21875 44.871094 187.945312 44.738281 186.546875 45.308594 C 185.558594 45.710938 183.65625 45.582031 182.324219 45.019531 C 180.988281 44.457031 179.683594 44.5 179.425781 45.113281 C 179.167969 45.726562 178.550781 45.664062 178.058594 44.96875 C 177.5625 44.273438 176.125 44.328125 174.851562 45.09375 C 172.867188 46.285156 172.5 46.203125 172.214844 44.480469 C 171.972656 43.03125 171.71875 42.859375 171.285156 43.859375 C 170.957031 44.613281 170.335938 44.738281 169.90625 44.136719 C 169.476562 43.53125 168.835938 43.734375 168.476562 44.582031 C 168.121094 45.429688 166.234375 46.019531 164.28125 45.898438 C 161.359375 45.710938 160.472656 45.140625 159.246094 42.65625 C 158.429688 41 156.589844 39.148438 155.152344 38.542969 C 152.652344 37.492188 152.472656 37.675781 150.808594 43.007812 C 149.574219 46.949219 148.445312 48.820312 146.925781 49.441406 C 145.746094 49.921875 145.128906 50.460938 145.558594 50.644531 C 145.984375 50.824219 143.589844 51.964844 140.234375 53.175781 C 136.878906 54.390625 133.917969 55.890625 133.65625 56.511719 C 133.394531 57.132812 132.609375 57.59375 131.910156 57.542969 C 130.445312 57.429688 130.03125 61.484375 131.445312 62.082031 C 131.964844 62.300781 132.652344 61.890625 132.984375 61.175781 C 133.3125 60.460938 136.367188 59.207031 139.777344 58.386719 C 143.1875 57.566406 145.898438 56.386719 145.800781 55.761719 C 145.703125 55.136719 146.46875 55.273438 147.5 56.066406 C 148.53125 56.859375 149.125 58.3125 148.8125 59.296875 C 147.890625 62.222656 147.742188 63.203125 147.71875 66.449219 C 147.644531 76.628906 146.921875 82.34375 145.101562 87.074219 C 142.238281 94.53125 142.226562 94.671875 144.617188 93.234375 C 146.554688 92.070312 146.777344 92.398438 147.054688 96.820312 C 147.226562 99.496094 147.066406 102.074219 146.703125 102.546875 C 146.34375 103.023438 147.058594 103.105469 148.296875 102.730469 C 151.84375 101.65625 151.707031 103.875 148.144531 105.179688 C 146.386719 105.824219 144.757812 106.808594 144.523438 107.363281 C 144.289062 107.921875 143.78125 108.128906 143.398438 107.820312 C 143.015625 107.515625 141.386719 107.40625 139.777344 107.582031 C 137.234375 107.855469 136.9375 107.644531 137.527344 105.964844 C 139.117188 101.445312 140.527344 98.667969 141.960938 97.238281 C 143.035156 96.160156 142.992188 95.5 141.816406 95.003906 C 140.894531 94.613281 139.476562 95.273438 138.664062 96.46875 C 134.417969 102.710938 133.414062 104.890625 134.054688 106.464844 C 134.589844 107.777344 133.976562 108.519531 131.53125 109.515625 C 128.875 110.597656 128.113281 110.480469 127.261719 108.839844 C 125.828125 106.082031 123.320312 106.757812 122.609375 110.097656 C 122.285156 111.628906 121.132812 113.238281 120.046875 113.683594 C 117.761719 114.613281 112.550781 111.617188 114.296875 110.375 C 115.042969 109.84375 114.636719 109.527344 113.148438 109.476562 C 111.878906 109.4375 111.308594 109.214844 111.882812 108.980469 C 112.882812 108.574219 106.769531 97.628906 105.164062 96.953125 C 104.734375 96.769531 103.03125 94.515625 101.375 91.941406 C 99.046875 88.320312 98.714844 86.84375 99.902344 85.425781 C 100.746094 84.414062 101.929688 82.59375 102.535156 81.375 C 103.140625 80.160156 103.90625 79.542969 104.234375 80.007812 C 104.566406 80.472656 106.214844 79.578125 107.902344 78.019531 C 109.589844 76.460938 112.605469 73.984375 114.609375 72.515625 C 116.609375 71.046875 118.273438 69.066406 118.304688 68.109375 C 118.332031 67.15625 118.675781 66.820312 119.0625 67.363281 C 120.285156 69.078125 129.3125 63.328125 129.453125 60.742188 C 129.574219 58.542969 129.414062 58.503906 126.238281 59.929688 C 124.398438 60.757812 122.644531 62.027344 122.335938 62.757812 C 122.03125 63.484375 120.621094 64.328125 119.207031 64.632812 C 117.792969 64.9375 115.015625 66.457031 113.039062 68.003906 C 111.058594 69.550781 106.308594 73.269531 102.476562 76.265625 C 98.648438 79.261719 94.96875 81.476562 94.296875 81.179688 C 93.625 80.882812 91.121094 78.164062 88.726562 75.132812 C 86.332031 72.101562 83.847656 69.703125 83.210938 69.800781 C 82.570312 69.902344 82.359375 69.242188 82.742188 68.339844 C 83.472656 66.605469 78.039062 63.507812 76.359375 64.703125 C 74.675781 65.902344 75.828125 75.34375 78.386719 81.273438 C 79.8125 84.570312 80.71875 87.886719 80.402344 88.636719 C 80.082031 89.390625 80.222656 90.171875 80.710938 90.378906 C 82.140625 90.980469 81.953125 96.917969 80.496094 97.144531 C 78.347656 97.480469 77.457031 101.207031 79.199219 102.542969 C 80.4375 103.492188 80.242188 103.585938 78.417969 102.925781 C 77.085938 102.445312 75.808594 102.390625 75.582031 102.808594 C 75.355469 103.222656 74.472656 104.628906 73.621094 105.925781 C 72.769531 107.226562 72.515625 108.925781 73.054688 109.703125 C 73.769531 110.734375 73.53125 110.910156 72.183594 110.359375 C 71.042969 109.890625 69.992188 110.40625 69.445312 111.707031 C 68.957031 112.867188 69.089844 114.039062 69.742188 114.3125 C 70.539062 114.652344 70.40625 115.097656 69.328125 115.691406 C 68.449219 116.175781 66.5 118.566406 64.992188 121.003906 C 61.796875 126.175781 51.414062 150.867188 51.128906 153.96875 C 50.9375 156.082031 55.472656 162.582031 56.101562 161.089844 C 56.28125 160.65625 56.71875 161.628906 57.070312 163.253906 C 57.457031 165.058594 58.585938 166.394531 59.96875 166.683594 C 61.214844 166.949219 62.054688 167.589844 61.835938 168.113281 C 61.613281 168.632812 64.8125 170.652344 68.945312 172.601562 L 68.941406 172.601562 C 73.074219 174.550781 81.746094 178.167969 88.214844 180.640625 C 94.6875 183.113281 101.527344 185.847656 103.421875 186.722656 C 105.316406 187.59375 106.796875 187.855469 106.710938 187.304688 C 106.625 186.753906 109.019531 187.285156 112.03125 188.488281 C 115.046875 189.6875 119.78125 191.25 122.554688 191.960938 C 125.332031 192.667969 128.324219 193.523438 129.207031 193.855469 C 130.542969 194.363281 138.730469 196.203125 150.1875 198.574219 C 159.847656 200.570312 174.328125 201.691406 174.835938 200.480469 C 175.023438 200.039062 176.011719 200.015625 177.03125 200.425781 C 179.71875 201.5 198.132812 200.054688 201.75 198.484375 C 202.167969 198.304688 204.734375 197.992188 207.460938 197.792969 C 210.183594 197.597656 212.898438 196.925781 213.496094 196.300781 C 214.09375 195.679688 215.296875 195.46875 216.164062 195.835938 C 217.757812 196.507812 226.621094 194.550781 232.457031 192.238281 C 234.195312 191.550781 236.980469 190.726562 238.652344 190.40625 C 243.761719 189.429688 284.5 172.972656 285.050781 171.660156 C 285.335938 170.988281 285.941406 170.59375 286.394531 170.785156 C 287.257812 171.144531 293.710938 166.734375 293.390625 166 C 293.289062 165.769531 294.789062 164.574219 296.726562 163.339844 C 298.660156 162.105469 301.492188 159.824219 303.023438 158.273438 C 304.550781 156.71875 306.695312 155.179688 307.785156 154.847656 C 308.875 154.519531 310.0625 153.539062 310.429688 152.671875 C 311.203125 150.839844 306.6875 139.601562 304.875 138.835938 Z M 240.265625 71.324219 C 241.640625 71.449219 243.125 72.058594 243.5625 72.675781 C 244.003906 73.296875 245.570312 74.5625 247.042969 75.496094 C 250.945312 77.96875 259.507812 85.222656 261.898438 88.085938 C 263.03125 89.445312 264.386719 90.738281 264.90625 90.960938 C 266.957031 91.84375 274.699219 101.90625 274.210938 103.0625 C 273.929688 103.738281 272.3125 105.875 270.625 107.808594 C 268.9375 109.746094 267.292969 111.992188 266.96875 112.804688 C 266.625 113.675781 265.023438 113.867188 263.082031 113.277344 C 261.269531 112.722656 258.25 111.925781 256.382812 111.5 C 254.511719 111.078125 250.496094 110 247.460938 109.101562 C 244.421875 108.203125 240.863281 107.371094 239.546875 107.253906 C 235.777344 106.910156 233.25 105.882812 233.050781 104.609375 C 232.949219 103.96875 233.480469 99.394531 234.226562 94.445312 C 234.976562 89.5 235.792969 83.582031 236.042969 81.296875 C 237.015625 72.480469 237.609375 71.082031 240.265625 71.324219 Z M 247.199219 115.792969 C 246.292969 115.410156 245.753906 114.625 246 114.046875 C 246.242188 113.464844 246.890625 113.179688 247.433594 113.410156 C 247.980469 113.640625 248.519531 114.425781 248.636719 115.15625 C 248.75 115.886719 248.101562 116.171875 247.199219 115.792969 Z M 233.066406 124.117188 C 232.699219 124.988281 232.214844 125.621094 231.984375 125.527344 C 231.757812 125.429688 231.597656 124.523438 231.628906 123.515625 C 231.664062 122.503906 232.148438 121.871094 232.710938 122.105469 C 233.273438 122.34375 233.433594 123.25 233.066406 124.117188 Z M 215.75 118.066406 C 216.179688 118.671875 216.441406 119.375 216.335938 119.628906 C 216.226562 119.886719 215.664062 119.894531 215.082031 119.648438 C 214.503906 119.40625 214.242188 118.703125 214.5 118.089844 C 214.757812 117.476562 215.320312 117.464844 215.75 118.066406 Z M 195.527344 160.195312 C 196.53125 160.242188 198.625 159.910156 200.183594 159.460938 C 202.050781 158.917969 201.992188 159.152344 200.003906 160.167969 C 198.347656 161.007812 196.253906 161.335938 195.347656 160.902344 C 193.949219 160.230469 193.976562 160.121094 195.527344 160.195312 Z M 203.691406 131.0625 C 205.136719 129.175781 207.417969 129.007812 206.644531 130.84375 C 206.429688 131.351562 205.347656 132.042969 204.234375 132.382812 C 202.574219 132.882812 202.476562 132.648438 203.691406 131.0625 Z M 165.625 62.453125 C 163.824219 56.246094 163.4375 51.191406 164.925781 53.28125 C 165.382812 53.921875 167.214844 53.792969 169 52.992188 C 170.996094 52.09375 172.199219 52.074219 172.132812 52.9375 C 172.074219 53.710938 172.488281 54.535156 173.054688 54.773438 C 173.621094 55.011719 173.972656 54.507812 173.839844 53.652344 C 173.679688 52.625 174.070312 52.550781 174.984375 53.425781 C 175.746094 54.160156 177.523438 54.460938 178.9375 54.101562 C 180.351562 53.742188 182.386719 53.796875 183.460938 54.230469 C 184.535156 54.660156 186.808594 54.34375 188.507812 53.523438 C 190.210938 52.703125 191.050781 52.496094 190.378906 53.066406 C 189.703125 53.636719 189.65625 54.316406 190.269531 54.574219 C 190.882812 54.832031 191.609375 54.519531 191.878906 53.878906 C 192.148438 53.234375 192.941406 53.257812 193.640625 53.929688 C 194.335938 54.597656 195.378906 54.675781 195.949219 54.101562 C 196.664062 53.386719 196.828125 53.523438 196.46875 54.535156 C 196.058594 55.691406 196.707031 55.871094 199.476562 55.359375 C 201.417969 55.003906 202.464844 55.097656 201.804688 55.570312 C 201.035156 56.117188 201.601562 56.753906 203.390625 57.335938 C 204.921875 57.839844 206.320312 57.910156 206.492188 57.5 C 206.664062 57.089844 207.484375 56.800781 208.316406 56.859375 C 209.144531 56.914062 208.5625 56.636719 207.023438 56.238281 C 204.566406 55.605469 204.515625 55.476562 206.621094 55.164062 C 207.9375 54.96875 209.6875 55.460938 210.503906 56.257812 C 211.324219 57.054688 214.5 59.042969 217.566406 60.683594 C 220.632812 62.324219 223.191406 63.789062 223.257812 63.941406 C 223.320312 64.09375 220.429688 71.90625 216.835938 81.304688 C 213.242188 90.703125 210.078125 99.554688 209.804688 100.976562 C 209.394531 103.070312 208.835938 103.363281 206.839844 102.523438 C 205.484375 101.949219 203.757812 102.128906 203 102.917969 C 201.984375 103.972656 200.875 103.84375 198.785156 102.425781 C 196.464844 100.851562 195.933594 100.855469 195.882812 102.4375 C 195.828125 104.074219 195.546875 104.042969 194.082031 102.230469 C 192.609375 100.414062 192.332031 100.382812 192.277344 102.042969 C 192.238281 103.304688 191.734375 103.691406 190.859375 103.136719 C 188.945312 101.917969 182.78125 102.015625 182.253906 103.273438 C 182.007812 103.847656 181.214844 103.746094 180.484375 103.046875 C 179.667969 102.261719 178.902344 102.382812 178.492188 103.355469 C 177.179688 106.46875 171.453125 103.960938 171.953125 100.488281 C 172.109375 99.398438 172.386719 98.273438 172.566406 97.992188 C 172.75 97.710938 172.351562 96 171.6875 94.1875 C 171.023438 92.375 170.363281 89.316406 170.21875 87.390625 C 169.542969 78.40625 167.554688 69.832031 166.195312 70.042969 C 165.289062 70.183594 165.230469 69.914062 166.039062 69.339844 C 166.804688 68.792969 166.632812 65.9375 165.625 62.453125 Z M 198.652344 107.246094 C 200.125 106.894531 201.457031 106.929688 201.617188 107.320312 C 201.773438 107.707031 201.019531 108.175781 199.941406 108.355469 C 196.796875 108.878906 195.710938 107.941406 198.652344 107.246094 Z M 174.761719 162.335938 C 174.53125 162.882812 173.867188 163.128906 173.289062 162.882812 C 172.707031 162.640625 172.546875 161.699219 172.925781 160.796875 C 173.308594 159.890625 173.96875 159.644531 174.398438 160.25 C 174.828125 160.851562 174.992188 161.789062 174.761719 162.335938 Z M 175.539062 139.851562 C 175.460938 140.035156 174.976562 140.003906 174.457031 139.789062 C 173.917969 139.5625 174.78125 137.652344 176.453125 135.351562 C 178.070312 133.128906 180.089844 130.023438 180.945312 128.449219 C 181.800781 126.871094 183.238281 125.285156 184.140625 124.917969 C 185.320312 124.433594 185.339844 124.902344 184.203125 126.601562 C 180.957031 131.453125 175.675781 139.527344 175.539062 139.851562 Z M 173.113281 142.664062 C 172.597656 143.886719 171.578125 144.980469 170.84375 145.097656 C 170.078125 145.214844 170.035156 144.449219 170.742188 143.296875 C 172.480469 140.464844 174.238281 139.996094 173.113281 142.664062 Z M 159.84375 124.183594 C 160.855469 123.121094 161.519531 121.84375 161.320312 121.347656 C 160.730469 119.902344 162.757812 121.125 164.023438 122.976562 C 164.664062 123.921875 164.632812 124.449219 163.945312 124.167969 C 163.273438 123.894531 162.585938 124.613281 162.417969 125.761719 C 162.207031 127.242188 161.519531 127.597656 160.058594 126.984375 C 158.375 126.277344 158.335938 125.761719 159.84375 124.183594 Z M 157.617188 131.121094 C 157.121094 131.320312 157.132812 130.59375 157.648438 129.503906 C 158.214844 128.292969 158.570312 128.148438 158.554688 129.132812 C 158.539062 130.023438 158.117188 130.917969 157.617188 131.121094 Z M 148.425781 151.171875 C 148.179688 151.753906 147.769531 152.140625 147.515625 152.03125 C 147.257812 151.921875 146.957031 151.238281 146.84375 150.507812 C 146.726562 149.777344 147.136719 149.390625 147.75 149.648438 C 148.367188 149.90625 148.667969 150.59375 148.425781 151.171875 Z M 156.25 141.433594 C 156.679688 142.035156 156.941406 142.738281 156.835938 142.992188 C 156.726562 143.25 156.164062 143.257812 155.585938 143.015625 C 155.003906 142.769531 154.742188 142.066406 155 141.453125 C 155.257812 140.839844 155.820312 140.828125 156.25 141.433594 Z M 166.039062 119.660156 C 164.089844 120.453125 163.878906 120.371094 164.441406 119.03125 C 164.800781 118.183594 165.917969 117.511719 166.929688 117.546875 C 167.941406 117.578125 168.660156 117.863281 168.527344 118.175781 C 168.394531 118.488281 167.277344 119.15625 166.039062 119.660156 Z M 64.066406 141.15625 C 64.039062 142 63.277344 142.808594 62.371094 142.949219 C 61.222656 143.128906 61.152344 142.761719 62.140625 141.734375 C 62.914062 140.925781 63.15625 140.097656 62.675781 139.894531 C 60.855469 139.128906 71.265625 120.207031 76.542969 114.695312 C 78.394531 112.761719 79.597656 110.972656 81.929688 106.683594 C 83.074219 104.582031 84.410156 102.699219 84.898438 102.5 C 85.851562 102.113281 89.84375 109.203125 89.304688 110.335938 C 89.125 110.710938 89.855469 112.597656 90.925781 114.527344 C 94.1875 120.421875 93.890625 122.765625 89.558594 125.277344 C 87.476562 126.484375 83.511719 128.359375 80.742188 129.449219 C 77.9375 130.550781 75.8125 132.089844 75.945312 132.925781 C 76.070312 133.75 75.316406 134.394531 74.261719 134.363281 C 73.210938 134.328125 72.160156 134.746094 71.929688 135.289062 C 71.703125 135.832031 69.851562 137.027344 67.816406 137.949219 C 65.78125 138.867188 64.09375 140.3125 64.066406 141.15625 Z M 176.578125 196.351562 C 175.125 195.742188 174.632812 195.253906 175.484375 195.265625 C 176.332031 195.277344 177.515625 195.777344 178.117188 196.375 C 178.71875 196.972656 178.027344 196.964844 176.578125 196.351562 Z M 186.859375 196.746094 C 185.179688 196.816406 183.9375 196.558594 184.101562 196.175781 C 184.582031 195.03125 189.585938 194.546875 189.753906 195.625 C 189.839844 196.171875 188.535156 196.675781 186.859375 196.746094 Z M 246.03125 180.308594 C 245.019531 180.273438 244.363281 179.839844 244.574219 179.339844 C 244.785156 178.839844 245.785156 178.457031 246.792969 178.492188 C 247.804688 178.523438 248.460938 178.957031 248.25 179.457031 C 248.039062 179.957031 247.039062 180.339844 246.03125 180.308594 Z M 277.660156 169.433594 C 272.734375 171.402344 268.039062 173.710938 267.226562 174.558594 C 266.410156 175.40625 265.589844 175.71875 265.398438 175.25 C 265.054688 174.40625 258.429688 176.234375 253.769531 178.464844 C 252.441406 179.097656 250.917969 179.433594 250.378906 179.207031 C 249.84375 178.984375 251.113281 178.179688 253.195312 177.421875 C 255.277344 176.660156 256.84375 175.695312 256.671875 175.273438 C 256.5 174.847656 257.398438 174.597656 258.671875 174.714844 C 259.949219 174.832031 266.59375 172.480469 273.4375 169.492188 C 280.285156 166.507812 286.046875 164.464844 286.25 164.957031 C 286.449219 165.449219 282.585938 167.460938 277.660156 169.433594 Z M 297.957031 152.488281 C 296.605469 153.734375 295.09375 154.582031 294.597656 154.375 C 294.101562 154.164062 292.203125 155.320312 290.378906 156.945312 C 288.558594 158.566406 286.496094 159.652344 285.800781 159.359375 C 285.105469 159.066406 283.308594 159.65625 281.804688 160.664062 C 280.304688 161.675781 274.625 164.3125 269.191406 166.527344 C 263.039062 169.035156 259.375 171.171875 259.492188 172.183594 C 259.632812 173.398438 259.484375 173.378906 258.898438 172.101562 C 258.3125 170.816406 256.414062 171.015625 251.242188 172.914062 C 247.457031 174.296875 243.976562 175.269531 243.507812 175.074219 C 243.039062 174.875 242.746094 175.308594 242.859375 176.042969 C 242.972656 176.773438 242.632812 177.1875 242.105469 176.964844 C 241.574219 176.742188 239.5 177.125 237.496094 177.816406 C 232.253906 179.625 222.15625 182.53125 218.667969 183.234375 C 217.023438 183.566406 209.203125 185.164062 201.289062 186.78125 C 193.375 188.398438 186.277344 189.460938 185.519531 189.140625 C 184.757812 188.820312 182.839844 188.835938 181.253906 189.179688 C 176.34375 190.238281 157.890625 191.164062 156.164062 190.4375 C 155.265625 190.058594 154.320312 190.242188 154.066406 190.847656 C 153.808594 191.453125 153.046875 191.601562 152.371094 191.179688 C 151.695312 190.757812 150.3125 190.398438 149.292969 190.382812 C 145.617188 190.320312 128.011719 186.304688 123.566406 184.515625 C 121.0625 183.507812 118.839844 183.101562 118.625 183.613281 C 118.410156 184.125 117.882812 184.050781 117.457031 183.449219 C 116.164062 181.636719 97.023438 172.765625 95.289062 173.179688 C 93.492188 173.609375 75.675781 167.03125 75.152344 165.746094 C 74.96875 165.296875 73.972656 164.363281 72.941406 163.667969 C 71.90625 162.976562 69.628906 160.886719 67.875 159.023438 C 66.117188 157.160156 63.644531 155.199219 62.378906 154.667969 C 60.210938 153.753906 60.226562 153.625 62.628906 152.5 C 64.035156 151.84375 65.417969 150.753906 65.707031 150.074219 C 65.992188 149.394531 66.609375 149 67.078125 149.195312 C 67.546875 149.394531 69.554688 148.019531 71.539062 146.144531 C 75.695312 142.222656 81.523438 139.125 94.144531 134.136719 C 99.058594 132.195312 103.136719 130.179688 103.210938 129.65625 C 103.28125 129.136719 104.632812 128.910156 106.214844 129.152344 C 107.796875 129.398438 109.339844 129.003906 109.644531 128.28125 C 110.113281 127.171875 122.492188 124.113281 123.980469 124.738281 C 124.246094 124.851562 125.558594 128.78125 126.894531 133.46875 C 128.804688 140.171875 130.632812 143.515625 135.460938 149.128906 C 141.074219 155.65625 142.484375 156.675781 152.019531 161.101562 C 159.59375 164.617188 162.816406 165.667969 163.816406 164.957031 C 164.84375 164.222656 165.421875 164.429688 166.121094 165.773438 C 169.09375 171.488281 197.101562 169.53125 210.03125 162.707031 C 213.222656 161.019531 219.101562 156.863281 223.097656 153.46875 C 227.09375 150.074219 231.109375 146.886719 232.019531 146.386719 C 232.957031 145.875 235.789062 140.304688 238.546875 133.5625 C 242.15625 124.734375 243.773438 121.757812 244.792969 122.070312 C 247.175781 122.804688 247.824219 122.871094 249.644531 122.566406 C 252.226562 122.132812 282.167969 134.289062 281.636719 135.554688 C 281.390625 136.140625 282.515625 136.789062 284.226562 137.050781 C 285.890625 137.308594 287.621094 138.179688 288.070312 138.988281 C 288.515625 139.796875 289.683594 140.882812 290.65625 141.402344 C 291.632812 141.921875 293.34375 142.835938 294.457031 143.4375 C 295.570312 144.035156 296.324219 144.898438 296.132812 145.355469 C 295.941406 145.808594 296.375 146.441406 297.09375 146.753906 C 300.207031 148.109375 300.511719 150.132812 297.957031 152.488281 Z M 297.957031 152.488281 " fill-opacity="1" fill-rule="nonzero"/><g transform="matrix(1, 0, 0, 1, 0, 165)"><g clip-path="url(#a595222835)"><g fill="#e4e2dd" fill-opacity="1"><g transform="translate(5.359339, 82.16297)"><g><path d="M 0.875 0.484375 C 0.394531 0.222656 0.457031 -0.1875 1.0625 -0.75 C 1.144531 -0.914062 1.242188 -1.035156 1.359375 -1.109375 C 1.421875 -1.210938 1.515625 -1.328125 1.640625 -1.453125 C 1.773438 -1.585938 1.988281 -1.78125 2.28125 -2.03125 L 4.625 -4.546875 C 4.90625 -4.816406 5.394531 -5.269531 6.09375 -5.90625 C 6.800781 -6.550781 7.40625 -7.1875 7.90625 -7.8125 C 8.875 -8.925781 10.445312 -10.5625 12.625 -12.71875 L 14.484375 -14.578125 C 17.316406 -17.285156 19.226562 -19.222656 20.21875 -20.390625 L 23.671875 -23.953125 C 25.179688 -25.398438 26.113281 -26.328125 26.46875 -26.734375 C 27.726562 -28.097656 29.359375 -29.78125 31.359375 -31.78125 L 33.15625 -33.671875 L 34.546875 -35.0625 C 36.078125 -36.550781 37.25 -37.585938 38.0625 -38.171875 C 38.34375 -38.421875 39.332031 -39.296875 41.03125 -40.796875 C 42.738281 -42.296875 44.003906 -43.539062 44.828125 -44.53125 C 45.910156 -45.582031 46.820312 -46.316406 47.5625 -46.734375 C 48.3125 -47.148438 49.03125 -47.164062 49.71875 -46.78125 C 49.988281 -46.632812 50.117188 -46.25 50.109375 -45.625 C 50.097656 -45 50.035156 -44.269531 49.921875 -43.4375 C 49.804688 -42.613281 49.710938 -42.015625 49.640625 -41.640625 C 49.503906 -40.398438 48.84375 -37.492188 47.65625 -32.921875 L 47.046875 -30.328125 C 46.859375 -29.878906 46.28125 -26.820312 45.3125 -21.15625 L 44.390625 -15.96875 L 43.71875 -11.46875 C 42.875 -6.488281 42.414062 -3.4375 42.34375 -2.3125 C 41.050781 4.300781 40.238281 8.273438 39.90625 9.609375 C 39.5 11.179688 39.128906 13.21875 38.796875 15.71875 C 38.472656 18.226562 38.289062 19.644531 38.25 19.96875 C 38.207031 20.414062 38.140625 20.722656 38.046875 20.890625 C 37.929688 21.097656 37.582031 21.039062 37 20.71875 L 32.578125 18.25 C 32.367188 18.132812 32.21875 18 32.125 17.84375 C 32.039062 17.6875 32.03125 17.425781 32.09375 17.0625 C 32.21875 16.351562 32.460938 15.242188 32.828125 13.734375 C 33.097656 12.148438 33.445312 10.785156 33.875 9.640625 C 34.15625 8.765625 34.4375 7.679688 34.71875 6.390625 C 35 5.097656 35.171875 4.085938 35.234375 3.359375 C 35.304688 2.097656 35.515625 0.726562 35.859375 -0.75 L 36.421875 -3.421875 C 36.492188 -4.160156 36.5 -4.628906 36.4375 -4.828125 C 36.382812 -5.035156 36.195312 -5.226562 35.875 -5.40625 C 34.78125 -6.019531 33.953125 -6.445312 33.390625 -6.6875 L 29.90625 -8.4375 C 29.457031 -8.601562 27.492188 -9.660156 24.015625 -11.609375 L 19.203125 -14.3125 L 19.046875 -14.390625 C 18.734375 -14.566406 18.332031 -14.414062 17.84375 -13.9375 L 17.265625 -13.234375 L 16.109375 -11.90625 C 15.816406 -11.644531 14.613281 -10.316406 12.5 -7.921875 C 11.851562 -7.109375 10.953125 -6.09375 9.796875 -4.875 C 9.085938 -3.882812 8.363281 -3.15625 7.625 -2.6875 C 7.425781 -2.582031 7.082031 -2.285156 6.59375 -1.796875 C 6.113281 -1.304688 5.722656 -0.90625 5.421875 -0.59375 C 5.015625 -0.257812 4.441406 0.320312 3.703125 1.15625 C 3.617188 1.175781 3.5 1.257812 3.34375 1.40625 C 3.195312 1.5625 3.0625 1.625 2.9375 1.59375 C 2.820312 1.5625 2.65625 1.484375 2.4375 1.359375 Z M 29.640625 -15.53125 C 30.316406 -15.289062 31.238281 -14.847656 32.40625 -14.203125 L 36.625 -11.71875 C 37.300781 -11.332031 37.738281 -11.320312 37.9375 -11.6875 C 38.082031 -11.957031 38.234375 -12.644531 38.390625 -13.75 C 38.503906 -14.707031 38.851562 -16.445312 39.4375 -18.96875 C 39.925781 -20.957031 40.289062 -22.722656 40.53125 -24.265625 C 40.882812 -26.128906 41.363281 -28.304688 41.96875 -30.796875 C 42.570312 -33.296875 43 -34.890625 43.25 -35.578125 C 44.019531 -38.804688 44.273438 -40.492188 44.015625 -40.640625 C 43.859375 -40.734375 43.191406 -40.175781 42.015625 -38.96875 L 40.578125 -37.46875 C 39.421875 -36.257812 37.953125 -34.753906 36.171875 -32.953125 C 34.398438 -31.148438 32.867188 -29.644531 31.578125 -28.4375 C 30.492188 -27.25 29.09375 -25.769531 27.375 -24 C 25.664062 -22.226562 24.429688 -21.035156 23.671875 -20.421875 C 23.378906 -20.171875 23.21875 -20.015625 23.1875 -19.953125 C 22.988281 -19.585938 23.03125 -19.253906 23.3125 -18.953125 C 23.601562 -18.660156 23.925781 -18.429688 24.28125 -18.265625 C 24.632812 -18.097656 24.863281 -17.988281 24.96875 -17.9375 Z M 29.640625 -15.53125 "/></g></g></g><g fill="#e4e2dd" fill-opacity="1"><g transform="translate(46.653803, 105.73915)"><g><path d="M 7.40625 3.734375 C 6.550781 3.429688 6.035156 3.078125 5.859375 2.671875 C 5.691406 2.265625 5.644531 1.847656 5.71875 1.421875 C 5.800781 1.003906 5.851562 0.703125 5.875 0.515625 C 5.988281 -0.585938 6.304688 -1.878906 6.828125 -3.359375 C 7.296875 -4.722656 7.734375 -5.875 8.140625 -6.8125 C 9.171875 -9.769531 10.429688 -13.207031 11.921875 -17.125 C 13.421875 -21.050781 14.554688 -23.832031 15.328125 -25.46875 L 17.890625 -31.375 C 21.867188 -40.59375 24.066406 -45.800781 24.484375 -47 C 26.054688 -51.5 27.316406 -54.820312 28.265625 -56.96875 C 28.921875 -58.476562 29.992188 -58.972656 31.484375 -58.453125 C 31.929688 -58.296875 32.34375 -58.113281 32.71875 -57.90625 C 33.101562 -57.707031 33.40625 -57.570312 33.625 -57.5 L 40.921875 -55.046875 C 42.160156 -54.609375 43.035156 -54.15625 43.546875 -53.6875 C 44.054688 -53.226562 44.367188 -52.625 44.484375 -51.875 C 44.628906 -50.476562 44.804688 -48.695312 45.015625 -46.53125 L 45.78125 -38.59375 L 46.71875 -28.390625 C 46.894531 -26.523438 47.117188 -24.078125 47.390625 -21.046875 C 47.671875 -18.015625 47.898438 -15.898438 48.078125 -14.703125 C 48.335938 -12.367188 48.53125 -10.925781 48.65625 -10.375 L 49.40625 -4.84375 L 50.21875 1.28125 L 51.796875 -3.71875 L 54.375 -12.203125 L 55.265625 -14.75 C 56.359375 -17.882812 57.523438 -21.03125 58.765625 -24.1875 C 59.597656 -26.582031 60.238281 -28.523438 60.6875 -30.015625 L 62.890625 -36.53125 L 66.09375 -44.59375 C 66.394531 -45.457031 66.972656 -45.738281 67.828125 -45.4375 C 68.097656 -45.34375 68.632812 -45.0625 69.4375 -44.59375 C 69.90625 -44.289062 70.421875 -44.039062 70.984375 -43.84375 C 71.554688 -43.644531 72.015625 -43.484375 72.359375 -43.359375 C 72.816406 -43.203125 73.097656 -43.039062 73.203125 -42.875 C 73.304688 -42.71875 73.304688 -42.492188 73.203125 -42.203125 C 73.117188 -41.972656 73 -41.726562 72.84375 -41.46875 C 72.6875 -41.207031 72.550781 -40.90625 72.4375 -40.5625 L 69.796875 -33.265625 L 63.578125 -16.078125 L 62.625 -13.640625 C 61.945312 -11.703125 61.359375 -9.925781 60.859375 -8.3125 C 60.359375 -6.695312 59.960938 -5.367188 59.671875 -4.328125 C 58.972656 -1.816406 58.335938 0.265625 57.765625 1.921875 C 57.847656 1.691406 56.75 5.097656 54.46875 12.140625 L 52.96875 16.984375 L 52.90625 17.171875 C 52.5 18.304688 51.773438 18.628906 50.734375 18.140625 C 50.585938 18.015625 50.257812 17.863281 49.75 17.6875 L 47.25 16.921875 L 46.734375 16.734375 C 46.335938 16.597656 46.066406 16.40625 45.921875 16.15625 C 45.785156 15.914062 45.632812 15.316406 45.46875 14.359375 C 45.425781 13.898438 45.394531 13.25 45.375 12.40625 C 45.351562 11.570312 45.296875 10.632812 45.203125 9.59375 C 44.910156 2.59375 44.613281 -2.207031 44.3125 -4.8125 C 43.894531 -7.644531 43.140625 -15.609375 42.046875 -28.703125 C 41.710938 -31.429688 41.289062 -34.351562 40.78125 -37.46875 L 39.875 -42.765625 L 37.296875 -34.5625 L 35.609375 -29.5 C 34.410156 -25.707031 33.601562 -23.210938 33.1875 -22.015625 C 31.550781 -17.359375 29.992188 -12.632812 28.515625 -7.84375 L 26.25 -1.15625 C 25.832031 0.0390625 25.289062 1.796875 24.625 4.109375 L 23.75 7.171875 L 23.6875 7.328125 C 23.488281 7.898438 23.210938 8.222656 22.859375 8.296875 C 22.515625 8.367188 22.085938 8.3125 21.578125 8.125 L 19.65625 7.5625 C 18.414062 7.3125 17.113281 6.945312 15.75 6.46875 C 14.15625 5.914062 12.835938 5.484375 11.796875 5.171875 Z M 7.40625 3.734375 "/></g></g></g><g fill="#e4e2dd" fill-opacity="1"><g transform="translate(109.006893, 126.336413)"><g><path d="M 46.6875 -46.765625 C 46.519531 -46.179688 46.144531 -43.675781 45.5625 -39.25 C 44.6875 -31.9375 43.867188 -25.925781 43.109375 -21.21875 L 42.21875 -15.78125 C 40.851562 -8.125 38.125 -2.867188 34.03125 -0.015625 C 29.945312 2.828125 25.398438 3.84375 20.390625 3.03125 C 16.585938 2.414062 13.726562 0.660156 11.8125 -2.234375 C 9.90625 -5.140625 8.722656 -8.222656 8.265625 -11.484375 C 8.078125 -12.921875 8.113281 -15.097656 8.375 -18.015625 C 8.632812 -20.941406 9.007812 -23.921875 9.5 -26.953125 C 10.050781 -30.347656 10.503906 -32.59375 10.859375 -33.6875 C 11.109375 -34.507812 11.613281 -37.269531 12.375 -41.96875 C 13.59375 -49.46875 14.351562 -54.898438 14.65625 -58.265625 C 14.65625 -58.628906 14.703125 -59.113281 14.796875 -59.71875 C 15.097656 -61.550781 15.773438 -62.144531 16.828125 -61.5 L 17.8125 -61.234375 C 18.039062 -61.203125 18.289062 -61.191406 18.5625 -61.203125 C 18.84375 -61.210938 19.128906 -61.195312 19.421875 -61.15625 C 19.660156 -61.113281 19.785156 -60.910156 19.796875 -60.546875 C 19.128906 -56.804688 18.195312 -51.441406 17 -44.453125 C 15.800781 -37.472656 14.671875 -30.71875 13.609375 -24.1875 C 13.054688 -20.726562 12.988281 -17.5625 13.40625 -14.6875 C 13.832031 -11.8125 14.691406 -9.472656 15.984375 -7.671875 C 17.285156 -5.878906 18.890625 -4.828125 20.796875 -4.515625 C 23.410156 -4.097656 25.421875 -4.550781 26.828125 -5.875 C 28.242188 -7.207031 29.085938 -8.707031 29.359375 -10.375 L 30.390625 -15.78125 C 32.023438 -24.675781 32.921875 -29.601562 33.078125 -30.5625 C 33.296875 -31.925781 33.789062 -34.617188 34.5625 -38.640625 C 35.300781 -42.003906 35.929688 -45.320312 36.453125 -48.59375 C 36.929688 -51.507812 37.140625 -53.585938 37.078125 -54.828125 C 37.015625 -55.566406 37.019531 -56.144531 37.09375 -56.5625 C 37.226562 -57.394531 37.503906 -57.882812 37.921875 -58.03125 C 38.335938 -58.175781 38.734375 -58.203125 39.109375 -58.109375 C 39.492188 -58.015625 39.75 -57.957031 39.875 -57.9375 C 40.457031 -57.78125 41.125 -57.65625 41.875 -57.5625 C 42.632812 -57.46875 43.304688 -57.375 43.890625 -57.28125 L 46.21875 -56.90625 C 47.175781 -56.75 47.703125 -56.523438 47.796875 -56.234375 C 47.898438 -55.941406 47.910156 -55.34375 47.828125 -54.4375 C 47.742188 -53.113281 47.546875 -51.5 47.234375 -49.59375 C 47.023438 -48.289062 46.84375 -47.347656 46.6875 -46.765625 Z M 19.71875 -60.109375 L 19.796875 -60.546875 Z M 19.71875 -60.109375 "/></g></g></g><g fill="#e4e2dd" fill-opacity="1"><g transform="translate(156.630096, 134.039549)"><g><path d="M 23.96875 1.90625 C 15.28125 1.90625 9.757812 0.234375 7.40625 -3.109375 C 5.0625 -6.460938 3.828125 -8.195312 3.703125 -8.3125 C 3.460938 -8.613281 3.34375 -8.914062 3.34375 -9.21875 C 3.34375 -9.40625 3.582031 -9.800781 4.0625 -10.40625 C 4.851562 -11.488281 6 -12.78125 7.5 -14.28125 C 7.738281 -14.519531 7.984375 -14.640625 8.234375 -14.640625 C 8.535156 -14.640625 8.863281 -14.414062 9.21875 -13.96875 C 9.582031 -13.519531 9.882812 -13.175781 10.125 -12.9375 C 13.6875 -9.375 17.726562 -7.59375 22.25 -7.59375 C 24.539062 -7.59375 26.53125 -8.03125 28.21875 -8.90625 C 29.90625 -9.78125 30.75 -11.421875 30.75 -13.828125 C 30.75 -17.992188 27.460938 -22.425781 20.890625 -27.125 C 19.804688 -27.851562 18.78125 -28.457031 17.8125 -28.9375 C 15.28125 -30.320312 13.109375 -31.675781 11.296875 -33 C 9.492188 -34.332031 7.898438 -36.082031 6.515625 -38.25 C 5.128906 -40.414062 4.4375 -42.945312 4.4375 -45.84375 C 4.4375 -49.457031 5.566406 -52.710938 7.828125 -55.609375 C 10.085938 -58.503906 12.796875 -60.765625 15.953125 -62.390625 C 19.117188 -64.015625 21.878906 -64.828125 24.234375 -64.828125 C 29.960938 -64.828125 34.675781 -63.695312 38.375 -61.4375 C 42.082031 -59.175781 44.960938 -57.019531 47.015625 -54.96875 C 47.253906 -54.726562 47.375 -54.457031 47.375 -54.15625 C 47.375 -53.976562 47.296875 -53.753906 47.140625 -53.484375 C 46.992188 -53.210938 46.894531 -53.015625 46.84375 -52.890625 C 46.539062 -52.472656 46.039062 -51.734375 45.34375 -50.671875 C 44.65625 -49.617188 44.097656 -48.851562 43.671875 -48.375 C 43.492188 -48.132812 43.296875 -47.878906 43.078125 -47.609375 C 42.867188 -47.335938 42.6875 -47.140625 42.53125 -47.015625 C 42.382812 -46.898438 42.160156 -46.84375 41.859375 -46.84375 C 41.742188 -46.84375 41.457031 -47.035156 41 -47.421875 C 40.550781 -47.816406 40.113281 -48.164062 39.6875 -48.46875 C 37.28125 -50.570312 34.929688 -52.378906 32.640625 -53.890625 C 30.347656 -55.398438 28.148438 -56.15625 26.046875 -56.15625 C 24.359375 -56.15625 22.96875 -55.773438 21.875 -55.015625 C 20.789062 -54.265625 20.25 -52.5625 20.25 -49.90625 C 20.25 -47.320312 21.210938 -45.304688 23.140625 -43.859375 C 25.078125 -42.410156 27.640625 -41.019531 30.828125 -39.6875 C 31.128906 -39.570312 32.894531 -38.820312 36.125 -37.4375 C 39.351562 -36.050781 42.21875 -33.394531 44.71875 -29.46875 C 47.21875 -25.550781 48.46875 -20.882812 48.46875 -15.46875 C 48.46875 -9.675781 46.296875 -5.332031 41.953125 -2.4375 C 37.617188 0.457031 31.625 1.90625 23.96875 1.90625 Z M 23.96875 1.90625 "/></g></g></g><g fill="#e4e2dd" fill-opacity="1"><g transform="translate(213.833442, 134.008575)"><g><path d="M 42.578125 -73.3125 C 43.210938 -73.25 43.566406 -73.015625 43.640625 -72.609375 L 43.609375 -71.859375 C 43.628906 -71.441406 43.6875 -70.640625 43.78125 -69.453125 C 43.882812 -68.273438 44.050781 -66.484375 44.28125 -64.078125 C 44.445312 -62.265625 45.078125 -58.191406 46.171875 -51.859375 C 47.265625 -45.523438 48.148438 -40.585938 48.828125 -37.046875 C 49.304688 -34.554688 50.023438 -30.210938 50.984375 -24.015625 L 51.953125 -18.125 L 52.53125 -14.5625 C 52.707031 -13.675781 52.9375 -12.828125 53.21875 -12.015625 L 53.40625 -11.5 C 53.46875 -11.144531 53.367188 -10.925781 53.109375 -10.84375 C 52.847656 -10.757812 52.6875 -10.710938 52.625 -10.703125 C 52.070312 -10.472656 51.023438 -10.207031 49.484375 -9.90625 C 49.003906 -9.820312 48.71875 -10.015625 48.625 -10.484375 L 46.1875 -23.640625 C 45.9375 -24.585938 45.726562 -25.578125 45.5625 -26.609375 C 45.394531 -27.648438 45.226562 -28.582031 45.0625 -29.40625 L 44.34375 -33.140625 L 43.078125 -39.703125 L 35.9375 -38.140625 C 33.394531 -37.597656 29.96875 -36.910156 25.65625 -36.078125 L 17.3125 -34.46875 C 15.0625 -34.03125 13.304688 -33.71875 12.046875 -33.53125 C 12.234375 -32.519531 12.347656 -31.742188 12.390625 -31.203125 C 12.640625 -29.296875 12.929688 -27.484375 13.265625 -25.765625 L 15.015625 -16.15625 C 15.921875 -11.476562 16.664062 -8.425781 17.25 -7 C 17.507812 -6.320312 17.660156 -5.894531 17.703125 -5.71875 C 17.859375 -4.894531 17.734375 -4.332031 17.328125 -4.03125 C 16.921875 -3.738281 16.460938 -3.554688 15.953125 -3.484375 C 15.441406 -3.410156 15.097656 -3.359375 14.921875 -3.328125 C 12.816406 -3.054688 10.46875 -2.519531 7.875 -1.71875 C 6.882812 -1.394531 6.226562 -1.507812 5.90625 -2.0625 C 5.582031 -2.613281 5.332031 -3.421875 5.15625 -4.484375 C 4.988281 -5.554688 4.851562 -6.359375 4.75 -6.890625 L -1.359375 -37.578125 L -5.609375 -60.609375 C -5.835938 -61.796875 -5.847656 -62.578125 -5.640625 -62.953125 C -5.441406 -63.335938 -5.046875 -63.585938 -4.453125 -63.703125 L -2.484375 -63.984375 C -2.191406 -64.046875 -1.523438 -64.226562 -0.484375 -64.53125 C -0.191406 -64.65625 0.3125 -64.785156 1.03125 -64.921875 L 3.34375 -65.28125 C 3.820312 -65.320312 4.476562 -65.425781 5.3125 -65.59375 C 5.957031 -65.71875 6.390625 -65.597656 6.609375 -65.234375 C 6.835938 -64.867188 6.976562 -64.472656 7.03125 -64.046875 C 7.082031 -63.628906 7.125 -63.335938 7.15625 -63.171875 C 7.675781 -60.453125 8.234375 -56.90625 8.828125 -52.53125 L 10.1875 -43.6875 L 10.921875 -38.390625 L 16.28125 -39.25 L 19.59375 -39.78125 C 22.457031 -40.207031 24.453125 -40.53125 25.578125 -40.75 C 30.191406 -41.632812 33.707031 -42.34375 36.125 -42.875 C 39.019531 -43.4375 41.234375 -43.894531 42.765625 -44.25 L 42.25 -46.90625 L 41.21875 -51.78125 C 40.789062 -54.03125 40.019531 -58.671875 38.90625 -65.703125 L 37.875 -71.9375 C 37.832031 -72.5 38.109375 -72.835938 38.703125 -72.953125 L 39.703125 -73.046875 C 39.941406 -73.023438 40.382812 -73.078125 41.03125 -73.203125 C 41.75 -73.347656 42.265625 -73.382812 42.578125 -73.3125 Z M 48.59375 -10.671875 L 48.625 -10.484375 Z M 48.59375 -10.671875 "/></g></g></g><g fill="#e4e2dd" fill-opacity="1"><g transform="translate(279.300766, 120.50836)"><g><path d="M 36.015625 -14.203125 C 35.335938 -13.929688 34.710938 -13.804688 34.140625 -13.828125 C 33.578125 -13.859375 32.90625 -14.039062 32.125 -14.375 C 31.59375 -14.5625 29.363281 -15.804688 25.4375 -18.109375 C 22.320312 -20.035156 20.203125 -21.253906 19.078125 -21.765625 C 17.710938 -22.253906 15.5625 -23.304688 12.625 -24.921875 L 8.234375 -27.140625 C 8.910156 -25.453125 9.363281 -24.238281 9.59375 -23.5 L 11.609375 -18.078125 L 13.859375 -12.25 C 14.703125 -10.175781 15.328125 -8.875 15.734375 -8.34375 C 15.867188 -8.1875 15.984375 -8 16.078125 -7.78125 C 16.234375 -7.382812 16.234375 -7.101562 16.078125 -6.9375 C 15.921875 -6.78125 15.644531 -6.625 15.25 -6.46875 L 11.890625 -5.109375 L 9.90625 -4.21875 C 8.5 -3.507812 7.460938 -3.019531 6.796875 -2.75 C 6.234375 -2.519531 5.882812 -2.414062 5.75 -2.4375 C 5.363281 -2.28125 5.101562 -2.367188 4.96875 -2.703125 C 4.894531 -2.867188 4.832031 -3.328125 4.78125 -4.078125 C 4.738281 -4.523438 4.320312 -5.394531 3.53125 -6.6875 C 3.34375 -7.007812 3.117188 -7.410156 2.859375 -7.890625 C 2.597656 -8.367188 2.351562 -8.890625 2.125 -9.453125 C 0.9375 -12.546875 -0.945312 -17.484375 -3.53125 -24.265625 C -6.113281 -31.054688 -7.519531 -34.960938 -7.75 -35.984375 C -8.195312 -37.554688 -9.242188 -40.378906 -10.890625 -44.453125 C -11.753906 -46.578125 -12.3125 -47.882812 -12.5625 -48.375 C -12.800781 -48.800781 -13.304688 -49.957031 -14.078125 -51.84375 C -14.753906 -53.53125 -15.382812 -55.210938 -15.96875 -56.890625 C -16.550781 -58.578125 -16.882812 -59.691406 -16.96875 -60.234375 C -17.144531 -60.816406 -16.957031 -61.222656 -16.40625 -61.453125 C -16.125 -61.566406 -15.828125 -61.632812 -15.515625 -61.65625 C -15.203125 -61.6875 -14.90625 -61.757812 -14.625 -61.875 C -13.5625 -62.3125 -12.742188 -62.609375 -12.171875 -62.765625 C -11.722656 -62.953125 -11.179688 -63.15625 -10.546875 -63.375 C -9.910156 -63.601562 -9.195312 -63.910156 -8.40625 -64.296875 L -7.890625 -64.5 C -7.453125 -64.675781 -7.125 -64.707031 -6.90625 -64.59375 C -6.695312 -64.488281 -6.53125 -64.269531 -6.40625 -63.9375 L -5.140625 -60.84375 L -4.125 -58.328125 L -2.734375 -54.890625 C -0.0859375 -48.359375 1.488281 -44.148438 2 -42.265625 C 2.394531 -40.992188 2.738281 -40 3.03125 -39.28125 L 4.203125 -36.53125 L 5.546875 -33.75 L 6.3125 -35.734375 C 6.457031 -36.179688 6.925781 -37.34375 7.71875 -39.21875 C 8.132812 -40.113281 8.84375 -41.882812 9.84375 -44.53125 C 10.851562 -47.1875 11.640625 -49.273438 12.203125 -50.796875 C 12.398438 -51.585938 12.960938 -53.242188 13.890625 -55.765625 C 14.828125 -58.285156 15.707031 -60.53125 16.53125 -62.5 C 17.019531 -63.863281 17.515625 -65.132812 18.015625 -66.3125 C 19.835938 -71.269531 20.785156 -73.992188 20.859375 -74.484375 C 21.066406 -75.554688 21.457031 -76.269531 22.03125 -76.625 C 22.1875 -76.6875 22.523438 -76.835938 23.046875 -77.078125 C 23.566406 -77.328125 24.007812 -77.492188 24.375 -77.578125 C 24.800781 -77.679688 25.078125 -77.566406 25.203125 -77.234375 C 25.296875 -77.015625 25.257812 -76.707031 25.09375 -76.3125 C 25.019531 -76.15625 24.585938 -75.117188 23.796875 -73.203125 C 23.015625 -71.285156 22.390625 -69.875 21.921875 -68.96875 C 21.554688 -68.238281 20.6875 -65.675781 19.3125 -61.28125 C 17.945312 -56.894531 17.160156 -54.234375 16.953125 -53.296875 C 16.148438 -51.085938 15.15625 -48.472656 13.96875 -45.453125 L 11.34375 -38.9375 C 10.90625 -39.21875 12.347656 -38.46875 15.671875 -36.6875 C 18.003906 -35.425781 20.15625 -34.375 22.125 -33.53125 C 22.90625 -33.207031 25.375 -31.929688 29.53125 -29.703125 C 34.8125 -26.972656 37.710938 -25.515625 38.234375 -25.328125 C 38.984375 -25.046875 41.191406 -23.925781 44.859375 -21.96875 L 47.328125 -20.640625 C 47.597656 -20.484375 47.78125 -20.296875 47.875 -20.078125 C 48.050781 -19.617188 47.660156 -19.195312 46.703125 -18.8125 Z M 36.015625 -14.203125 "/></g></g></g><g fill="#e4e2dd" fill-opacity="1"><g transform="translate(333.183253, 97.822185)"><g><path d="M 0.859375 -0.515625 C 0.390625 -0.234375 0.0546875 -0.488281 -0.140625 -1.28125 C -0.234375 -1.4375 -0.285156 -1.582031 -0.296875 -1.71875 C -0.359375 -1.820312 -0.410156 -1.960938 -0.453125 -2.140625 C -0.503906 -2.328125 -0.566406 -2.609375 -0.640625 -2.984375 L -1.703125 -6.265625 C -1.796875 -6.640625 -1.945312 -7.289062 -2.15625 -8.21875 C -2.363281 -9.144531 -2.617188 -9.976562 -2.921875 -10.71875 C -3.421875 -12.113281 -4.078125 -14.289062 -4.890625 -17.25 L -5.59375 -19.78125 C -6.5625 -23.570312 -7.3125 -26.1875 -7.84375 -27.625 L -9.25 -32.375 C -9.769531 -34.394531 -10.125 -35.664062 -10.3125 -36.1875 C -10.882812 -37.945312 -11.546875 -40.191406 -12.296875 -42.921875 L -13.0625 -45.421875 L -13.59375 -47.296875 C -14.132812 -49.378906 -14.460938 -50.914062 -14.578125 -51.90625 C -14.660156 -52.269531 -14.9375 -53.5625 -15.40625 -55.78125 C -15.875 -58 -16.335938 -59.710938 -16.796875 -60.921875 C -17.179688 -62.378906 -17.367188 -63.53125 -17.359375 -64.375 C -17.359375 -65.226562 -17.019531 -65.863281 -16.34375 -66.28125 C -16.082031 -66.4375 -15.679688 -66.359375 -15.140625 -66.046875 C -14.609375 -65.734375 -14.007812 -65.320312 -13.34375 -64.8125 C -12.6875 -64.3125 -12.207031 -63.9375 -11.90625 -63.6875 C -10.894531 -62.957031 -8.6875 -60.953125 -5.28125 -57.671875 L -3.34375 -55.875 C -3.039062 -55.488281 -0.65625 -53.488281 3.8125 -49.875 L 7.875 -46.515625 L 11.46875 -43.734375 C 15.382812 -40.535156 17.816406 -38.632812 18.765625 -38.03125 C 23.890625 -33.65625 26.957031 -31 27.96875 -30.0625 C 29.132812 -28.9375 30.726562 -27.613281 32.75 -26.09375 C 34.769531 -24.570312 35.910156 -23.710938 36.171875 -23.515625 C 36.546875 -23.265625 36.78125 -23.0625 36.875 -22.90625 C 37 -22.695312 36.78125 -22.414062 36.21875 -22.0625 L 31.890625 -19.4375 C 31.679688 -19.3125 31.488281 -19.25 31.3125 -19.25 C 31.144531 -19.25 30.910156 -19.363281 30.609375 -19.59375 C 30.066406 -20.039062 29.222656 -20.800781 28.078125 -21.875 C 26.828125 -22.875 25.8125 -23.84375 25.03125 -24.78125 C 24.40625 -25.457031 23.59375 -26.234375 22.59375 -27.109375 C 21.601562 -27.992188 20.804688 -28.640625 20.203125 -29.046875 C 19.148438 -29.734375 18.066406 -30.585938 16.953125 -31.609375 L 14.890625 -33.4375 C 14.285156 -33.84375 13.878906 -34.070312 13.671875 -34.125 C 13.460938 -34.175781 13.203125 -34.101562 12.890625 -33.90625 C 11.816406 -33.25 11.035156 -32.738281 10.546875 -32.375 L 7.328125 -30.203125 C 6.953125 -29.898438 5.066406 -28.710938 1.671875 -26.640625 L -3.03125 -23.765625 L -3.203125 -23.671875 C -3.503906 -23.484375 -3.566406 -23.0625 -3.390625 -22.40625 L -3.0625 -21.53125 L -2.46875 -19.875 C -2.382812 -19.5 -1.8125 -17.800781 -0.75 -14.78125 C -0.363281 -13.820312 0.0664062 -12.535156 0.546875 -10.921875 C 1.066406 -9.828125 1.347656 -8.832031 1.390625 -7.9375 C 1.390625 -7.726562 1.484375 -7.296875 1.671875 -6.640625 C 1.867188 -5.984375 2.023438 -5.441406 2.140625 -5.015625 C 2.234375 -4.492188 2.460938 -3.707031 2.828125 -2.65625 C 2.796875 -2.570312 2.8125 -2.425781 2.875 -2.21875 C 2.9375 -2.019531 2.921875 -1.875 2.828125 -1.78125 C 2.742188 -1.695312 2.597656 -1.585938 2.390625 -1.453125 Z M 1.015625 -33.4375 C 1.554688 -33.914062 2.394531 -34.503906 3.53125 -35.203125 L 7.75 -37.65625 C 8.414062 -38.0625 8.644531 -38.441406 8.4375 -38.796875 C 8.269531 -39.054688 7.742188 -39.519531 6.859375 -40.1875 C 6.078125 -40.757812 4.734375 -41.914062 2.828125 -43.65625 C 1.335938 -45.070312 -0.015625 -46.257812 -1.234375 -47.21875 C -2.679688 -48.445312 -4.347656 -49.9375 -6.234375 -51.6875 C -8.117188 -53.4375 -9.296875 -54.582031 -9.765625 -55.125 C -12.203125 -57.382812 -13.550781 -58.4375 -13.8125 -58.28125 C -13.96875 -58.1875 -13.804688 -57.335938 -13.328125 -55.734375 L -12.734375 -53.75 C -12.253906 -52.144531 -11.660156 -50.125 -10.953125 -47.6875 C -10.242188 -45.257812 -9.6875 -43.1875 -9.28125 -41.46875 C -8.78125 -39.945312 -8.175781 -38.003906 -7.46875 -35.640625 C -6.769531 -33.285156 -6.34375 -31.617188 -6.1875 -30.640625 C -6.101562 -30.265625 -6.039062 -30.050781 -6 -30 C -5.789062 -29.644531 -5.484375 -29.519531 -5.078125 -29.625 C -4.679688 -29.726562 -4.320312 -29.894531 -4 -30.125 C -3.675781 -30.351562 -3.46875 -30.492188 -3.375 -30.546875 Z M 1.015625 -33.4375 "/></g></g></g></g></g></svg>