<svg xmlns="http://www.w3.org/2000/svg" xmlns:xlink="http://www.w3.org/1999/xlink" width="500" zoomAndPan="magnify" viewBox="0 0 375 374.999991" height="500" preserveAspectRatio="xMidYMid meet" version="1.2"><defs><clipPath id="9a0cf969f4"><rect x="0" width="375" y="0" height="161"/></clipPath></defs><g id="feb5f21752"><path style=" stroke:none;fill-rule:nonzero;fill:#e4e2dd;fill-opacity:1;" d="M 83.09375 198.609375 C 83.324219 198.0625 81.394531 196.339844 78.808594 194.78125 C 76.222656 193.222656 73.480469 191.195312 72.71875 190.277344 C 71.894531 189.292969 69.988281 188.5625 68.042969 188.496094 C 64.90625 188.386719 62.242188 185.964844 63.289062 184.175781 C 64.492188 182.125 63.914062 181.65625 61.535156 182.746094 C 58.941406 183.929688 54.136719 183.371094 55.933594 182.09375 C 56.414062 181.75 56.328125 181.042969 55.734375 180.523438 C 55.03125 179.90625 55.265625 179.007812 56.410156 177.910156 C 57.375 176.992188 58.335938 175.945312 58.546875 175.585938 C 59.015625 174.78125 66.558594 170.75 74.300781 167.164062 C 77.480469 165.691406 80.253906 164.082031 80.464844 163.585938 C 80.675781 163.085938 81.195312 163.171875 81.625 163.777344 C 82.054688 164.378906 82.695312 164.179688 83.054688 163.332031 C 83.410156 162.484375 85.375 161.894531 87.421875 162.023438 C 89.554688 162.160156 91.042969 161.652344 90.917969 160.839844 C 90.625 158.976562 94.269531 157.101562 95.320312 158.574219 C 95.765625 159.203125 96.035156 159.101562 95.917969 158.351562 C 95.800781 157.597656 97.324219 156.617188 99.304688 156.171875 C 101.285156 155.722656 104.003906 154.84375 105.347656 154.214844 C 106.691406 153.585938 108.160156 153.226562 108.617188 153.417969 C 109.074219 153.609375 111.457031 153.078125 113.917969 152.234375 C 116.375 151.394531 120.085938 150.417969 122.164062 150.066406 C 125.859375 149.441406 125.972656 149.5 127.128906 152.65625 C 127.777344 154.429688 127.808594 156.238281 127.195312 156.675781 C 126.515625 157.160156 126.898438 157.496094 128.179688 157.535156 C 129.429688 157.578125 129.84375 157.917969 129.199219 158.375 C 128.605469 158.800781 127.234375 158.773438 126.15625 158.320312 C 122.878906 156.941406 120.363281 157.273438 119.554688 159.191406 C 119.132812 160.191406 119.433594 161.285156 120.222656 161.617188 C 121.011719 161.949219 121.921875 161.445312 122.246094 160.5 C 122.617188 159.410156 123.480469 159.195312 124.617188 159.921875 C 125.597656 160.546875 127.328125 160.777344 128.460938 160.433594 C 130.125 159.929688 130.277344 160.066406 129.238281 161.144531 C 128.46875 161.949219 128.585938 163.085938 129.527344 163.992188 C 130.390625 164.820312 130.898438 165.011719 130.65625 164.414062 C 130.019531 162.851562 141.238281 160.960938 144.074219 162.148438 C 146.40625 163.125 146.347656 163.210938 141.296875 166.25 C 138.460938 167.957031 135.761719 169.054688 135.296875 168.6875 C 134.835938 168.324219 134.246094 168.519531 133.992188 169.125 C 133.394531 170.542969 136.898438 171.375 139.441406 170.421875 C 140.519531 170.015625 141.78125 170.214844 142.242188 170.863281 C 142.738281 171.558594 142.980469 171.414062 142.839844 170.503906 C 142.695312 169.574219 143.375 169.234375 144.5625 169.640625 C 145.644531 170.007812 147.578125 170.621094 148.863281 171.007812 C 150.652344 171.539062 150.886719 172.113281 149.863281 173.449219 C 149.128906 174.40625 147.949219 174.945312 147.246094 174.648438 C 146.539062 174.351562 145.6875 174.757812 145.355469 175.546875 C 144.726562 177.042969 148.207031 178.136719 151.121094 177.355469 C 151.960938 177.132812 152.832031 177.390625 153.050781 177.933594 C 153.859375 179.917969 152.308594 181.476562 149.878906 181.128906 C 148.214844 180.886719 147.367188 181.402344 147.324219 182.679688 C 147.292969 183.730469 146.726562 184.363281 146.066406 184.085938 C 145.410156 183.808594 145.0625 184.054688 145.296875 184.632812 C 145.535156 185.210938 147.496094 184.886719 149.65625 183.90625 C 151.816406 182.929688 155.023438 182.183594 156.78125 182.246094 C 160.621094 182.378906 164.910156 185.277344 163.136719 186.535156 C 162.378906 187.078125 162.503906 187.320312 163.460938 187.171875 C 164.316406 187.039062 164.929688 186.371094 164.824219 185.691406 C 164.652344 184.589844 165.550781 184.621094 167.519531 185.78125 C 167.882812 185.996094 168.941406 185.574219 169.878906 184.84375 C 171.027344 183.945312 171.839844 184.015625 172.382812 185.054688 C 172.90625 186.058594 174.753906 186.699219 177.691406 186.894531 C 181.226562 187.128906 182.308594 187.566406 182.722656 188.925781 C 183.007812 189.878906 182.730469 190.898438 182.101562 191.191406 C 180.636719 191.875 182.65625 191.617188 191.332031 190.003906 C 195.179688 189.285156 198.707031 189.03125 199.167969 189.4375 C 199.628906 189.84375 201.648438 189.578125 203.652344 188.847656 C 205.65625 188.121094 208.074219 187.851562 209.023438 188.253906 C 210.046875 188.683594 211.222656 188.070312 211.898438 186.753906 C 212.527344 185.527344 213.960938 184.421875 215.085938 184.292969 C 216.210938 184.167969 217.054688 183.570312 216.957031 182.96875 C 216.863281 182.363281 217.742188 181.582031 218.90625 181.230469 C 220.070312 180.875 221.355469 179.800781 221.757812 178.84375 C 222.164062 177.882812 223.710938 176.332031 225.199219 175.398438 C 226.6875 174.460938 227.761719 173.351562 227.59375 172.933594 C 227.421875 172.511719 228.371094 170.851562 229.707031 169.246094 C 231.039062 167.640625 232.703125 165.515625 233.40625 164.523438 C 234.105469 163.53125 235.03125 162.574219 235.460938 162.402344 C 235.890625 162.226562 235.992188 161.253906 235.6875 160.242188 C 235.359375 159.15625 235.886719 157.546875 236.972656 156.324219 C 237.984375 155.179688 238.871094 153.851562 238.941406 153.367188 C 239.007812 152.882812 239.832031 152.8125 240.769531 153.207031 C 242.457031 153.917969 242.941406 152.695312 242.984375 147.621094 C 242.996094 145.976562 243.515625 145.675781 245.148438 146.359375 C 246.328125 146.859375 248.316406 146.847656 249.566406 146.339844 C 251.347656 145.613281 252.667969 146.003906 255.664062 148.140625 C 257.765625 149.640625 259.726562 150.769531 260.019531 150.648438 C 260.671875 150.382812 270.257812 152.980469 275.054688 154.722656 C 276.976562 155.421875 278.355469 156.460938 278.113281 157.035156 C 277.875 157.605469 278.484375 157.742188 279.472656 157.339844 C 281.695312 156.4375 286.292969 158.242188 285.652344 159.765625 C 285.394531 160.382812 284.867188 160.441406 284.484375 159.902344 C 284.101562 159.363281 283.195312 159.539062 282.472656 160.289062 C 281.753906 161.039062 281.707031 161.570312 282.375 161.464844 C 283.042969 161.363281 283.40625 162.144531 283.179688 163.203125 C 282.800781 165.007812 282.933594 165.066406 285.289062 164.105469 C 288.609375 162.753906 294.058594 165.101562 294.585938 168.109375 C 294.96875 170.308594 295.007812 170.320312 295.199219 168.289062 C 295.371094 166.5 295.769531 166.421875 297.472656 167.832031 C 300.175781 170.074219 301.234375 172.4375 299.195312 171.679688 C 298.335938 171.363281 298.621094 172.082031 299.824219 173.273438 L 302.015625 175.445312 L 298.90625 175.746094 C 297.195312 175.914062 294.878906 175.449219 293.753906 174.71875 C 292.628906 173.988281 292.1875 173.921875 292.769531 174.574219 C 293.351562 175.226562 293.25 176.167969 292.542969 176.664062 C 291.835938 177.164062 290.945312 178.277344 290.5625 179.140625 C 290.179688 180.003906 288.738281 180.410156 287.355469 180.046875 C 284.394531 179.265625 284.082031 179.671875 285.308594 182.691406 C 286.582031 185.8125 285.792969 187.0625 283.230469 185.980469 C 282.035156 185.480469 281.152344 185.65625 281.261719 186.375 C 281.386719 187.179688 280.199219 186.925781 278.199219 185.722656 C 275.878906 184.332031 275.539062 184.285156 277.035156 185.5625 C 279.242188 187.449219 279.230469 189.507812 277.019531 189.335938 C 276.308594 189.28125 275.941406 188.722656 276.207031 188.09375 C 276.472656 187.464844 276.015625 186.667969 275.195312 186.324219 C 274.371094 185.976562 273.710938 185 273.722656 184.152344 C 273.738281 183.230469 273.402344 183.339844 272.886719 184.417969 C 272.414062 185.414062 271.527344 186.089844 270.917969 185.917969 C 268.710938 185.296875 268.050781 185.265625 265.445312 185.648438 L 262.796875 186.035156 L 265.058594 186.570312 C 266.300781 186.863281 268.273438 187.144531 269.449219 187.191406 C 274.460938 187.40625 275.140625 187.683594 274.484375 189.238281 C 274.109375 190.125 273.453125 190.355469 273.027344 189.753906 C 272.597656 189.152344 271.980469 189.292969 271.652344 190.066406 C 270.941406 191.75 265.714844 193.609375 265.207031 192.359375 C 265.011719 191.878906 264.519531 192.265625 264.117188 193.21875 C 263.707031 194.195312 262.105469 194.761719 260.472656 194.507812 C 258.601562 194.222656 257.246094 194.800781 256.683594 196.132812 C 256.089844 197.546875 255.277344 197.835938 254.128906 197.046875 C 253.191406 196.402344 252.875 195.070312 253.414062 194.039062 C 254.101562 192.734375 253.921875 192.382812 252.792969 192.84375 C 251.667969 193.300781 251.394531 194.132812 251.863281 195.6875 C 252.414062 197.507812 252.242188 197.761719 250.851562 197.175781 C 249.71875 196.699219 249.152344 197.132812 249.109375 198.503906 C 249.054688 200.117188 248.621094 200.214844 247.007812 198.976562 C 245.882812 198.113281 244.765625 197.90625 244.511719 198.511719 C 244.257812 199.117188 242.398438 200.210938 240.382812 200.945312 C 238.367188 201.675781 236.839844 201.988281 236.988281 201.640625 C 237.136719 201.289062 235.941406 201.648438 234.332031 202.441406 C 232.722656 203.234375 230.839844 203.644531 230.148438 203.355469 C 229.457031 203.0625 228.980469 203.378906 229.085938 204.058594 C 229.191406 204.734375 228.285156 205.199219 227.066406 205.089844 C 225.851562 204.976562 222.304688 205.757812 219.183594 206.820312 C 216.0625 207.886719 212.914062 208.507812 212.1875 208.203125 C 211.464844 207.898438 210.558594 208.386719 210.179688 209.292969 C 209.796875 210.195312 209.136719 210.441406 208.707031 209.839844 C 208.277344 209.238281 207.714844 209.246094 207.457031 209.863281 C 207.199219 210.476562 206.257812 210.671875 205.371094 210.296875 C 204.484375 209.925781 203.183594 210.214844 202.484375 210.945312 C 201.785156 211.671875 200.609375 212.015625 199.871094 211.707031 C 199.132812 211.394531 197.601562 211.625 196.460938 212.21875 C 195.316406 212.8125 193.585938 212.679688 192.589844 211.914062 C 191.601562 211.15625 190.945312 210.914062 191.132812 211.378906 C 191.324219 211.84375 188.832031 212.914062 185.601562 213.761719 C 179.746094 215.292969 179.714844 215.289062 178.769531 212.394531 C 177.96875 209.9375 177.707031 209.757812 177.085938 211.230469 C 176.683594 212.191406 175.851562 212.761719 175.238281 212.503906 C 174.621094 212.246094 174.578125 211.707031 175.140625 211.308594 C 175.699219 210.910156 175.804688 210.082031 175.367188 209.46875 C 174.929688 208.855469 174.351562 208.886719 174.078125 209.535156 C 173.804688 210.183594 173.113281 210.164062 172.542969 209.492188 C 171.972656 208.816406 172.113281 209.402344 172.855469 210.789062 C 173.597656 212.175781 175.132812 213.703125 176.265625 214.179688 C 177.878906 214.859375 177.320312 215.253906 173.71875 215.980469 C 171.183594 216.496094 169.113281 216.425781 169.125 215.824219 C 169.132812 215.222656 168.03125 215.429688 166.675781 216.28125 C 165.316406 217.132812 163.902344 217.40625 163.535156 216.886719 C 163.164062 216.367188 162.425781 216.253906 161.890625 216.632812 C 161.113281 217.1875 157.378906 216.808594 153.46875 215.773438 C 153.171875 215.699219 150.988281 215.628906 148.613281 215.621094 C 143.570312 215.609375 141.539062 214.960938 143.085938 213.863281 C 143.6875 213.433594 143.699219 212.878906 143.117188 212.632812 C 142.53125 212.386719 141.34375 212.738281 140.480469 213.410156 C 139.613281 214.085938 137.039062 214.117188 134.753906 213.480469 C 132.472656 212.847656 128.34375 212.492188 125.578125 212.695312 C 120.269531 213.085938 114.402344 211.277344 114.070312 209.144531 C 113.960938 208.445312 113.0625 207.847656 112.074219 207.816406 C 111.085938 207.785156 110.464844 207.3125 110.691406 206.769531 C 111.152344 205.679688 107.910156 203.945312 106.640625 204.597656 C 105.191406 205.347656 100.042969 205.667969 98.679688 205.09375 C 97.941406 204.78125 97.128906 203.246094 96.878906 201.679688 L 96.421875 198.835938 L 92.671875 200.53125 C 88.996094 202.191406 82.164062 200.816406 83.097656 198.605469 Z M 101.714844 196.886719 C 102.925781 195.625 102.789062 195.519531 100.636719 196.082031 C 99.273438 196.4375 97.910156 196.777344 97.597656 196.839844 C 97.285156 196.902344 97.773438 197.265625 98.675781 197.644531 C 99.582031 198.027344 100.949219 197.683594 101.714844 196.886719 Z M 77.664062 183.148438 C 78.421875 182.359375 78.421875 181.863281 77.667969 181.980469 C 76.945312 182.09375 76.167969 182.632812 75.9375 183.175781 C 75.300781 184.695312 76.195312 184.679688 77.664062 183.144531 Z M 119.230469 197.542969 C 123.71875 195.882812 125.019531 195.082031 123.957031 194.636719 C 123.710938 194.53125 121.046875 195.363281 118.039062 196.488281 C 115.03125 197.613281 112.996094 198.707031 113.511719 198.921875 C 114.03125 199.136719 116.601562 198.515625 119.230469 197.542969 Z M 97.476562 190.183594 C 97.273438 189.6875 96.382812 189.265625 95.492188 189.25 C 94.507812 189.230469 94.652344 189.585938 95.859375 190.15625 C 96.953125 190.667969 97.679688 190.679688 97.476562 190.183594 Z M 158.410156 208.421875 C 158.839844 207.398438 157.640625 207.390625 154.695312 208.394531 C 152.300781 209.214844 150.292969 210.003906 150.230469 210.152344 C 150.167969 210.304688 151.839844 210.316406 153.945312 210.179688 C 156.050781 210.046875 158.058594 209.253906 158.410156 208.421875 Z M 102.367188 186.867188 C 102.242188 186.085938 101.679688 185.253906 101.109375 185.015625 C 100.542969 184.773438 100.410156 185.5 100.816406 186.628906 C 101.636719 188.90625 102.710938 189.074219 102.367188 186.867188 Z M 72.136719 171.570312 C 72.378906 170.992188 72.078125 170.304688 71.460938 170.046875 C 70.847656 169.789062 70.441406 170.175781 70.554688 170.90625 C 70.667969 171.636719 70.96875 172.324219 71.226562 172.429688 C 71.480469 172.539062 71.890625 172.152344 72.136719 171.570312 Z M 103.128906 183.457031 C 103.359375 182.910156 103.195312 181.972656 102.769531 181.367188 C 102.339844 180.765625 101.675781 181.011719 101.296875 181.917969 C 100.914062 182.820312 101.078125 183.761719 101.65625 184.003906 C 102.238281 184.25 102.898438 184 103.128906 183.457031 Z M 131.269531 193.371094 C 133.523438 192.023438 133.523438 191.964844 131.25 192.582031 C 129.902344 192.953125 128.589844 193.75 128.332031 194.355469 C 128.078125 194.960938 128.085938 195.3125 128.351562 195.140625 C 128.617188 194.96875 129.933594 194.171875 131.269531 193.371094 Z M 75.046875 169.074219 C 75.652344 168.644531 75.640625 168.082031 75.027344 167.824219 C 74.414062 167.566406 73.710938 167.828125 73.46875 168.410156 C 73.222656 168.988281 73.230469 169.550781 73.488281 169.660156 C 73.742188 169.765625 74.445312 169.503906 75.046875 169.074219 Z M 101.320312 175.867188 C 101.570312 175.328125 100.6875 175.515625 99.363281 176.285156 C 98.035156 177.050781 96.75 178.117188 96.5 178.65625 C 96.253906 179.195312 97.132812 179.007812 98.460938 178.238281 C 99.785156 177.472656 101.074219 176.40625 101.320312 175.867188 Z M 109.941406 184.226562 C 111.394531 184.425781 112.898438 183.839844 113.285156 182.921875 C 113.835938 181.609375 114.148438 181.644531 114.730469 183.074219 C 115.3125 184.503906 116.347656 184.257812 119.546875 181.9375 C 121.789062 180.308594 123.339844 179.695312 122.996094 180.574219 C 122.523438 181.769531 122.867188 181.796875 124.339844 180.683594 C 125.949219 179.472656 126.386719 179.542969 126.683594 181.050781 C 126.984375 182.570312 127.121094 182.597656 127.433594 181.203125 C 127.890625 179.160156 133.375 176.257812 135.273438 177.054688 C 136.011719 177.367188 136.320312 178.335938 135.953125 179.207031 C 135.585938 180.074219 136.121094 181.128906 137.140625 181.546875 C 138.726562 182.199219 138.828125 182.0625 137.847656 180.605469 C 136.828125 179.089844 136.925781 178.859375 138.722656 178.527344 C 140.425781 178.214844 140.503906 178.054688 139.226562 177.5 C 138.148438 177.03125 138.484375 176.65625 140.398438 176.191406 C 142.585938 175.660156 142.742188 175.445312 141.242188 175.046875 C 140.230469 174.777344 138.410156 174.859375 137.195312 175.226562 C 134.332031 176.09375 131.011719 175.242188 130.710938 173.558594 C 130.582031 172.832031 129.710938 172.355469 128.773438 172.503906 C 127.542969 172.695312 127.660156 173.324219 129.1875 174.753906 C 131.210938 176.652344 131.019531 176.773438 124.804688 177.554688 C 121.230469 178.003906 117.273438 179.125 116.007812 180.046875 C 114.742188 180.972656 113.390625 181.285156 113.007812 180.742188 C 112.621094 180.199219 111.164062 180.476562 109.765625 181.355469 C 108.167969 182.359375 106.695312 182.441406 105.796875 181.578125 C 104.964844 180.78125 104.453125 180.757812 104.574219 181.523438 C 104.808594 183.023438 106.171875 183.707031 109.941406 184.226562 Z M 125.113281 188.3125 C 125.835938 187.558594 125.472656 187.070312 124.03125 186.863281 C 122.839844 186.691406 121.367188 187.0625 120.765625 187.6875 C 120.042969 188.441406 120.40625 188.933594 121.847656 189.140625 C 123.042969 189.3125 124.511719 188.9375 125.113281 188.3125 Z M 136.121094 193.550781 C 136.363281 192.96875 136.355469 192.40625 136.097656 192.300781 C 135.84375 192.191406 135.140625 192.457031 134.539062 192.882812 C 133.933594 193.3125 133.945312 193.875 134.558594 194.136719 C 135.171875 194.394531 135.875 194.128906 136.121094 193.550781 Z M 80.265625 166.074219 C 80.28125 165.089844 79.925781 165.234375 79.359375 166.441406 C 78.84375 167.535156 78.832031 168.261719 79.328125 168.058594 C 79.828125 167.855469 80.25 166.960938 80.265625 166.074219 Z M 99.246094 170.574219 C 99.128906 169.84375 98.46875 169.015625 97.773438 168.734375 C 97.015625 168.425781 96.972656 168.894531 97.664062 169.910156 C 99.136719 172.070312 99.503906 172.222656 99.246094 170.574219 Z M 152.933594 191.941406 C 153.421875 190.78125 153.640625 189.757812 153.417969 189.664062 C 153.195312 189.570312 152.367188 190.335938 151.574219 191.371094 C 150.78125 192.402344 150.566406 193.425781 151.089844 193.648438 C 151.617188 193.871094 152.445312 193.101562 152.933594 191.941406 Z M 158.300781 195.105469 C 158.539062 195.691406 158.765625 195.199219 158.800781 194.011719 C 158.839844 192.824219 158.738281 191.960938 158.574219 192.089844 C 158.410156 192.222656 157.179688 192.984375 155.839844 193.785156 C 153.648438 195.097656 153.625 195.183594 155.636719 194.640625 C 156.863281 194.3125 158.0625 194.519531 158.300781 195.105469 Z M 192.160156 206.902344 C 193.902344 206.300781 195.699219 206.335938 196.160156 206.984375 C 196.621094 207.632812 197.210938 207.660156 197.46875 207.042969 C 197.726562 206.429688 198.652344 206.226562 199.519531 206.59375 C 200.390625 206.960938 201.300781 206.785156 201.546875 206.207031 C 201.792969 205.625 201.542969 204.964844 201 204.734375 C 200.453125 204.503906 199.511719 204.667969 198.910156 205.097656 C 198.308594 205.523438 197.09375 205.574219 196.214844 205.203125 C 195.335938 204.832031 192.46875 205.410156 189.847656 206.488281 C 184.90625 208.523438 186.605469 208.828125 192.160156 206.902344 Z M 116.917969 174.292969 C 117.164062 173.714844 117.152344 173.152344 116.898438 173.042969 C 116.640625 172.933594 115.941406 173.199219 115.335938 173.628906 C 114.734375 174.054688 114.746094 174.617188 115.359375 174.878906 C 115.972656 175.136719 116.675781 174.875 116.917969 174.292969 Z M 113.589844 170.410156 C 113.832031 169.828125 113.558594 169.15625 112.980469 168.910156 C 112.398438 168.664062 111.726562 168.941406 111.480469 169.519531 C 111.238281 170.101562 111.511719 170.773438 112.089844 171.019531 C 112.671875 171.261719 113.34375 170.988281 113.589844 170.410156 Z M 171.5625 194.070312 C 171.359375 193.574219 170.464844 193.152344 169.578125 193.136719 C 168.59375 193.121094 168.738281 193.472656 169.945312 194.042969 C 171.039062 194.554688 171.765625 194.570312 171.5625 194.070312 Z M 199.300781 202.125 C 199.113281 201.664062 198.277344 202 197.445312 202.875 C 196.238281 204.136719 196.308594 204.308594 197.785156 203.710938 C 198.808594 203.300781 199.488281 202.585938 199.300781 202.125 Z M 178.265625 191.105469 C 177.660156 189.632812 177.488281 189.703125 177.429688 191.449219 C 177.386719 192.65625 177.730469 193.488281 178.191406 193.300781 C 178.652344 193.113281 178.6875 192.125 178.265625 191.105469 Z M 217.429688 198.808594 C 217.28125 197.871094 216.894531 197.765625 216.253906 198.496094 C 215.730469 199.09375 214.628906 199.300781 213.808594 198.957031 C 212.984375 198.609375 212.117188 198.789062 211.878906 199.359375 C 211.613281 199.988281 212.648438 200.355469 214.546875 200.300781 C 216.253906 200.25 217.550781 199.578125 217.429688 198.808594 Z M 231.402344 200.160156 C 231.648438 199.578125 231.015625 198.761719 229.996094 198.34375 C 228.414062 197.695312 228.3125 197.828125 229.292969 199.269531 C 230.742188 201.394531 230.863281 201.445312 231.402344 200.160156 Z M 234.769531 198.0625 C 234.972656 197.578125 236.589844 197.050781 238.367188 196.882812 C 240.144531 196.71875 241.761719 196.195312 241.960938 195.722656 C 242.375 194.738281 232.523438 195.355469 231.039062 196.410156 C 230.5 196.792969 231.035156 197.519531 232.230469 198.023438 C 233.421875 198.527344 234.566406 198.542969 234.769531 198.0625 Z M 243.066406 187.203125 C 243.160156 186.976562 242.644531 186.214844 241.914062 185.515625 C 241.183594 184.816406 240.394531 184.703125 240.15625 185.265625 C 239.921875 185.824219 240.441406 186.585938 241.308594 186.949219 C 242.179688 187.316406 242.96875 187.429688 243.066406 187.203125 Z M 247.46875 187.0625 C 248.070312 186.632812 247.796875 185.960938 246.859375 185.5625 C 245.921875 185.167969 245.246094 185.441406 245.359375 186.175781 C 245.476562 186.90625 245.75 187.578125 245.972656 187.671875 C 246.191406 187.765625 246.867188 187.492188 247.46875 187.0625 Z M 254.015625 186.335938 C 253.828125 185.875 252.839844 185.839844 251.820312 186.257812 C 250.347656 186.863281 250.417969 187.035156 252.164062 187.097656 C 253.371094 187.140625 254.203125 186.796875 254.015625 186.335938 Z M 248.59375 179.972656 C 248.796875 179.484375 248.140625 179.054688 247.128906 179.023438 C 246.121094 178.988281 244.992188 179.683594 244.621094 180.5625 C 244.074219 181.863281 244.34375 182.039062 246.082031 181.511719 C 247.257812 181.15625 248.386719 180.464844 248.59375 179.972656 Z M 242.304688 173.851562 C 243.566406 173.640625 243.855469 173.179688 243.253906 172.335938 C 242.777344 171.667969 242.191406 171.589844 241.953125 172.160156 C 241.710938 172.734375 240.59375 173.066406 239.464844 172.90625 C 238.015625 172.695312 237.867188 172.835938 238.953125 173.382812 C 239.800781 173.808594 241.308594 174.019531 242.304688 173.851562 Z M 260.632812 181.226562 C 260.910156 180.773438 261.378906 179.992188 261.675781 179.492188 C 262.523438 178.054688 264.519531 177.527344 263.941406 178.894531 C 263.300781 180.417969 265.042969 181.238281 267.355469 180.496094 C 268.308594 180.191406 270.324219 179.664062 271.832031 179.320312 C 274.273438 178.765625 274.375 178.605469 272.746094 177.882812 C 271.738281 177.4375 269.636719 177.597656 268.070312 178.234375 C 266.484375 178.878906 264.988281 178.824219 264.699219 178.105469 C 264.054688 176.53125 262.148438 176.890625 259.3125 179.117188 C 257.59375 180.46875 257.464844 180.925781 258.652344 181.425781 C 259.464844 181.769531 260.359375 181.679688 260.632812 181.226562 Z M 259.207031 178.351562 C 259.449219 177.769531 259.441406 177.207031 259.1875 177.101562 C 258.929688 176.992188 258.226562 177.253906 257.625 177.683594 C 257.023438 178.113281 257.03125 178.675781 257.644531 178.933594 C 258.261719 179.191406 258.960938 178.929688 259.207031 178.351562 Z M 277.847656 179.371094 C 277.910156 177.371094 276.273438 176.148438 275.613281 177.707031 C 275.277344 178.507812 275.789062 179.363281 277.589844 181.027344 C 277.699219 181.128906 277.8125 180.382812 277.847656 179.371094 Z M 248.582031 165.257812 C 248.8125 164.714844 248.648438 163.773438 248.21875 163.171875 C 247.789062 162.570312 247.128906 162.816406 246.746094 163.71875 C 246.367188 164.625 246.53125 165.5625 247.109375 165.808594 C 247.6875 166.050781 248.351562 165.804688 248.582031 165.257812 Z M 243.78125 161.921875 C 244.023438 161.34375 243.75 160.667969 243.167969 160.425781 C 242.589844 160.179688 241.914062 160.453125 241.671875 161.035156 C 241.425781 161.613281 241.703125 162.289062 242.28125 162.535156 C 242.863281 162.777344 243.535156 162.503906 243.78125 161.921875 Z M 255.738281 164.476562 C 255.625 163.746094 254.964844 162.917969 254.269531 162.632812 C 253.511719 162.324219 253.464844 162.796875 254.15625 163.808594 C 255.632812 165.972656 255.996094 166.125 255.738281 164.476562 Z M 264.699219 168.25 C 264.945312 167.671875 264.566406 166.914062 263.855469 166.574219 C 263.144531 166.230469 263.90625 165.976562 265.546875 166.007812 C 267.46875 166.042969 268.738281 166.578125 269.117188 167.515625 C 269.5 168.453125 270.777344 168.453125 272.722656 167.519531 C 274.382812 166.722656 275.152344 166.5625 274.433594 167.164062 C 273.089844 168.289062 273.417969 168.320312 280.742188 167.742188 C 282.96875 167.5625 283.507812 167.804688 283.097656 168.785156 C 282.683594 169.765625 282.96875 169.894531 284.332031 169.339844 C 287.027344 168.242188 285.671875 166.570312 282.175781 166.671875 C 280.113281 166.730469 279 166.308594 278.863281 165.417969 C 278.722656 164.515625 278.074219 164.25 276.894531 164.605469 C 275.679688 164.976562 274.902344 164.574219 274.375 163.296875 C 273.773438 161.839844 273.234375 161.75 271.789062 162.867188 C 270.355469 163.976562 269.625 163.859375 268.375 162.316406 C 267.421875 161.136719 266.617188 160.753906 266.363281 161.355469 C 266.128906 161.90625 266.445312 162.816406 267.066406 163.371094 C 267.683594 163.929688 266.511719 164.082031 264.453125 163.710938 C 260.113281 162.933594 257.992188 163.996094 259.515625 166.1875 C 260.964844 168.273438 264.15625 169.542969 264.699219 168.25 Z M 251.582031 155.710938 C 252.050781 155.125 252.066406 154.292969 251.621094 153.867188 C 251.175781 153.4375 250.273438 154.140625 249.617188 155.425781 C 248.460938 157.683594 249.855469 157.886719 251.582031 155.710938 Z M 266.671875 159.148438 C 267.273438 158.71875 267.265625 158.15625 266.652344 157.898438 C 266.035156 157.640625 265.335938 157.902344 265.089844 158.484375 C 264.847656 159.0625 264.855469 159.625 265.109375 159.734375 C 265.367188 159.839844 266.070312 159.578125 266.671875 159.148438 Z M 292.117188 168 C 292.183594 167.835938 291.644531 167.128906 290.917969 166.425781 C 290.117188 165.660156 289.335938 165.753906 288.953125 166.667969 C 288.566406 167.582031 289.042969 168.207031 290.152344 168.242188 C 291.160156 168.277344 292.046875 168.167969 292.117188 168 Z M 59.542969 167.769531 C 59.863281 164.273438 63.730469 156.863281 64.976562 157.367188 C 65.722656 157.671875 65.871094 157.402344 65.398438 156.613281 C 64.652344 155.367188 64.789062 153.15625 65.792969 150.28125 C 66.101562 149.386719 69.90625 143.304688 74.246094 136.765625 C 82.132812 124.878906 89.214844 115.667969 88.121094 118.71875 C 87.617188 120.121094 87.757812 120.1875 89.15625 119.214844 C 90.042969 118.597656 90.683594 117.550781 90.582031 116.886719 C 90.476562 116.222656 91.226562 116.398438 92.257812 117.277344 C 93.613281 118.429688 94.246094 118.402344 94.5625 117.175781 C 94.800781 116.242188 94.75 114.941406 94.441406 114.28125 C 94.136719 113.617188 93.976562 113.816406 94.089844 114.714844 C 94.214844 115.710938 93.683594 116.097656 92.742188 115.699219 C 91.851562 115.324219 91.652344 114.320312 92.28125 113.332031 C 92.878906 112.390625 93.878906 111.988281 94.5 112.4375 C 95.125 112.886719 95.546875 112.691406 95.441406 112.003906 C 95.207031 110.511719 99.449219 105.859375 101.3125 105.566406 C 102.03125 105.453125 103.132812 104.371094 103.753906 103.15625 C 104.375 101.945312 105.257812 101.109375 105.714844 101.300781 C 106.171875 101.492188 106.933594 100.726562 107.40625 99.601562 C 107.882812 98.472656 109.496094 97.289062 110.992188 96.964844 C 112.488281 96.640625 113.554688 95.988281 113.359375 95.511719 C 113.167969 95.03125 114.238281 94.527344 115.742188 94.386719 C 117.246094 94.246094 118.683594 93.273438 118.929688 92.226562 C 119.191406 91.136719 120.585938 90.300781 122.199219 90.269531 C 123.746094 90.242188 125.386719 89.332031 125.84375 88.246094 C 126.398438 86.929688 127.113281 86.695312 128 87.546875 C 128.902344 88.414062 129.605469 88.15625 130.199219 86.746094 C 130.789062 85.351562 131.789062 84.972656 133.253906 85.589844 C 135.003906 86.324219 135.480469 86 135.667969 83.933594 C 135.859375 81.863281 136.191406 81.640625 137.378906 82.777344 C 138.25 83.617188 138.765625 83.652344 138.644531 82.871094 C 138.53125 82.140625 139.296875 81.574219 140.347656 81.609375 C 141.394531 81.640625 142.179688 81.183594 142.085938 80.589844 C 141.925781 79.566406 148.667969 80.164062 150.179688 81.308594 C 150.566406 81.601562 151.105469 81.316406 151.378906 80.671875 C 151.648438 80.03125 152.464844 80.078125 153.195312 80.777344 C 153.925781 81.480469 154.714844 81.59375 154.949219 81.03125 C 155.1875 80.46875 156.121094 80.320312 157.023438 80.703125 C 157.929688 81.082031 158.585938 80.859375 158.480469 80.203125 C 158.289062 78.976562 162.011719 78.492188 163.488281 79.554688 C 163.945312 79.882812 165.375 79.808594 166.660156 79.386719 C 168.714844 78.710938 181.695312 78.792969 184.769531 79.496094 C 185.390625 79.640625 186.648438 79.636719 187.566406 79.488281 C 188.480469 79.339844 189.519531 79.625 189.871094 80.121094 C 190.222656 80.617188 191.910156 80.917969 193.621094 80.792969 C 200.667969 80.28125 208.074219 81.085938 209.578125 82.527344 C 210.578125 83.488281 211.101562 83.554688 210.96875 82.707031 C 210.675781 80.839844 216.296875 80.835938 220.71875 82.695312 C 222.722656 83.539062 224.515625 83.855469 224.710938 83.398438 C 224.902344 82.941406 226.039062 82.898438 227.234375 83.300781 C 229.4375 84.035156 229.476562 84.90625 227.492188 88.765625 C 226.425781 90.832031 226.816406 91.070312 240.230469 96.609375 C 250.851562 100.996094 254.132812 102.746094 254.351562 104.136719 C 254.59375 105.667969 254.824219 105.765625 255.835938 104.761719 C 256.773438 103.832031 257.117188 104.082031 257.425781 105.910156 C 257.640625 107.199219 258.703125 108.621094 259.785156 109.078125 C 260.867188 109.535156 261.714844 110.445312 261.664062 111.101562 C 261.617188 111.757812 262.835938 112.949219 264.375 113.753906 C 265.914062 114.554688 267.015625 115.585938 266.828125 116.039062 C 266.636719 116.492188 266.980469 117.074219 267.597656 117.332031 C 268.210938 117.589844 268.613281 117.179688 268.496094 116.421875 C 268.355469 115.515625 269.210938 115.714844 270.972656 117.003906 C 274.789062 119.789062 275.214844 121.304688 272.59375 122.800781 C 271.359375 123.503906 270.894531 123.910156 271.5625 123.703125 C 272.226562 123.496094 273.535156 124.265625 274.46875 125.417969 C 275.988281 127.292969 276.960938 127.992188 281.53125 130.492188 C 282.226562 130.871094 282.292969 132.367188 281.683594 133.816406 C 280.714844 136.117188 281.035156 136.648438 284.203125 137.980469 C 287.753906 139.476562 289.707031 142.78125 286.910156 142.5625 C 284.28125 142.363281 284.78125 144.089844 287.519531 144.671875 C 289.011719 144.992188 290.335938 145.90625 290.460938 146.707031 C 290.585938 147.503906 291.578125 148.535156 292.671875 148.996094 C 295.789062 150.308594 295.40625 152.578125 291.855469 153.882812 C 289.195312 154.859375 288.550781 154.738281 288.296875 153.21875 C 288.039062 151.691406 287.878906 151.617188 287.367188 152.789062 C 287.007812 153.625 286.199219 153.6875 285.421875 152.941406 C 284.695312 152.242188 283.847656 152.242188 283.539062 152.945312 C 283.191406 153.746094 282.859375 153.707031 282.652344 152.84375 C 282.46875 152.085938 280.890625 150.882812 279.140625 150.171875 C 277.394531 149.457031 274.871094 147.488281 273.539062 145.792969 C 270.898438 142.4375 268.632812 141.796875 265.496094 143.515625 C 263.675781 144.515625 263.550781 144.449219 264.230469 142.839844 C 265.050781 140.890625 261.5 138.714844 260.097656 140.3125 C 259.636719 140.839844 257.453125 140.617188 255.242188 139.820312 C 253.035156 139.023438 251.078125 138.714844 250.898438 139.140625 C 250.714844 139.5625 248.523438 138.902344 246.019531 137.671875 C 243.519531 136.441406 241.546875 135.902344 241.636719 136.46875 C 241.722656 137.039062 240.074219 136.871094 237.96875 136.097656 C 235.867188 135.324219 233.296875 134.382812 232.261719 134.003906 C 231.226562 133.625 229.480469 133.652344 228.378906 134.066406 C 227.035156 134.574219 226.113281 134.304688 225.5625 133.25 C 224.351562 130.921875 218.757812 129.597656 216.316406 131.0625 C 215.148438 131.765625 213.652344 131.871094 213 131.292969 C 212.347656 130.714844 209.925781 130.234375 207.621094 130.222656 C 202.449219 130.203125 200.472656 127.4375 204.835938 126.328125 C 208.03125 125.515625 209.765625 125.941406 208.101562 127.128906 C 207.441406 127.597656 208.113281 127.773438 209.617188 127.53125 C 211.804688 127.179688 212.519531 127.496094 213.414062 129.214844 C 214.367188 131.046875 214.523438 131.03125 214.585938 129.105469 C 214.640625 127.40625 214.988281 127.203125 216.0625 128.234375 C 216.890625 129.03125 217.992188 129.039062 218.742188 128.257812 C 219.445312 127.527344 220.816406 127.367188 221.789062 127.898438 C 225.460938 129.90625 227.289062 130.117188 227.339844 128.542969 C 227.390625 127.019531 220.59375 123.90625 218.808594 124.636719 C 218.398438 124.800781 217.386719 124.101562 216.554688 123.078125 C 215.402344 121.652344 215.035156 121.605469 214.996094 122.871094 C 214.957031 124.027344 212.765625 124.300781 207.757812 123.773438 C 203.808594 123.359375 200.386719 123.472656 200.152344 124.027344 C 199.921875 124.582031 198.410156 124.238281 196.800781 123.261719 C 194.890625 122.109375 193.457031 121.917969 192.691406 122.71875 C 191.914062 123.523438 190.839844 123.375 189.554688 122.277344 C 187.8125 120.792969 187.546875 120.945312 187.128906 123.65625 C 186.8125 125.734375 186.238281 126.527344 185.316406 126.152344 C 184.292969 125.734375 184.222656 125.964844 185.015625 127.105469 C 186.1875 128.792969 184.414062 132.136719 182.429688 131.984375 C 180.492188 131.835938 180.535156 125.691406 182.476562 125.386719 C 183.480469 125.230469 183.410156 124.605469 182.273438 123.550781 C 181.125 122.488281 179.632812 122.347656 177.828125 123.132812 C 176.332031 123.785156 174.046875 123.90625 172.746094 123.410156 C 170.488281 122.542969 170.460938 122.578125 172.140625 124.226562 C 173.105469 125.171875 174.351562 125.640625 174.902344 125.261719 C 175.488281 124.863281 176.796875 125.453125 178.035156 126.671875 C 180.328125 128.933594 180.300781 128.933594 171.753906 125.945312 C 170.722656 125.585938 169.058594 125.625 168.050781 126.035156 C 167.046875 126.445312 164.910156 126.226562 163.304688 125.550781 C 161.015625 124.585938 160.371094 124.761719 160.320312 126.359375 C 160.28125 127.5625 159.9375 127.953125 159.480469 127.3125 C 159.054688 126.714844 157.523438 126.816406 156.082031 127.539062 C 154.636719 128.261719 152.714844 128.609375 151.808594 128.316406 C 148.707031 127.300781 148.3125 127.3125 145.421875 128.503906 C 142.5625 129.683594 142.554688 129.699219 145.011719 129.691406 C 146.378906 129.691406 149.25 130.160156 151.398438 130.738281 L 155.300781 131.789062 L 151.5625 133.296875 C 149.503906 134.128906 145.554688 134.882812 142.785156 134.976562 C 140.015625 135.070312 137.386719 135.34375 136.945312 135.582031 C 136.5 135.824219 134.101562 136.242188 131.613281 136.507812 C 129.125 136.773438 126.203125 137.316406 125.121094 137.714844 C 124.039062 138.109375 122.777344 138.277344 122.316406 138.085938 C 121.855469 137.890625 119.304688 138.449219 116.648438 139.328125 C 113.988281 140.207031 111.550781 140.554688 111.230469 140.101562 C 110.90625 139.648438 109.632812 139.992188 108.394531 140.863281 C 105.824219 142.675781 104.65625 142.503906 104.800781 140.328125 C 104.859375 139.5 104.679688 139.6875 104.410156 140.742188 C 103.882812 142.789062 97.117188 146.09375 95.144531 145.265625 C 93.617188 144.625 87.097656 149.011719 86.867188 150.839844 C 86.765625 151.617188 86.480469 151.75 86.230469 151.136719 C 85.828125 150.152344 80.753906 152.511719 80.289062 153.902344 C 80.1875 154.203125 78.8125 155.019531 77.234375 155.71875 C 73.832031 157.226562 66.882812 163.410156 65.859375 165.839844 C 64.921875 168.070312 61.5 170.816406 60.292969 170.308594 C 59.773438 170.089844 59.433594 168.949219 59.542969 167.769531 Z M 97.746094 143.179688 C 98.125 142.277344 97.839844 141.628906 97.109375 141.746094 C 96.378906 141.859375 95.59375 142.398438 95.363281 142.945312 C 95.132812 143.492188 95.417969 144.136719 96 144.382812 C 96.578125 144.625 97.363281 144.085938 97.746094 143.179688 Z M 84.429688 136.480469 C 84.539062 136.222656 84.273438 135.519531 83.847656 134.917969 C 83.417969 134.316406 82.855469 134.324219 82.597656 134.941406 C 82.335938 135.554688 82.601562 136.257812 83.179688 136.5 C 83.761719 136.746094 84.324219 136.734375 84.429688 136.480469 Z M 116.234375 129.875 C 116.992188 129.085938 116.992188 128.589844 116.238281 128.707031 C 115.515625 128.820312 114.738281 129.359375 114.507812 129.902344 C 113.871094 131.421875 114.765625 131.40625 116.234375 129.875 Z M 124.730469 123.273438 C 124.902344 122.835938 124.898438 121.582031 124.714844 120.488281 C 124.457031 118.929688 124.210938 119.023438 123.570312 120.9375 C 122.84375 123.09375 123.933594 125.28125 124.730469 123.273438 Z M 140.5625 124.042969 C 140.929688 123.175781 141.042969 122.382812 140.8125 122.289062 C 140.585938 122.191406 139.828125 122.710938 139.125 123.441406 C 138.425781 124.167969 138.3125 124.960938 138.875 125.195312 C 139.4375 125.433594 140.195312 124.914062 140.5625 124.042969 Z M 134.902344 119.796875 C 135.144531 119.21875 135.136719 118.65625 134.878906 118.546875 C 134.625 118.441406 133.921875 118.703125 133.320312 119.132812 C 132.71875 119.5625 132.726562 120.125 133.339844 120.382812 C 133.953125 120.640625 134.65625 120.378906 134.902344 119.796875 Z M 145.445312 124.238281 C 145.691406 123.660156 145.441406 122.996094 144.898438 122.765625 C 144.351562 122.535156 143.410156 122.699219 142.808594 123.128906 C 142.207031 123.558594 142.453125 124.21875 143.359375 124.601562 C 144.261719 124.980469 145.199219 124.816406 145.445312 124.238281 Z M 142.386719 119.714844 C 142.753906 118.839844 140.914062 117.484375 140.125 118.046875 C 139.613281 118.410156 139.882812 119 140.730469 119.355469 C 141.574219 119.710938 142.320312 119.871094 142.386719 119.710938 Z M 184.039062 129.867188 C 184.421875 128.960938 184.125 128.316406 183.382812 128.433594 C 182.640625 128.550781 182.117188 129.199219 182.226562 129.882812 C 182.511719 131.722656 183.261719 131.71875 184.039062 129.867188 Z M 139.875 107.988281 C 140.589844 106.285156 140.40625 105.851562 139.183594 106.347656 C 138.265625 106.722656 137.617188 107.679688 137.742188 108.472656 C 138.089844 110.695312 138.800781 110.535156 139.875 107.988281 Z M 140.828125 99.214844 C 141.039062 99.191406 140.507812 98.503906 139.652344 97.679688 C 138.792969 96.859375 138.289062 96.664062 138.527344 97.25 C 138.765625 97.835938 138.054688 98.820312 136.945312 99.441406 C 135.128906 100.457031 135.203125 100.503906 137.6875 99.910156 C 139.207031 99.546875 140.621094 99.234375 140.828125 99.214844 Z M 183.320312 115.359375 C 183.921875 114.933594 183.914062 114.367188 183.300781 114.109375 C 182.683594 113.851562 181.984375 114.113281 181.738281 114.695312 C 181.496094 115.273438 181.503906 115.835938 181.757812 115.945312 C 182.015625 116.050781 182.71875 115.789062 183.320312 115.359375 Z M 162.59375 104.148438 C 162.835938 103.570312 162.058594 102.683594 160.867188 102.179688 C 159.671875 101.679688 158.789062 101.863281 158.902344 102.597656 C 159.015625 103.328125 159.792969 104.210938 160.628906 104.566406 C 161.464844 104.917969 162.347656 104.730469 162.59375 104.148438 Z M 236.878906 132.265625 C 237.636719 131.476562 237.636719 130.980469 236.882812 131.097656 C 236.160156 131.210938 235.382812 131.75 235.152344 132.296875 C 234.515625 133.8125 235.410156 133.796875 236.878906 132.265625 Z M 230.695312 129.3125 C 231.199219 128.953125 230.9375 128.378906 230.121094 128.035156 C 229.300781 127.6875 228.707031 127.90625 228.804688 128.515625 C 228.898438 129.125 229.160156 129.699219 229.378906 129.789062 C 229.601562 129.882812 230.195312 129.667969 230.695312 129.3125 Z M 171.105469 102.898438 C 172.476562 102.929688 173.140625 102.476562 172.675781 101.820312 C 172.230469 101.195312 170.679688 100.988281 169.226562 101.359375 C 166.390625 102.082031 167.265625 102.800781 171.105469 102.898438 Z M 281.964844 148.894531 C 282.785156 148.039062 282.605469 147.59375 281.425781 147.554688 C 280.453125 147.523438 279.742188 148.035156 279.84375 148.6875 C 280.101562 150.335938 280.539062 150.378906 281.964844 148.894531 Z M 280.503906 143.621094 C 280.410156 143.035156 279.757812 142.359375 279.046875 142.113281 C 278.050781 141.769531 277.996094 141.90625 278.800781 142.710938 C 279.371094 143.285156 279.25 144.445312 278.527344 145.292969 C 277.4375 146.5625 277.511719 146.644531 278.941406 145.753906 C 279.890625 145.164062 280.59375 144.203125 280.503906 143.621094 Z M 275.800781 141.890625 C 276.042969 141.308594 275.410156 140.492188 274.394531 140.074219 C 272.808594 139.425781 272.707031 139.558594 273.691406 141.003906 C 275.140625 143.125 275.257812 143.175781 275.800781 141.890625 Z M 185.960938 97.988281 C 186.644531 95.941406 183.890625 94.847656 183.054688 96.832031 C 182.820312 97.386719 183.226562 97.746094 183.957031 97.628906 C 184.691406 97.515625 185.078125 97.925781 184.816406 98.539062 C 184.558594 99.152344 184.554688 99.742188 184.808594 99.851562 C 185.0625 99.957031 185.582031 99.117188 185.960938 97.988281 Z M 221.917969 113.613281 C 222.28125 112.742188 222.109375 111.832031 221.527344 111.589844 C 220.949219 111.34375 220.175781 111.855469 219.808594 112.726562 C 219.441406 113.597656 219.617188 114.507812 220.195312 114.75 C 220.777344 114.996094 221.550781 114.484375 221.917969 113.613281 Z M 162.484375 86.722656 C 162.972656 85.566406 162.925781 84.429688 162.382812 84.199219 C 161.839844 83.96875 161.066406 84.761719 160.664062 85.957031 C 160.261719 87.15625 160.308594 88.292969 160.765625 88.484375 C 161.222656 88.675781 161.996094 87.882812 162.484375 86.722656 Z M 240.28125 120.117188 C 241.207031 120.34375 243.355469 120.558594 245.050781 120.585938 C 246.746094 120.613281 248.695312 121.171875 249.382812 121.832031 C 250.167969 122.578125 250.546875 122.457031 250.398438 121.503906 C 250.023438 119.113281 240.203125 116.878906 236.707031 118.390625 C 234.730469 119.242188 234.546875 119.675781 236.160156 119.6875 C 237.5 119.691406 239.355469 119.886719 240.28125 120.113281 Z M 192.121094 99.625 C 191.519531 99.027344 190.332031 98.527344 189.484375 98.511719 C 188.636719 98.5 189.128906 98.988281 190.578125 99.601562 C 192.027344 100.210938 192.722656 100.222656 192.121094 99.625 Z M 167.671875 87.667969 C 168.273438 87.238281 168.265625 86.675781 167.652344 86.417969 C 167.035156 86.160156 166.335938 86.421875 166.089844 87 C 165.847656 87.582031 165.855469 88.144531 166.109375 88.253906 C 166.367188 88.359375 167.070312 88.097656 167.671875 87.667969 Z M 270.011719 131.253906 C 269.808594 130.757812 268.914062 130.335938 268.027344 130.320312 C 267.042969 130.304688 267.1875 130.65625 268.394531 131.226562 C 269.488281 131.738281 270.214844 131.753906 270.011719 131.253906 Z M 174.722656 90.089844 C 174.828125 89.832031 174.566406 89.132812 174.136719 88.527344 C 173.707031 87.925781 173.144531 87.933594 172.886719 88.550781 C 172.628906 89.164062 172.890625 89.867188 173.472656 90.109375 C 174.050781 90.355469 174.613281 90.34375 174.722656 90.089844 Z M 172.472656 86.585938 C 172.839844 85.714844 172.953125 84.925781 172.722656 84.828125 C 172.496094 84.734375 171.738281 85.253906 171.035156 85.980469 C 170.335938 86.710938 170.222656 87.5 170.785156 87.738281 C 171.347656 87.972656 172.105469 87.457031 172.472656 86.585938 Z M 200.570312 98.675781 C 200.742188 97.847656 201.917969 97.824219 203.507812 98.617188 C 205.1875 99.457031 206.386719 99.394531 206.785156 98.449219 C 207.574219 96.578125 206.960938 96.328125 201.582031 96.3125 C 199.199219 96.304688 197.109375 95.960938 196.941406 95.546875 C 196.773438 95.128906 196.140625 95.304688 195.539062 95.933594 C 194.820312 96.683594 195.449219 97.59375 197.363281 98.566406 C 199.183594 99.496094 200.390625 99.539062 200.570312 98.675781 Z M 181.148438 87.5 C 183.421875 87.289062 185.554688 87.136719 185.886719 87.15625 C 186.21875 87.175781 187.707031 87.292969 189.191406 87.417969 C 190.675781 87.542969 192.050781 87.257812 192.25 86.789062 C 192.695312 85.730469 187.417969 85.097656 182.207031 85.578125 C 180.074219 85.773438 177.738281 85.6875 177.011719 85.386719 C 176.285156 85.085938 175.492188 85.3125 175.246094 85.890625 C 174.601562 87.425781 176.457031 87.929688 181.148438 87.5 Z M 212.675781 97.617188 C 214.726562 95.949219 214.71875 95.84375 212.574219 96.488281 C 211.273438 96.875 210.035156 97.613281 209.820312 98.121094 C 209.140625 99.730469 210.332031 99.523438 212.675781 97.617188 Z M 220.695312 98.824219 C 220.882812 98.378906 220.222656 97.390625 219.230469 96.628906 C 217.886719 95.601562 217.410156 95.734375 217.363281 97.144531 C 217.320312 98.496094 217.003906 98.625 216.269531 97.59375 C 215.613281 96.671875 215.316406 96.65625 215.457031 97.550781 C 215.695312 99.074219 220.136719 100.152344 220.695312 98.824219 Z M 243.644531 102.089844 C 244.394531 101.558594 244.332031 101.28125 243.492188 101.410156 C 242.710938 101.535156 242.082031 100.9375 242.09375 100.085938 C 242.109375 99.148438 241.777344 99.253906 241.257812 100.34375 C 240.285156 102.390625 241.734375 103.449219 243.644531 102.089844 Z M 249.382812 105.113281 C 248.777344 104.515625 248.652344 103.761719 249.105469 103.441406 C 249.554688 103.117188 249.238281 102.570312 248.40625 102.214844 C 247.257812 101.734375 247.027344 102.042969 247.460938 103.472656 C 247.777344 104.519531 248.585938 105.558594 249.257812 105.789062 C 250.023438 106.050781 250.070312 105.792969 249.382812 105.113281 Z M 225.386719 89.34375 C 225.898438 89.136719 225.53125 88.761719 224.566406 88.511719 C 223.605469 88.261719 222.398438 88.230469 221.886719 88.4375 C 221.378906 88.648438 221.746094 89.019531 222.707031 89.269531 C 223.671875 89.519531 224.875 89.550781 225.386719 89.34375 Z M 177.632812 130.34375 C 176.648438 128.902344 176.75 128.765625 178.332031 129.417969 C 179.351562 129.835938 179.984375 130.652344 179.738281 131.230469 C 179.199219 132.515625 179.078125 132.46875 177.632812 130.34375 Z M 189.292969 129.179688 C 189.511719 128.660156 190.804688 128.785156 192.160156 129.457031 C 193.519531 130.125 194.261719 130.9375 193.8125 131.261719 C 192.652344 132.085938 188.8125 130.320312 189.292969 129.179688 Z M 187.796875 125.003906 C 188.394531 123.378906 188.859375 122.65625 188.828125 123.394531 C 188.761719 124.886719 193.863281 126.335938 195.382812 125.257812 C 196.964844 124.128906 198.363281 125.273438 197.058594 126.632812 C 196.179688 127.546875 196.617188 128.117188 198.664062 128.726562 C 200.210938 129.183594 201.097656 129.832031 200.632812 130.160156 C 200.171875 130.492188 197.578125 129.789062 194.875 128.601562 C 192.011719 127.347656 189.574219 126.882812 189.035156 127.496094 C 187.367188 129.394531 186.683594 128.015625 187.796875 125.003906 Z M 187.796875 125.003906 "/><path style=" stroke:none;fill-rule:nonzero;fill:#1e1e1e;fill-opacity:1;" d="M 303.816406 163.84375 C 303.140625 163.558594 302.996094 163.160156 303.496094 162.957031 C 305.074219 162.316406 302.367188 156.695312 300.617188 156.96875 C 299.625 157.125 299.433594 156.902344 300.128906 156.40625 C 300.761719 155.957031 300.660156 154.992188 299.902344 154.265625 C 299.132812 153.527344 299.085938 152.542969 299.800781 152.039062 C 300.566406 151.492188 300.492188 151.222656 299.617188 151.359375 C 298.816406 151.484375 297.625 150.125 296.972656 148.339844 C 296.125 146.03125 295.578125 145.523438 295.074219 146.582031 C 294.6875 147.402344 294.390625 146.789062 294.417969 145.21875 C 294.445312 143.652344 293.90625 142.453125 293.222656 142.5625 C 291.28125 142.863281 292.128906 138.652344 295.464844 131.394531 C 297.148438 127.738281 298.414062 124.058594 298.28125 123.214844 C 298.152344 122.375 298.460938 121.859375 298.96875 122.074219 C 299.476562 122.289062 300.472656 120.613281 301.183594 118.351562 C 301.894531 116.089844 303.199219 112.03125 304.085938 109.332031 C 304.96875 106.632812 305.867188 103.882812 306.082031 103.222656 C 306.6875 101.347656 304.652344 96.574219 302.726562 95.347656 C 300.953125 94.222656 295.589844 98.382812 294.023438 102.097656 C 292.582031 105.519531 279.582031 120.101562 278.019531 120.050781 C 277.140625 120.023438 276.859375 119.691406 277.390625 119.3125 C 277.921875 118.933594 275.871094 116.574219 272.835938 114.070312 C 269.796875 111.566406 267.488281 109.097656 267.703125 108.589844 C 267.914062 108.082031 266.949219 107.558594 265.550781 107.429688 C 263.980469 107.289062 263.429688 106.902344 264.105469 106.417969 C 265.246094 105.605469 261.242188 101.847656 258.574219 101.222656 C 257.734375 101.023438 257.546875 100.507812 258.160156 100.074219 C 259.136719 99.378906 248.398438 92.347656 245.824219 91.996094 C 245.339844 91.929688 245.144531 91.402344 245.386719 90.820312 C 245.632812 90.242188 245.453125 89.671875 244.988281 89.558594 C 244.523438 89.445312 242.730469 88.6875 241 87.878906 C 238.226562 86.582031 237.878906 85.6875 238.03125 80.277344 C 238.128906 76.902344 237.835938 73.984375 237.386719 73.796875 C 236.933594 73.605469 236.875 72.707031 237.253906 71.804688 C 237.636719 70.902344 237.347656 70.253906 236.617188 70.367188 C 235.886719 70.484375 235.5 70.074219 235.761719 69.460938 C 236.382812 67.984375 233.523438 66.824219 231.976562 67.925781 C 231.308594 68.402344 229.664062 71.082031 228.316406 73.878906 C 226.972656 76.679688 225.617188 79.070312 225.304688 79.195312 C 224.992188 79.316406 221.550781 78.363281 217.652344 77.078125 C 213.757812 75.789062 210.539062 74.8125 210.496094 74.90625 C 210.457031 75.003906 208.675781 74.589844 206.542969 73.980469 C 203.238281 73.042969 200.464844 72.503906 195.929688 71.910156 C 195.445312 71.847656 194.105469 71.46875 192.957031 71.070312 C 191.808594 70.671875 189.808594 70.777344 188.515625 71.304688 C 186.84375 71.984375 186.324219 71.875 186.722656 70.925781 C 187.164062 69.882812 186.886719 69.746094 185.488281 70.316406 C 184.5 70.71875 182.601562 70.589844 181.265625 70.027344 C 179.933594 69.464844 178.628906 69.507812 178.371094 70.121094 C 178.113281 70.738281 177.496094 70.671875 177 69.976562 C 176.507812 69.28125 175.066406 69.339844 173.796875 70.101562 C 171.808594 71.292969 171.445312 71.210938 171.15625 69.488281 C 170.917969 68.039062 170.664062 67.867188 170.226562 68.867188 C 169.898438 69.621094 169.28125 69.746094 168.851562 69.144531 C 168.421875 68.542969 167.777344 68.742188 167.421875 69.589844 C 167.066406 70.4375 165.175781 71.03125 163.226562 70.90625 C 160.304688 70.722656 159.414062 70.148438 158.191406 67.667969 C 157.375 66.007812 155.53125 64.15625 154.097656 63.550781 C 151.597656 62.5 151.414062 62.6875 149.75 68.015625 C 148.519531 71.960938 147.390625 73.832031 145.867188 74.449219 C 144.6875 74.929688 144.074219 75.472656 144.5 75.652344 C 144.929688 75.832031 142.535156 76.972656 139.179688 78.183594 C 135.820312 79.398438 132.863281 80.898438 132.601562 81.519531 C 132.339844 82.140625 131.554688 82.605469 130.855469 82.550781 C 129.390625 82.4375 128.972656 86.492188 130.386719 87.089844 C 130.90625 87.308594 131.597656 86.902344 131.925781 86.1875 C 132.253906 85.46875 135.3125 84.214844 138.722656 83.394531 C 142.132812 82.578125 144.839844 81.394531 144.742188 80.769531 C 144.644531 80.144531 145.410156 80.28125 146.445312 81.074219 C 147.476562 81.867188 148.066406 83.320312 147.757812 84.304688 C 146.832031 87.230469 146.683594 88.210938 146.660156 91.460938 C 146.589844 101.640625 145.863281 107.351562 144.046875 112.085938 C 141.183594 119.539062 141.171875 119.679688 143.5625 118.246094 C 145.5 117.082031 145.722656 117.40625 146 121.828125 C 146.167969 124.503906 146.011719 127.082031 145.648438 127.558594 C 145.285156 128.03125 146.003906 128.113281 147.238281 127.738281 C 150.785156 126.664062 150.648438 128.882812 147.089844 130.1875 C 145.332031 130.832031 143.699219 131.816406 143.464844 132.375 C 143.230469 132.929688 142.726562 133.136719 142.34375 132.832031 C 141.960938 132.523438 140.328125 132.414062 138.71875 132.589844 C 136.179688 132.863281 135.882812 132.652344 136.472656 130.976562 C 138.0625 126.453125 139.472656 123.679688 140.902344 122.246094 C 141.980469 121.167969 141.9375 120.507812 140.757812 120.011719 C 139.835938 119.625 138.417969 120.285156 137.605469 121.476562 C 133.359375 127.722656 132.359375 129.898438 133 131.476562 C 133.535156 132.789062 132.921875 133.527344 130.476562 134.527344 C 127.816406 135.609375 127.058594 135.488281 126.207031 133.847656 C 124.769531 131.089844 122.265625 131.769531 121.554688 135.109375 C 121.230469 136.636719 120.074219 138.25 118.992188 138.691406 C 116.703125 139.621094 111.496094 136.625 113.242188 135.382812 C 113.988281 134.851562 113.582031 134.535156 112.089844 134.488281 C 110.820312 134.445312 110.25 134.222656 110.824219 133.988281 C 111.824219 133.582031 105.714844 122.636719 104.109375 121.960938 C 103.679688 121.78125 101.972656 119.527344 100.320312 116.949219 C 97.992188 113.328125 97.65625 111.855469 98.84375 110.433594 C 99.691406 109.421875 100.875 107.601562 101.480469 106.382812 C 102.082031 105.167969 102.847656 104.550781 103.179688 105.015625 C 103.507812 105.480469 105.160156 104.585938 106.847656 103.027344 C 108.53125 101.46875 111.550781 98.992188 113.550781 97.523438 C 115.554688 96.054688 117.214844 94.074219 117.246094 93.121094 C 117.277344 92.164062 117.617188 91.828125 118.003906 92.371094 C 119.226562 94.089844 128.253906 88.335938 128.394531 85.75 C 128.515625 83.554688 128.355469 83.511719 125.179688 84.941406 C 123.34375 85.765625 121.585938 87.039062 121.28125 87.765625 C 120.972656 88.492188 119.566406 89.339844 118.152344 89.644531 C 116.734375 89.949219 113.960938 91.464844 111.980469 93.011719 C 110.003906 94.558594 105.25 98.277344 101.421875 101.277344 C 97.59375 104.273438 93.910156 106.484375 93.242188 106.1875 C 92.570312 105.894531 90.0625 103.171875 87.667969 100.140625 C 85.273438 97.109375 82.792969 94.710938 82.152344 94.808594 C 81.515625 94.910156 81.304688 94.253906 81.683594 93.347656 C 82.414062 91.613281 76.980469 88.515625 75.304688 89.710938 C 73.617188 90.910156 74.773438 100.351562 77.332031 106.28125 C 78.753906 109.578125 79.660156 112.894531 79.34375 113.648438 C 79.027344 114.398438 79.167969 115.183594 79.652344 115.386719 C 81.082031 115.988281 80.894531 121.925781 79.4375 122.15625 C 77.292969 122.488281 76.398438 126.214844 78.144531 127.550781 C 79.378906 128.5 79.1875 128.59375 77.363281 127.933594 C 76.027344 127.453125 74.753906 127.398438 74.527344 127.816406 C 74.300781 128.234375 73.417969 129.636719 72.566406 130.9375 C 71.714844 132.234375 71.457031 133.933594 72 134.714844 C 72.714844 135.742188 72.476562 135.921875 71.128906 135.367188 C 69.988281 134.898438 68.9375 135.414062 68.386719 136.714844 C 67.898438 137.875 68.03125 139.046875 68.683594 139.324219 C 69.484375 139.660156 69.347656 140.105469 68.273438 140.699219 C 67.394531 141.183594 65.441406 143.574219 63.9375 146.015625 C 60.742188 151.183594 50.355469 175.875 50.074219 178.976562 C 49.878906 181.089844 54.414062 187.589844 55.042969 186.097656 C 55.226562 185.664062 55.664062 186.640625 56.011719 188.261719 C 56.402344 190.066406 57.53125 191.402344 58.914062 191.695312 C 60.160156 191.957031 60.996094 192.597656 60.777344 193.121094 C 60.558594 193.640625 63.757812 195.664062 67.886719 197.609375 C 72.015625 199.558594 80.6875 203.175781 87.160156 205.648438 C 93.628906 208.121094 100.472656 210.855469 102.367188 211.730469 C 104.261719 212.601562 105.738281 212.867188 105.652344 212.316406 C 105.566406 211.761719 107.960938 212.296875 110.976562 213.496094 C 113.988281 214.699219 118.726562 216.261719 121.5 216.96875 C 124.273438 217.675781 127.265625 218.53125 128.152344 218.867188 C 129.484375 219.371094 137.671875 221.210938 149.132812 223.582031 C 158.789062 225.578125 173.269531 226.699219 173.78125 225.488281 C 173.964844 225.050781 174.953125 225.023438 175.976562 225.433594 C 178.660156 226.507812 197.078125 225.0625 200.691406 223.492188 C 201.109375 223.3125 203.679688 223.003906 206.402344 222.804688 C 209.125 222.605469 211.84375 221.933594 212.441406 221.3125 C 213.039062 220.6875 214.238281 220.480469 215.109375 220.84375 C 216.703125 221.515625 225.566406 219.558594 231.402344 217.25 C 233.136719 216.5625 235.925781 215.738281 237.597656 215.417969 C 242.707031 214.441406 283.445312 197.980469 283.996094 196.671875 C 284.28125 195.996094 284.882812 195.601562 285.339844 195.792969 C 286.199219 196.15625 292.652344 191.742188 292.332031 191.007812 C 292.234375 190.78125 293.734375 189.582031 295.667969 188.347656 C 297.601562 187.113281 300.4375 184.832031 301.964844 183.28125 C 303.496094 181.726562 305.636719 180.1875 306.726562 179.859375 C 307.816406 179.527344 309.007812 178.546875 309.371094 177.679688 C 310.144531 175.847656 305.632812 164.609375 303.816406 163.84375 Z M 239.210938 96.332031 C 240.582031 96.460938 242.066406 97.066406 242.507812 97.6875 C 242.949219 98.304688 244.511719 99.574219 245.988281 100.503906 C 249.890625 102.976562 258.449219 110.230469 260.839844 113.09375 C 261.976562 114.453125 263.328125 115.746094 263.851562 115.972656 C 265.902344 116.851562 273.644531 126.914062 273.15625 128.070312 C 272.871094 128.746094 271.257812 130.882812 269.570312 132.820312 C 267.882812 134.753906 266.234375 137 265.914062 137.816406 C 265.570312 138.683594 263.96875 138.875 262.027344 138.285156 C 260.210938 137.730469 257.195312 136.933594 255.324219 136.511719 C 253.453125 136.089844 249.4375 135.007812 246.402344 134.109375 C 243.367188 133.214844 239.804688 132.382812 238.492188 132.261719 C 234.722656 131.917969 232.191406 130.890625 231.996094 129.621094 C 231.894531 128.976562 232.421875 124.402344 233.171875 119.457031 C 233.917969 114.507812 234.734375 108.589844 234.988281 106.308594 C 235.960938 97.492188 236.550781 96.089844 239.210938 96.332031 Z M 246.140625 140.800781 C 245.238281 140.421875 244.699219 139.632812 244.941406 139.054688 C 245.1875 138.472656 245.832031 138.1875 246.378906 138.417969 C 246.925781 138.648438 247.464844 139.433594 247.578125 140.164062 C 247.691406 140.894531 247.046875 141.183594 246.140625 140.800781 Z M 232.011719 149.128906 C 231.644531 149.996094 231.15625 150.628906 230.929688 150.535156 C 230.703125 150.4375 230.542969 149.535156 230.574219 148.523438 C 230.605469 147.511719 231.09375 146.878906 231.65625 147.117188 C 232.214844 147.351562 232.375 148.257812 232.011719 149.128906 Z M 214.695312 143.078125 C 215.121094 143.679688 215.386719 144.382812 215.277344 144.636719 C 215.171875 144.894531 214.605469 144.902344 214.027344 144.660156 C 213.449219 144.414062 213.183594 143.710938 213.441406 143.097656 C 213.703125 142.484375 214.265625 142.472656 214.695312 143.078125 Z M 194.472656 185.203125 C 195.476562 185.25 197.570312 184.917969 199.125 184.46875 C 200.996094 183.925781 200.933594 184.160156 198.945312 185.175781 C 197.292969 186.015625 195.195312 186.347656 194.292969 185.910156 C 192.894531 185.238281 192.921875 185.132812 194.472656 185.203125 Z M 202.636719 156.074219 C 204.082031 154.1875 206.363281 154.015625 205.589844 155.851562 C 205.375 156.359375 204.289062 157.054688 203.175781 157.390625 C 201.515625 157.894531 201.421875 157.65625 202.636719 156.074219 Z M 164.566406 87.464844 C 162.765625 81.253906 162.382812 76.199219 163.871094 78.289062 C 164.328125 78.929688 166.160156 78.800781 167.941406 78 C 169.9375 77.101562 171.144531 77.082031 171.078125 77.945312 C 171.019531 78.71875 171.433594 79.542969 172 79.78125 C 172.5625 80.019531 172.917969 79.515625 172.785156 78.660156 C 172.625 77.636719 173.011719 77.558594 173.925781 78.4375 C 174.6875 79.167969 176.46875 79.472656 177.882812 79.109375 C 179.292969 78.75 181.332031 78.808594 182.40625 79.238281 C 183.480469 79.667969 185.75 79.351562 187.453125 78.53125 C 189.15625 77.710938 189.996094 77.507812 189.324219 78.078125 C 188.648438 78.648438 188.601562 79.324219 189.214844 79.582031 C 189.828125 79.839844 190.550781 79.527344 190.820312 78.886719 C 191.09375 78.242188 191.886719 78.265625 192.582031 78.9375 C 193.28125 79.605469 194.320312 79.6875 194.894531 79.113281 C 195.609375 78.398438 195.773438 78.53125 195.414062 79.542969 C 195.003906 80.699219 195.648438 80.878906 198.421875 80.371094 C 200.359375 80.015625 201.410156 80.109375 200.746094 80.578125 C 199.976562 81.125 200.546875 81.761719 202.332031 82.34375 C 203.867188 82.847656 205.261719 82.921875 205.4375 82.511719 C 205.609375 82.097656 206.429688 81.808594 207.257812 81.867188 C 208.089844 81.925781 207.507812 81.644531 205.964844 81.25 C 203.507812 80.613281 203.460938 80.484375 205.5625 80.171875 C 206.882812 79.980469 208.628906 80.472656 209.449219 81.265625 C 210.269531 82.0625 213.445312 84.054688 216.511719 85.691406 C 219.578125 87.332031 222.136719 88.796875 222.199219 88.949219 C 222.261719 89.101562 219.375 96.917969 215.78125 106.316406 C 212.1875 115.714844 209.023438 124.566406 208.746094 125.984375 C 208.339844 128.082031 207.78125 128.371094 205.78125 127.53125 C 204.429688 126.960938 202.699219 127.140625 201.941406 127.925781 C 200.929688 128.984375 199.820312 128.855469 197.726562 127.4375 C 195.40625 125.863281 194.875 125.863281 194.824219 127.449219 C 194.773438 129.085938 194.492188 129.050781 193.023438 127.238281 C 191.550781 125.421875 191.273438 125.394531 191.222656 127.050781 C 191.179688 128.3125 190.679688 128.703125 189.800781 128.144531 C 187.886719 126.925781 181.726562 127.023438 181.195312 128.28125 C 180.953125 128.855469 180.15625 128.753906 179.429688 128.054688 C 178.613281 127.273438 177.847656 127.390625 177.4375 128.363281 C 176.125 131.476562 170.398438 128.96875 170.898438 125.5 C 171.054688 124.40625 171.332031 123.28125 171.511719 123 C 171.691406 122.71875 171.296875 121.007812 170.632812 119.195312 C 169.96875 117.382812 169.304688 114.324219 169.160156 112.398438 C 168.488281 103.414062 166.496094 94.839844 165.140625 95.050781 C 164.234375 95.195312 164.171875 94.921875 164.980469 94.347656 C 165.75 93.800781 165.578125 90.945312 164.566406 87.464844 Z M 197.597656 132.253906 C 199.066406 131.90625 200.402344 131.9375 200.558594 132.328125 C 200.71875 132.71875 199.964844 133.183594 198.882812 133.363281 C 195.738281 133.890625 194.652344 132.953125 197.597656 132.253906 Z M 173.703125 187.34375 C 173.476562 187.890625 172.8125 188.136719 172.230469 187.894531 C 171.652344 187.648438 171.488281 186.710938 171.871094 185.804688 C 172.25 184.902344 172.914062 184.652344 173.34375 185.257812 C 173.773438 185.859375 173.933594 186.800781 173.703125 187.34375 Z M 174.484375 164.859375 C 174.40625 165.042969 173.917969 165.015625 173.398438 164.796875 C 172.863281 164.570312 173.722656 162.660156 175.394531 160.359375 C 177.011719 158.140625 179.035156 155.03125 179.890625 153.457031 C 180.746094 151.882812 182.183594 150.292969 183.082031 149.925781 C 184.265625 149.445312 184.28125 149.910156 183.144531 151.609375 C 179.898438 156.460938 174.617188 164.539062 174.484375 164.859375 Z M 172.054688 167.675781 C 171.542969 168.898438 170.519531 169.992188 169.785156 170.105469 C 169.023438 170.226562 168.980469 169.457031 169.683594 168.304688 C 171.421875 165.472656 173.179688 165.003906 172.054688 167.675781 Z M 158.785156 149.191406 C 159.800781 148.128906 160.464844 146.851562 160.261719 146.355469 C 159.671875 144.910156 161.703125 146.136719 162.964844 147.988281 C 163.609375 148.929688 163.574219 149.457031 162.890625 149.179688 C 162.214844 148.90625 161.527344 149.621094 161.363281 150.769531 C 161.152344 152.25 160.460938 152.609375 159.003906 151.992188 C 157.320312 151.285156 157.28125 150.769531 158.785156 149.191406 Z M 156.5625 156.128906 C 156.066406 156.332031 156.078125 155.601562 156.589844 154.511719 C 157.160156 153.304688 157.515625 153.160156 157.496094 154.140625 C 157.480469 155.03125 157.058594 155.925781 156.5625 156.128906 Z M 147.367188 176.179688 C 147.125 176.761719 146.714844 177.148438 146.457031 177.039062 C 146.203125 176.933594 145.902344 176.246094 145.785156 175.515625 C 145.671875 174.785156 146.082031 174.398438 146.695312 174.65625 C 147.308594 174.914062 147.613281 175.601562 147.367188 176.179688 Z M 155.195312 166.441406 C 155.625 167.042969 155.886719 167.746094 155.777344 168 C 155.671875 168.257812 155.109375 168.265625 154.527344 168.023438 C 153.949219 167.777344 153.683594 167.074219 153.945312 166.460938 C 154.203125 165.847656 154.765625 165.839844 155.195312 166.441406 Z M 164.984375 144.667969 C 163.035156 145.460938 162.820312 145.378906 163.386719 144.039062 C 163.742188 143.191406 164.863281 142.523438 165.875 142.554688 C 166.882812 142.585938 167.601562 142.871094 167.472656 143.183594 C 167.339844 143.496094 166.21875 144.164062 164.984375 144.667969 Z M 63.011719 166.164062 C 62.984375 167.007812 62.222656 167.816406 61.316406 167.957031 C 60.167969 168.136719 60.097656 167.769531 61.082031 166.742188 C 61.859375 165.933594 62.101562 165.105469 61.621094 164.902344 C 59.800781 164.136719 70.210938 145.214844 75.484375 139.703125 C 77.335938 137.769531 78.539062 135.980469 80.875 131.691406 C 82.019531 129.589844 83.351562 127.707031 83.839844 127.511719 C 84.796875 127.121094 88.785156 134.210938 88.246094 135.34375 C 88.070312 135.71875 88.796875 137.605469 89.867188 139.535156 C 93.128906 145.429688 92.832031 147.773438 88.5 150.285156 C 86.421875 151.492188 82.457031 153.367188 79.6875 154.457031 C 76.878906 155.558594 74.757812 157.097656 74.886719 157.933594 C 75.015625 158.757812 74.257812 159.40625 73.207031 159.371094 C 72.152344 159.335938 71.105469 159.753906 70.875 160.296875 C 70.644531 160.839844 68.792969 162.039062 66.757812 162.957031 C 64.726562 163.878906 63.039062 165.320312 63.011719 166.164062 Z M 175.519531 221.359375 C 174.070312 220.75 173.578125 220.261719 174.425781 220.273438 C 175.273438 220.285156 176.460938 220.785156 177.0625 221.382812 C 177.664062 221.980469 176.96875 221.972656 175.519531 221.359375 Z M 185.800781 221.753906 C 184.121094 221.828125 182.882812 221.570312 183.042969 221.183594 C 183.527344 220.039062 188.53125 219.554688 188.699219 220.632812 C 188.785156 221.179688 187.480469 221.683594 185.800781 221.753906 Z M 244.972656 205.316406 C 243.960938 205.285156 243.308594 204.847656 243.519531 204.347656 C 243.730469 203.847656 244.726562 203.46875 245.738281 203.5 C 246.75 203.53125 247.402344 203.96875 247.191406 204.46875 C 246.984375 204.96875 245.984375 205.347656 244.972656 205.316406 Z M 276.601562 194.441406 C 271.679688 196.414062 266.984375 198.71875 266.167969 199.566406 C 265.355469 200.414062 264.53125 200.726562 264.339844 200.257812 C 263.996094 199.414062 257.371094 201.246094 252.714844 203.472656 C 251.386719 204.105469 249.859375 204.441406 249.324219 204.21875 C 248.789062 203.992188 250.054688 203.1875 252.140625 202.429688 C 254.222656 201.671875 255.785156 200.703125 255.613281 200.28125 C 255.441406 199.859375 256.34375 199.605469 257.617188 199.722656 C 258.890625 199.839844 265.535156 197.492188 272.382812 194.503906 C 279.226562 191.515625 284.992188 189.472656 285.191406 189.964844 C 285.394531 190.457031 281.527344 192.472656 276.601562 194.441406 Z M 296.902344 177.496094 C 295.550781 178.742188 294.039062 179.59375 293.539062 179.382812 C 293.042969 179.175781 291.148438 180.332031 289.324219 181.953125 C 287.5 183.574219 285.441406 184.664062 284.746094 184.371094 C 284.050781 184.078125 282.25 184.664062 280.75 185.675781 C 279.246094 186.683594 273.570312 189.324219 268.132812 191.539062 C 261.984375 194.042969 258.320312 196.179688 258.4375 197.195312 C 258.578125 198.40625 258.425781 198.386719 257.84375 197.113281 C 257.257812 195.824219 255.359375 196.023438 250.183594 197.921875 C 246.402344 199.308594 242.921875 200.28125 242.453125 200.082031 C 241.980469 199.882812 241.691406 200.320312 241.804688 201.050781 C 241.917969 201.78125 241.578125 202.195312 241.050781 201.972656 C 240.519531 201.75 238.445312 202.132812 236.441406 202.828125 C 231.199219 204.632812 221.101562 207.539062 217.613281 208.246094 C 215.96875 208.574219 208.148438 210.171875 200.234375 211.789062 C 192.320312 213.40625 185.222656 214.46875 184.460938 214.148438 C 183.703125 213.828125 181.785156 213.847656 180.199219 214.1875 C 175.289062 215.246094 156.835938 216.171875 155.109375 215.445312 C 154.207031 215.066406 153.261719 215.25 153.007812 215.855469 C 152.753906 216.460938 151.992188 216.613281 151.316406 216.191406 C 150.640625 215.765625 149.253906 215.40625 148.238281 215.390625 C 144.5625 215.328125 126.953125 211.3125 122.507812 209.523438 C 120.007812 208.515625 117.785156 208.109375 117.566406 208.621094 C 117.351562 209.132812 116.828125 209.058594 116.398438 208.457031 C 115.109375 206.644531 95.964844 197.777344 94.234375 198.1875 C 92.4375 198.617188 74.621094 192.042969 74.097656 190.753906 C 73.914062 190.304688 72.917969 189.371094 71.882812 188.679688 C 70.851562 187.984375 68.570312 185.894531 66.816406 184.035156 C 65.0625 182.171875 62.589844 180.210938 61.320312 179.675781 C 59.152344 178.761719 59.167969 178.632812 61.570312 177.511719 C 62.980469 176.855469 64.363281 175.761719 64.648438 175.082031 C 64.933594 174.402344 65.554688 174.007812 66.019531 174.207031 C 66.488281 174.402344 68.496094 173.03125 70.484375 171.15625 C 74.640625 167.230469 80.464844 164.132812 93.085938 159.144531 C 98 157.203125 102.082031 155.1875 102.152344 154.667969 C 102.222656 154.144531 103.578125 153.917969 105.160156 154.164062 C 106.742188 154.40625 108.285156 154.011719 108.589844 153.289062 C 109.054688 152.179688 121.4375 149.121094 122.921875 149.746094 C 123.191406 149.859375 124.503906 153.789062 125.839844 158.476562 C 127.75 165.179688 129.578125 168.523438 134.402344 174.136719 C 140.019531 180.664062 141.429688 181.683594 150.960938 186.109375 C 158.539062 189.625 161.757812 190.679688 162.757812 189.964844 C 163.789062 189.234375 164.367188 189.4375 165.066406 190.78125 C 168.039062 196.496094 196.046875 194.539062 208.972656 187.714844 C 212.164062 186.03125 218.046875 181.871094 222.042969 178.476562 C 226.039062 175.082031 230.054688 171.894531 230.964844 171.394531 C 231.898438 170.882812 234.734375 165.3125 237.488281 158.574219 C 241.097656 149.742188 242.71875 146.765625 243.734375 147.082031 C 246.117188 147.816406 246.769531 147.882812 248.585938 147.578125 C 251.167969 147.144531 281.113281 159.300781 280.578125 160.5625 C 280.332031 161.148438 281.457031 161.796875 283.171875 162.0625 C 284.835938 162.316406 286.5625 163.1875 287.011719 163.996094 C 287.460938 164.804688 288.625 165.890625 289.601562 166.410156 C 290.578125 166.929688 292.285156 167.847656 293.398438 168.445312 C 294.511719 169.042969 295.265625 169.90625 295.074219 170.363281 C 294.882812 170.820312 295.316406 171.449219 296.039062 171.761719 C 299.152344 173.117188 299.457031 175.144531 296.902344 177.496094 Z M 296.902344 177.496094 "/><g transform="matrix(1,0,0,1,0,165)"><g clip-path="url(#9a0cf969f4)"><g style="fill:#000000;fill-opacity:1;"><g transform="translate(5.359339, 82.16297)"><path style="stroke:none" d="M 0.875 0.484375 C 0.394531 0.222656 0.457031 -0.1875 1.0625 -0.75 C 1.144531 -0.914062 1.242188 -1.035156 1.359375 -1.109375 C 1.421875 -1.210938 1.515625 -1.328125 1.640625 -1.453125 C 1.773438 -1.585938 1.988281 -1.78125 2.28125 -2.03125 L 4.625 -4.546875 C 4.90625 -4.816406 5.394531 -5.269531 6.09375 -5.90625 C 6.800781 -6.550781 7.40625 -7.1875 7.90625 -7.8125 C 8.875 -8.925781 10.445312 -10.5625 12.625 -12.71875 L 14.484375 -14.578125 C 17.316406 -17.285156 19.226562 -19.222656 20.21875 -20.390625 L 23.671875 -23.953125 C 25.179688 -25.398438 26.113281 -26.328125 26.46875 -26.734375 C 27.726562 -28.097656 29.359375 -29.78125 31.359375 -31.78125 L 33.15625 -33.671875 L 34.546875 -35.0625 C 36.078125 -36.550781 37.25 -37.585938 38.0625 -38.171875 C 38.34375 -38.421875 39.332031 -39.296875 41.03125 -40.796875 C 42.738281 -42.296875 44.003906 -43.539062 44.828125 -44.53125 C 45.910156 -45.582031 46.820312 -46.316406 47.5625 -46.734375 C 48.3125 -47.148438 49.03125 -47.164062 49.71875 -46.78125 C 49.988281 -46.632812 50.117188 -46.25 50.109375 -45.625 C 50.097656 -45 50.035156 -44.269531 49.921875 -43.4375 C 49.804688 -42.613281 49.710938 -42.015625 49.640625 -41.640625 C 49.503906 -40.398438 48.84375 -37.492188 47.65625 -32.921875 L 47.046875 -30.328125 C 46.859375 -29.878906 46.28125 -26.820312 45.3125 -21.15625 L 44.390625 -15.96875 L 43.71875 -11.46875 C 42.875 -6.488281 42.414062 -3.4375 42.34375 -2.3125 C 41.050781 4.300781 40.238281 8.273438 39.90625 9.609375 C 39.5 11.179688 39.128906 13.21875 38.796875 15.71875 C 38.472656 18.226562 38.289062 19.644531 38.25 19.96875 C 38.207031 20.414062 38.140625 20.722656 38.046875 20.890625 C 37.929688 21.097656 37.582031 21.039062 37 20.71875 L 32.578125 18.25 C 32.367188 18.132812 32.21875 18 32.125 17.84375 C 32.039062 17.6875 32.03125 17.425781 32.09375 17.0625 C 32.21875 16.351562 32.460938 15.242188 32.828125 13.734375 C 33.097656 12.148438 33.445312 10.785156 33.875 9.640625 C 34.15625 8.765625 34.4375 7.679688 34.71875 6.390625 C 35 5.097656 35.171875 4.085938 35.234375 3.359375 C 35.304688 2.097656 35.515625 0.726562 35.859375 -0.75 L 36.421875 -3.421875 C 36.492188 -4.160156 36.5 -4.628906 36.4375 -4.828125 C 36.382812 -5.035156 36.195312 -5.226562 35.875 -5.40625 C 34.78125 -6.019531 33.953125 -6.445312 33.390625 -6.6875 L 29.90625 -8.4375 C 29.457031 -8.601562 27.492188 -9.660156 24.015625 -11.609375 L 19.203125 -14.3125 L 19.046875 -14.390625 C 18.734375 -14.566406 18.332031 -14.414062 17.84375 -13.9375 L 17.265625 -13.234375 L 16.109375 -11.90625 C 15.816406 -11.644531 14.613281 -10.316406 12.5 -7.921875 C 11.851562 -7.109375 10.953125 -6.09375 9.796875 -4.875 C 9.085938 -3.882812 8.363281 -3.15625 7.625 -2.6875 C 7.425781 -2.582031 7.082031 -2.285156 6.59375 -1.796875 C 6.113281 -1.304688 5.722656 -0.90625 5.421875 -0.59375 C 5.015625 -0.257812 4.441406 0.320312 3.703125 1.15625 C 3.617188 1.175781 3.5 1.257812 3.34375 1.40625 C 3.195312 1.5625 3.0625 1.625 2.9375 1.59375 C 2.820312 1.5625 2.65625 1.484375 2.4375 1.359375 Z M 29.640625 -15.53125 C 30.316406 -15.289062 31.238281 -14.847656 32.40625 -14.203125 L 36.625 -11.71875 C 37.300781 -11.332031 37.738281 -11.320312 37.9375 -11.6875 C 38.082031 -11.957031 38.234375 -12.644531 38.390625 -13.75 C 38.503906 -14.707031 38.851562 -16.445312 39.4375 -18.96875 C 39.925781 -20.957031 40.289062 -22.722656 40.53125 -24.265625 C 40.882812 -26.128906 41.363281 -28.304688 41.96875 -30.796875 C 42.570312 -33.296875 43 -34.890625 43.25 -35.578125 C 44.019531 -38.804688 44.273438 -40.492188 44.015625 -40.640625 C 43.859375 -40.734375 43.191406 -40.175781 42.015625 -38.96875 L 40.578125 -37.46875 C 39.421875 -36.257812 37.953125 -34.753906 36.171875 -32.953125 C 34.398438 -31.148438 32.867188 -29.644531 31.578125 -28.4375 C 30.492188 -27.25 29.09375 -25.769531 27.375 -24 C 25.664062 -22.226562 24.429688 -21.035156 23.671875 -20.421875 C 23.378906 -20.171875 23.21875 -20.015625 23.1875 -19.953125 C 22.988281 -19.585938 23.03125 -19.253906 23.3125 -18.953125 C 23.601562 -18.660156 23.925781 -18.429688 24.28125 -18.265625 C 24.632812 -18.097656 24.863281 -17.988281 24.96875 -17.9375 Z M 29.640625 -15.53125 "/></g></g><g style="fill:#000000;fill-opacity:1;"><g transform="translate(46.653803, 105.73915)"><path style="stroke:none" d="M 7.40625 3.734375 C 6.550781 3.429688 6.035156 3.078125 5.859375 2.671875 C 5.691406 2.265625 5.644531 1.847656 5.71875 1.421875 C 5.800781 1.003906 5.851562 0.703125 5.875 0.515625 C 5.988281 -0.585938 6.304688 -1.878906 6.828125 -3.359375 C 7.296875 -4.722656 7.734375 -5.875 8.140625 -6.8125 C 9.171875 -9.769531 10.429688 -13.207031 11.921875 -17.125 C 13.421875 -21.050781 14.554688 -23.832031 15.328125 -25.46875 L 17.890625 -31.375 C 21.867188 -40.59375 24.066406 -45.800781 24.484375 -47 C 26.054688 -51.5 27.316406 -54.820312 28.265625 -56.96875 C 28.921875 -58.476562 29.992188 -58.972656 31.484375 -58.453125 C 31.929688 -58.296875 32.34375 -58.113281 32.71875 -57.90625 C 33.101562 -57.707031 33.40625 -57.570312 33.625 -57.5 L 40.921875 -55.046875 C 42.160156 -54.609375 43.035156 -54.15625 43.546875 -53.6875 C 44.054688 -53.226562 44.367188 -52.625 44.484375 -51.875 C 44.628906 -50.476562 44.804688 -48.695312 45.015625 -46.53125 L 45.78125 -38.59375 L 46.71875 -28.390625 C 46.894531 -26.523438 47.117188 -24.078125 47.390625 -21.046875 C 47.671875 -18.015625 47.898438 -15.898438 48.078125 -14.703125 C 48.335938 -12.367188 48.53125 -10.925781 48.65625 -10.375 L 49.40625 -4.84375 L 50.21875 1.28125 L 51.796875 -3.71875 L 54.375 -12.203125 L 55.265625 -14.75 C 56.359375 -17.882812 57.523438 -21.03125 58.765625 -24.1875 C 59.597656 -26.582031 60.238281 -28.523438 60.6875 -30.015625 L 62.890625 -36.53125 L 66.09375 -44.59375 C 66.394531 -45.457031 66.972656 -45.738281 67.828125 -45.4375 C 68.097656 -45.34375 68.632812 -45.0625 69.4375 -44.59375 C 69.90625 -44.289062 70.421875 -44.039062 70.984375 -43.84375 C 71.554688 -43.644531 72.015625 -43.484375 72.359375 -43.359375 C 72.816406 -43.203125 73.097656 -43.039062 73.203125 -42.875 C 73.304688 -42.71875 73.304688 -42.492188 73.203125 -42.203125 C 73.117188 -41.972656 73 -41.726562 72.84375 -41.46875 C 72.6875 -41.207031 72.550781 -40.90625 72.4375 -40.5625 L 69.796875 -33.265625 L 63.578125 -16.078125 L 62.625 -13.640625 C 61.945312 -11.703125 61.359375 -9.925781 60.859375 -8.3125 C 60.359375 -6.695312 59.960938 -5.367188 59.671875 -4.328125 C 58.972656 -1.816406 58.335938 0.265625 57.765625 1.921875 C 57.847656 1.691406 56.75 5.097656 54.46875 12.140625 L 52.96875 16.984375 L 52.90625 17.171875 C 52.5 18.304688 51.773438 18.628906 50.734375 18.140625 C 50.585938 18.015625 50.257812 17.863281 49.75 17.6875 L 47.25 16.921875 L 46.734375 16.734375 C 46.335938 16.597656 46.066406 16.40625 45.921875 16.15625 C 45.785156 15.914062 45.632812 15.316406 45.46875 14.359375 C 45.425781 13.898438 45.394531 13.25 45.375 12.40625 C 45.351562 11.570312 45.296875 10.632812 45.203125 9.59375 C 44.910156 2.59375 44.613281 -2.207031 44.3125 -4.8125 C 43.894531 -7.644531 43.140625 -15.609375 42.046875 -28.703125 C 41.710938 -31.429688 41.289062 -34.351562 40.78125 -37.46875 L 39.875 -42.765625 L 37.296875 -34.5625 L 35.609375 -29.5 C 34.410156 -25.707031 33.601562 -23.210938 33.1875 -22.015625 C 31.550781 -17.359375 29.992188 -12.632812 28.515625 -7.84375 L 26.25 -1.15625 C 25.832031 0.0390625 25.289062 1.796875 24.625 4.109375 L 23.75 7.171875 L 23.6875 7.328125 C 23.488281 7.898438 23.210938 8.222656 22.859375 8.296875 C 22.515625 8.367188 22.085938 8.3125 21.578125 8.125 L 19.65625 7.5625 C 18.414062 7.3125 17.113281 6.945312 15.75 6.46875 C 14.15625 5.914062 12.835938 5.484375 11.796875 5.171875 Z M 7.40625 3.734375 "/></g></g><g style="fill:#000000;fill-opacity:1;"><g transform="translate(109.006893, 126.336413)"><path style="stroke:none" d="M 46.6875 -46.765625 C 46.519531 -46.179688 46.144531 -43.675781 45.5625 -39.25 C 44.6875 -31.9375 43.867188 -25.925781 43.109375 -21.21875 L 42.21875 -15.78125 C 40.851562 -8.125 38.125 -2.867188 34.03125 -0.015625 C 29.945312 2.828125 25.398438 3.84375 20.390625 3.03125 C 16.585938 2.414062 13.726562 0.660156 11.8125 -2.234375 C 9.90625 -5.140625 8.722656 -8.222656 8.265625 -11.484375 C 8.078125 -12.921875 8.113281 -15.097656 8.375 -18.015625 C 8.632812 -20.941406 9.007812 -23.921875 9.5 -26.953125 C 10.050781 -30.347656 10.503906 -32.59375 10.859375 -33.6875 C 11.109375 -34.507812 11.613281 -37.269531 12.375 -41.96875 C 13.59375 -49.46875 14.351562 -54.898438 14.65625 -58.265625 C 14.65625 -58.628906 14.703125 -59.113281 14.796875 -59.71875 C 15.097656 -61.550781 15.773438 -62.144531 16.828125 -61.5 L 17.8125 -61.234375 C 18.039062 -61.203125 18.289062 -61.191406 18.5625 -61.203125 C 18.84375 -61.210938 19.128906 -61.195312 19.421875 -61.15625 C 19.660156 -61.113281 19.785156 -60.910156 19.796875 -60.546875 C 19.128906 -56.804688 18.195312 -51.441406 17 -44.453125 C 15.800781 -37.472656 14.671875 -30.71875 13.609375 -24.1875 C 13.054688 -20.726562 12.988281 -17.5625 13.40625 -14.6875 C 13.832031 -11.8125 14.691406 -9.472656 15.984375 -7.671875 C 17.285156 -5.878906 18.890625 -4.828125 20.796875 -4.515625 C 23.410156 -4.097656 25.421875 -4.550781 26.828125 -5.875 C 28.242188 -7.207031 29.085938 -8.707031 29.359375 -10.375 L 30.390625 -15.78125 C 32.023438 -24.675781 32.921875 -29.601562 33.078125 -30.5625 C 33.296875 -31.925781 33.789062 -34.617188 34.5625 -38.640625 C 35.300781 -42.003906 35.929688 -45.320312 36.453125 -48.59375 C 36.929688 -51.507812 37.140625 -53.585938 37.078125 -54.828125 C 37.015625 -55.566406 37.019531 -56.144531 37.09375 -56.5625 C 37.226562 -57.394531 37.503906 -57.882812 37.921875 -58.03125 C 38.335938 -58.175781 38.734375 -58.203125 39.109375 -58.109375 C 39.492188 -58.015625 39.75 -57.957031 39.875 -57.9375 C 40.457031 -57.78125 41.125 -57.65625 41.875 -57.5625 C 42.632812 -57.46875 43.304688 -57.375 43.890625 -57.28125 L 46.21875 -56.90625 C 47.175781 -56.75 47.703125 -56.523438 47.796875 -56.234375 C 47.898438 -55.941406 47.910156 -55.34375 47.828125 -54.4375 C 47.742188 -53.113281 47.546875 -51.5 47.234375 -49.59375 C 47.023438 -48.289062 46.84375 -47.347656 46.6875 -46.765625 Z M 19.71875 -60.109375 L 19.796875 -60.546875 Z M 19.71875 -60.109375 "/></g></g><g style="fill:#000000;fill-opacity:1;"><g transform="translate(156.630096, 134.039549)"><path style="stroke:none" d="M 23.96875 1.90625 C 15.28125 1.90625 9.757812 0.234375 7.40625 -3.109375 C 5.0625 -6.460938 3.828125 -8.195312 3.703125 -8.3125 C 3.460938 -8.613281 3.34375 -8.914062 3.34375 -9.21875 C 3.34375 -9.40625 3.582031 -9.800781 4.0625 -10.40625 C 4.851562 -11.488281 6 -12.78125 7.5 -14.28125 C 7.738281 -14.519531 7.984375 -14.640625 8.234375 -14.640625 C 8.535156 -14.640625 8.863281 -14.414062 9.21875 -13.96875 C 9.582031 -13.519531 9.882812 -13.175781 10.125 -12.9375 C 13.6875 -9.375 17.726562 -7.59375 22.25 -7.59375 C 24.539062 -7.59375 26.53125 -8.03125 28.21875 -8.90625 C 29.90625 -9.78125 30.75 -11.421875 30.75 -13.828125 C 30.75 -17.992188 27.460938 -22.425781 20.890625 -27.125 C 19.804688 -27.851562 18.78125 -28.457031 17.8125 -28.9375 C 15.28125 -30.320312 13.109375 -31.675781 11.296875 -33 C 9.492188 -34.332031 7.898438 -36.082031 6.515625 -38.25 C 5.128906 -40.414062 4.4375 -42.945312 4.4375 -45.84375 C 4.4375 -49.457031 5.566406 -52.710938 7.828125 -55.609375 C 10.085938 -58.503906 12.796875 -60.765625 15.953125 -62.390625 C 19.117188 -64.015625 21.878906 -64.828125 24.234375 -64.828125 C 29.960938 -64.828125 34.675781 -63.695312 38.375 -61.4375 C 42.082031 -59.175781 44.960938 -57.019531 47.015625 -54.96875 C 47.253906 -54.726562 47.375 -54.457031 47.375 -54.15625 C 47.375 -53.976562 47.296875 -53.753906 47.140625 -53.484375 C 46.992188 -53.210938 46.894531 -53.015625 46.84375 -52.890625 C 46.539062 -52.472656 46.039062 -51.734375 45.34375 -50.671875 C 44.65625 -49.617188 44.097656 -48.851562 43.671875 -48.375 C 43.492188 -48.132812 43.296875 -47.878906 43.078125 -47.609375 C 42.867188 -47.335938 42.6875 -47.140625 42.53125 -47.015625 C 42.382812 -46.898438 42.160156 -46.84375 41.859375 -46.84375 C 41.742188 -46.84375 41.457031 -47.035156 41 -47.421875 C 40.550781 -47.816406 40.113281 -48.164062 39.6875 -48.46875 C 37.28125 -50.570312 34.929688 -52.378906 32.640625 -53.890625 C 30.347656 -55.398438 28.148438 -56.15625 26.046875 -56.15625 C 24.359375 -56.15625 22.96875 -55.773438 21.875 -55.015625 C 20.789062 -54.265625 20.25 -52.5625 20.25 -49.90625 C 20.25 -47.320312 21.210938 -45.304688 23.140625 -43.859375 C 25.078125 -42.410156 27.640625 -41.019531 30.828125 -39.6875 C 31.128906 -39.570312 32.894531 -38.820312 36.125 -37.4375 C 39.351562 -36.050781 42.21875 -33.394531 44.71875 -29.46875 C 47.21875 -25.550781 48.46875 -20.882812 48.46875 -15.46875 C 48.46875 -9.675781 46.296875 -5.332031 41.953125 -2.4375 C 37.617188 0.457031 31.625 1.90625 23.96875 1.90625 Z M 23.96875 1.90625 "/></g></g><g style="fill:#000000;fill-opacity:1;"><g transform="translate(213.833442, 134.008575)"><path style="stroke:none" d="M 42.578125 -73.3125 C 43.210938 -73.25 43.566406 -73.015625 43.640625 -72.609375 L 43.609375 -71.859375 C 43.628906 -71.441406 43.6875 -70.640625 43.78125 -69.453125 C 43.882812 -68.273438 44.050781 -66.484375 44.28125 -64.078125 C 44.445312 -62.265625 45.078125 -58.191406 46.171875 -51.859375 C 47.265625 -45.523438 48.148438 -40.585938 48.828125 -37.046875 C 49.304688 -34.554688 50.023438 -30.210938 50.984375 -24.015625 L 51.953125 -18.125 L 52.53125 -14.5625 C 52.707031 -13.675781 52.9375 -12.828125 53.21875 -12.015625 L 53.40625 -11.5 C 53.46875 -11.144531 53.367188 -10.925781 53.109375 -10.84375 C 52.847656 -10.757812 52.6875 -10.710938 52.625 -10.703125 C 52.070312 -10.472656 51.023438 -10.207031 49.484375 -9.90625 C 49.003906 -9.820312 48.71875 -10.015625 48.625 -10.484375 L 46.1875 -23.640625 C 45.9375 -24.585938 45.726562 -25.578125 45.5625 -26.609375 C 45.394531 -27.648438 45.226562 -28.582031 45.0625 -29.40625 L 44.34375 -33.140625 L 43.078125 -39.703125 L 35.9375 -38.140625 C 33.394531 -37.597656 29.96875 -36.910156 25.65625 -36.078125 L 17.3125 -34.46875 C 15.0625 -34.03125 13.304688 -33.71875 12.046875 -33.53125 C 12.234375 -32.519531 12.347656 -31.742188 12.390625 -31.203125 C 12.640625 -29.296875 12.929688 -27.484375 13.265625 -25.765625 L 15.015625 -16.15625 C 15.921875 -11.476562 16.664062 -8.425781 17.25 -7 C 17.507812 -6.320312 17.660156 -5.894531 17.703125 -5.71875 C 17.859375 -4.894531 17.734375 -4.332031 17.328125 -4.03125 C 16.921875 -3.738281 16.460938 -3.554688 15.953125 -3.484375 C 15.441406 -3.410156 15.097656 -3.359375 14.921875 -3.328125 C 12.816406 -3.054688 10.46875 -2.519531 7.875 -1.71875 C 6.882812 -1.394531 6.226562 -1.507812 5.90625 -2.0625 C 5.582031 -2.613281 5.332031 -3.421875 5.15625 -4.484375 C 4.988281 -5.554688 4.851562 -6.359375 4.75 -6.890625 L -1.359375 -37.578125 L -5.609375 -60.609375 C -5.835938 -61.796875 -5.847656 -62.578125 -5.640625 -62.953125 C -5.441406 -63.335938 -5.046875 -63.585938 -4.453125 -63.703125 L -2.484375 -63.984375 C -2.191406 -64.046875 -1.523438 -64.226562 -0.484375 -64.53125 C -0.191406 -64.65625 0.3125 -64.785156 1.03125 -64.921875 L 3.34375 -65.28125 C 3.820312 -65.320312 4.476562 -65.425781 5.3125 -65.59375 C 5.957031 -65.71875 6.390625 -65.597656 6.609375 -65.234375 C 6.835938 -64.867188 6.976562 -64.472656 7.03125 -64.046875 C 7.082031 -63.628906 7.125 -63.335938 7.15625 -63.171875 C 7.675781 -60.453125 8.234375 -56.90625 8.828125 -52.53125 L 10.1875 -43.6875 L 10.921875 -38.390625 L 16.28125 -39.25 L 19.59375 -39.78125 C 22.457031 -40.207031 24.453125 -40.53125 25.578125 -40.75 C 30.191406 -41.632812 33.707031 -42.34375 36.125 -42.875 C 39.019531 -43.4375 41.234375 -43.894531 42.765625 -44.25 L 42.25 -46.90625 L 41.21875 -51.78125 C 40.789062 -54.03125 40.019531 -58.671875 38.90625 -65.703125 L 37.875 -71.9375 C 37.832031 -72.5 38.109375 -72.835938 38.703125 -72.953125 L 39.703125 -73.046875 C 39.941406 -73.023438 40.382812 -73.078125 41.03125 -73.203125 C 41.75 -73.347656 42.265625 -73.382812 42.578125 -73.3125 Z M 48.59375 -10.671875 L 48.625 -10.484375 Z M 48.59375 -10.671875 "/></g></g><g style="fill:#000000;fill-opacity:1;"><g transform="translate(279.300766, 120.50836)"><path style="stroke:none" d="M 36.015625 -14.203125 C 35.335938 -13.929688 34.710938 -13.804688 34.140625 -13.828125 C 33.578125 -13.859375 32.90625 -14.039062 32.125 -14.375 C 31.59375 -14.5625 29.363281 -15.804688 25.4375 -18.109375 C 22.320312 -20.035156 20.203125 -21.253906 19.078125 -21.765625 C 17.710938 -22.253906 15.5625 -23.304688 12.625 -24.921875 L 8.234375 -27.140625 C 8.910156 -25.453125 9.363281 -24.238281 9.59375 -23.5 L 11.609375 -18.078125 L 13.859375 -12.25 C 14.703125 -10.175781 15.328125 -8.875 15.734375 -8.34375 C 15.867188 -8.1875 15.984375 -8 16.078125 -7.78125 C 16.234375 -7.382812 16.234375 -7.101562 16.078125 -6.9375 C 15.921875 -6.78125 15.644531 -6.625 15.25 -6.46875 L 11.890625 -5.109375 L 9.90625 -4.21875 C 8.5 -3.507812 7.460938 -3.019531 6.796875 -2.75 C 6.234375 -2.519531 5.882812 -2.414062 5.75 -2.4375 C 5.363281 -2.28125 5.101562 -2.367188 4.96875 -2.703125 C 4.894531 -2.867188 4.832031 -3.328125 4.78125 -4.078125 C 4.738281 -4.523438 4.320312 -5.394531 3.53125 -6.6875 C 3.34375 -7.007812 3.117188 -7.410156 2.859375 -7.890625 C 2.597656 -8.367188 2.351562 -8.890625 2.125 -9.453125 C 0.9375 -12.546875 -0.945312 -17.484375 -3.53125 -24.265625 C -6.113281 -31.054688 -7.519531 -34.960938 -7.75 -35.984375 C -8.195312 -37.554688 -9.242188 -40.378906 -10.890625 -44.453125 C -11.753906 -46.578125 -12.3125 -47.882812 -12.5625 -48.375 C -12.800781 -48.800781 -13.304688 -49.957031 -14.078125 -51.84375 C -14.753906 -53.53125 -15.382812 -55.210938 -15.96875 -56.890625 C -16.550781 -58.578125 -16.882812 -59.691406 -16.96875 -60.234375 C -17.144531 -60.816406 -16.957031 -61.222656 -16.40625 -61.453125 C -16.125 -61.566406 -15.828125 -61.632812 -15.515625 -61.65625 C -15.203125 -61.6875 -14.90625 -61.757812 -14.625 -61.875 C -13.5625 -62.3125 -12.742188 -62.609375 -12.171875 -62.765625 C -11.722656 -62.953125 -11.179688 -63.15625 -10.546875 -63.375 C -9.910156 -63.601562 -9.195312 -63.910156 -8.40625 -64.296875 L -7.890625 -64.5 C -7.453125 -64.675781 -7.125 -64.707031 -6.90625 -64.59375 C -6.695312 -64.488281 -6.53125 -64.269531 -6.40625 -63.9375 L -5.140625 -60.84375 L -4.125 -58.328125 L -2.734375 -54.890625 C -0.0859375 -48.359375 1.488281 -44.148438 2 -42.265625 C 2.394531 -40.992188 2.738281 -40 3.03125 -39.28125 L 4.203125 -36.53125 L 5.546875 -33.75 L 6.3125 -35.734375 C 6.457031 -36.179688 6.925781 -37.34375 7.71875 -39.21875 C 8.132812 -40.113281 8.84375 -41.882812 9.84375 -44.53125 C 10.851562 -47.1875 11.640625 -49.273438 12.203125 -50.796875 C 12.398438 -51.585938 12.960938 -53.242188 13.890625 -55.765625 C 14.828125 -58.285156 15.707031 -60.53125 16.53125 -62.5 C 17.019531 -63.863281 17.515625 -65.132812 18.015625 -66.3125 C 19.835938 -71.269531 20.785156 -73.992188 20.859375 -74.484375 C 21.066406 -75.554688 21.457031 -76.269531 22.03125 -76.625 C 22.1875 -76.6875 22.523438 -76.835938 23.046875 -77.078125 C 23.566406 -77.328125 24.007812 -77.492188 24.375 -77.578125 C 24.800781 -77.679688 25.078125 -77.566406 25.203125 -77.234375 C 25.296875 -77.015625 25.257812 -76.707031 25.09375 -76.3125 C 25.019531 -76.15625 24.585938 -75.117188 23.796875 -73.203125 C 23.015625 -71.285156 22.390625 -69.875 21.921875 -68.96875 C 21.554688 -68.238281 20.6875 -65.675781 19.3125 -61.28125 C 17.945312 -56.894531 17.160156 -54.234375 16.953125 -53.296875 C 16.148438 -51.085938 15.15625 -48.472656 13.96875 -45.453125 L 11.34375 -38.9375 C 10.90625 -39.21875 12.347656 -38.46875 15.671875 -36.6875 C 18.003906 -35.425781 20.15625 -34.375 22.125 -33.53125 C 22.90625 -33.207031 25.375 -31.929688 29.53125 -29.703125 C 34.8125 -26.972656 37.710938 -25.515625 38.234375 -25.328125 C 38.984375 -25.046875 41.191406 -23.925781 44.859375 -21.96875 L 47.328125 -20.640625 C 47.597656 -20.484375 47.78125 -20.296875 47.875 -20.078125 C 48.050781 -19.617188 47.660156 -19.195312 46.703125 -18.8125 Z M 36.015625 -14.203125 "/></g></g><g style="fill:#000000;fill-opacity:1;"><g transform="translate(333.183253, 97.822185)"><path style="stroke:none" d="M 0.859375 -0.515625 C 0.390625 -0.234375 0.0546875 -0.488281 -0.140625 -1.28125 C -0.234375 -1.4375 -0.285156 -1.582031 -0.296875 -1.71875 C -0.359375 -1.820312 -0.410156 -1.960938 -0.453125 -2.140625 C -0.503906 -2.328125 -0.566406 -2.609375 -0.640625 -2.984375 L -1.703125 -6.265625 C -1.796875 -6.640625 -1.945312 -7.289062 -2.15625 -8.21875 C -2.363281 -9.144531 -2.617188 -9.976562 -2.921875 -10.71875 C -3.421875 -12.113281 -4.078125 -14.289062 -4.890625 -17.25 L -5.59375 -19.78125 C -6.5625 -23.570312 -7.3125 -26.1875 -7.84375 -27.625 L -9.25 -32.375 C -9.769531 -34.394531 -10.125 -35.664062 -10.3125 -36.1875 C -10.882812 -37.945312 -11.546875 -40.191406 -12.296875 -42.921875 L -13.0625 -45.421875 L -13.59375 -47.296875 C -14.132812 -49.378906 -14.460938 -50.914062 -14.578125 -51.90625 C -14.660156 -52.269531 -14.9375 -53.5625 -15.40625 -55.78125 C -15.875 -58 -16.335938 -59.710938 -16.796875 -60.921875 C -17.179688 -62.378906 -17.367188 -63.53125 -17.359375 -64.375 C -17.359375 -65.226562 -17.019531 -65.863281 -16.34375 -66.28125 C -16.082031 -66.4375 -15.679688 -66.359375 -15.140625 -66.046875 C -14.609375 -65.734375 -14.007812 -65.320312 -13.34375 -64.8125 C -12.6875 -64.3125 -12.207031 -63.9375 -11.90625 -63.6875 C -10.894531 -62.957031 -8.6875 -60.953125 -5.28125 -57.671875 L -3.34375 -55.875 C -3.039062 -55.488281 -0.65625 -53.488281 3.8125 -49.875 L 7.875 -46.515625 L 11.46875 -43.734375 C 15.382812 -40.535156 17.816406 -38.632812 18.765625 -38.03125 C 23.890625 -33.65625 26.957031 -31 27.96875 -30.0625 C 29.132812 -28.9375 30.726562 -27.613281 32.75 -26.09375 C 34.769531 -24.570312 35.910156 -23.710938 36.171875 -23.515625 C 36.546875 -23.265625 36.78125 -23.0625 36.875 -22.90625 C 37 -22.695312 36.78125 -22.414062 36.21875 -22.0625 L 31.890625 -19.4375 C 31.679688 -19.3125 31.488281 -19.25 31.3125 -19.25 C 31.144531 -19.25 30.910156 -19.363281 30.609375 -19.59375 C 30.066406 -20.039062 29.222656 -20.800781 28.078125 -21.875 C 26.828125 -22.875 25.8125 -23.84375 25.03125 -24.78125 C 24.40625 -25.457031 23.59375 -26.234375 22.59375 -27.109375 C 21.601562 -27.992188 20.804688 -28.640625 20.203125 -29.046875 C 19.148438 -29.734375 18.066406 -30.585938 16.953125 -31.609375 L 14.890625 -33.4375 C 14.285156 -33.84375 13.878906 -34.070312 13.671875 -34.125 C 13.460938 -34.175781 13.203125 -34.101562 12.890625 -33.90625 C 11.816406 -33.25 11.035156 -32.738281 10.546875 -32.375 L 7.328125 -30.203125 C 6.953125 -29.898438 5.066406 -28.710938 1.671875 -26.640625 L -3.03125 -23.765625 L -3.203125 -23.671875 C -3.503906 -23.484375 -3.566406 -23.0625 -3.390625 -22.40625 L -3.0625 -21.53125 L -2.46875 -19.875 C -2.382812 -19.5 -1.8125 -17.800781 -0.75 -14.78125 C -0.363281 -13.820312 0.0664062 -12.535156 0.546875 -10.921875 C 1.066406 -9.828125 1.347656 -8.832031 1.390625 -7.9375 C 1.390625 -7.726562 1.484375 -7.296875 1.671875 -6.640625 C 1.867188 -5.984375 2.023438 -5.441406 2.140625 -5.015625 C 2.234375 -4.492188 2.460938 -3.707031 2.828125 -2.65625 C 2.796875 -2.570312 2.8125 -2.425781 2.875 -2.21875 C 2.9375 -2.019531 2.921875 -1.875 2.828125 -1.78125 C 2.742188 -1.695312 2.597656 -1.585938 2.390625 -1.453125 Z M 1.015625 -33.4375 C 1.554688 -33.914062 2.394531 -34.503906 3.53125 -35.203125 L 7.75 -37.65625 C 8.414062 -38.0625 8.644531 -38.441406 8.4375 -38.796875 C 8.269531 -39.054688 7.742188 -39.519531 6.859375 -40.1875 C 6.078125 -40.757812 4.734375 -41.914062 2.828125 -43.65625 C 1.335938 -45.070312 -0.015625 -46.257812 -1.234375 -47.21875 C -2.679688 -48.445312 -4.347656 -49.9375 -6.234375 -51.6875 C -8.117188 -53.4375 -9.296875 -54.582031 -9.765625 -55.125 C -12.203125 -57.382812 -13.550781 -58.4375 -13.8125 -58.28125 C -13.96875 -58.1875 -13.804688 -57.335938 -13.328125 -55.734375 L -12.734375 -53.75 C -12.253906 -52.144531 -11.660156 -50.125 -10.953125 -47.6875 C -10.242188 -45.257812 -9.6875 -43.1875 -9.28125 -41.46875 C -8.78125 -39.945312 -8.175781 -38.003906 -7.46875 -35.640625 C -6.769531 -33.285156 -6.34375 -31.617188 -6.1875 -30.640625 C -6.101562 -30.265625 -6.039062 -30.050781 -6 -30 C -5.789062 -29.644531 -5.484375 -29.519531 -5.078125 -29.625 C -4.679688 -29.726562 -4.320312 -29.894531 -4 -30.125 C -3.675781 -30.351562 -3.46875 -30.492188 -3.375 -30.546875 Z M 1.015625 -33.4375 "/></g></g></g></g></g></svg>